{"glyphs":{"0":{"ha":833,"x_min":86,"x_max":774,"o":"m 410 -11 q 168 99 250 -11 q 86 419 86 208 q 129 733 86 603 q 253 931 172 863 q 447 1000 333 1000 q 690 890 607 1000 q 774 569 774 781 q 678 141 774 293 q 410 -11 583 -11 m 413 65 q 614 197 544 65 q 683 585 683 329 q 625 840 683 757 q 447 924 567 924 q 244 792 314 924 q 175 404 175 660 q 233 149 175 232 q 413 65 292 65 z "},"1":{"ha":833,"x_min":161,"x_max":692,"o":"m 692 75 l 685 0 l 161 0 l 168 75 l 385 75 l 449 875 l 235 743 l 242 831 l 496 989 l 544 989 l 471 75 l 692 75 z "},"2":{"ha":833,"x_min":96,"x_max":736,"o":"m 219 75 l 726 75 l 719 0 l 96 0 l 101 64 l 485 454 q 613 614 575 546 q 650 754 650 682 q 600 878 650 832 q 467 925 550 925 q 315 896 388 925 q 169 806 243 867 l 140 874 q 290 967 203 933 q 467 1000 376 1000 q 663 934 590 1000 q 736 756 736 868 q 691 584 736 667 q 540 394 646 501 l 219 75 z "},"3":{"ha":833,"x_min":67,"x_max":736,"o":"m 551 506 q 676 426 632 483 q 719 283 719 369 q 679 129 719 196 q 565 26 639 63 q 390 -10 490 -10 q 213 23 296 -10 q 67 117 131 56 l 107 185 q 246 94 176 124 q 394 65 315 65 q 569 122 506 65 q 633 281 633 178 q 403 464 633 464 l 297 464 l 304 540 l 401 540 q 583 600 515 540 q 650 761 650 660 q 599 880 650 835 q 464 925 549 925 q 315 896 386 925 q 169 806 243 867 l 140 874 q 290 967 203 933 q 468 1000 378 1000 q 663 935 590 1000 q 736 763 736 871 q 686 606 736 675 q 551 506 636 536 z "},"4":{"ha":833,"x_min":65,"x_max":779,"o":"m 772 225 l 618 225 l 600 0 l 515 0 l 533 225 l 65 225 l 71 290 l 607 989 l 679 989 l 624 299 l 779 299 l 772 225 m 539 299 l 581 833 l 169 299 l 539 299 z "},"5":{"ha":833,"x_min":100,"x_max":775,"o":"m 275 915 l 244 525 q 344 590 285 567 q 467 614 403 614 q 679 536 599 614 q 760 329 760 458 q 717 152 760 229 q 597 33 674 75 q 421 -10 519 -10 q 247 23 329 -10 q 100 117 165 56 l 142 185 q 281 94 213 124 q 424 65 349 65 q 605 136 538 65 q 672 325 672 207 q 614 481 672 422 q 460 539 556 539 q 215 411 301 539 l 149 411 l 193 989 l 775 989 l 769 915 l 275 915 z "},"6":{"ha":833,"x_min":90,"x_max":803,"o":"m 496 925 q 278 813 360 925 q 179 488 196 700 l 176 439 q 285 567 213 519 q 451 614 358 614 q 613 577 543 614 q 720 472 682 540 q 758 315 758 404 q 717 148 758 222 q 602 31 675 74 q 438 -11 529 -11 q 181 99 271 -11 q 90 411 90 208 q 140 722 90 589 q 281 928 190 856 q 494 1000 372 1000 q 658 967 579 1000 q 803 874 738 935 l 760 806 q 628 894 696 864 q 496 925 561 925 m 442 539 q 317 507 372 539 q 231 419 263 475 q 200 292 200 363 q 265 127 200 190 q 438 64 331 64 q 606 133 542 64 q 671 315 671 203 q 608 478 671 417 q 442 539 544 539 z "},"7":{"ha":833,"x_min":144,"x_max":786,"o":"m 786 989 l 782 925 l 246 0 l 153 0 l 683 914 l 144 914 l 150 989 l 786 989 z "},"8":{"ha":833,"x_min":60,"x_max":774,"o":"m 568 507 q 707 418 656 482 q 758 265 758 354 q 714 120 758 182 q 588 24 669 58 q 393 -10 506 -10 q 215 23 290 -10 q 100 113 140 56 q 60 246 60 171 q 119 413 60 343 q 288 508 179 482 q 166 594 211 535 q 121 738 121 653 q 210 930 121 860 q 461 1000 299 1000 q 688 934 603 1000 q 774 757 774 868 q 719 601 774 668 q 568 507 664 535 m 208 735 q 267 597 208 649 q 431 533 325 544 q 617 603 549 544 q 685 749 685 661 q 626 879 685 833 q 461 925 568 925 q 273 876 338 925 q 208 735 208 826 m 399 65 q 599 118 526 65 q 671 265 671 171 q 610 407 671 354 q 426 469 549 460 q 217 402 285 457 q 149 256 149 347 q 215 115 149 164 q 399 65 281 65 z "},"9":{"ha":833,"x_min":57,"x_max":771,"o":"m 422 1000 q 680 890 589 1000 q 771 578 771 781 q 721 267 771 400 q 579 61 671 133 q 367 -11 488 -11 q 201 22 281 -11 q 57 115 121 54 l 99 183 q 365 64 231 64 q 582 177 500 64 q 681 501 664 290 l 683 551 q 574 422 647 469 q 408 375 500 375 q 247 413 317 375 q 140 517 178 450 q 101 674 101 585 q 143 841 101 767 q 258 958 185 915 q 422 1000 331 1000 m 418 450 q 542 482 488 450 q 628 570 597 514 q 660 697 660 626 q 594 862 660 799 q 422 925 529 925 q 253 856 318 925 q 189 674 189 786 q 252 511 189 572 q 418 450 315 450 z "},"\u0000":{"ha":0,"x_min":0,"x_max":0,"o":""},"\r":{"ha":354,"x_min":0,"x_max":0,"o":""}," ":{"ha":354,"x_min":0,"x_max":0,"o":""},"A":{"ha":1010,"x_min":10,"x_max":947,"o":"m 767 264 l 235 264 l 101 0 l 10 0 l 517 989 l 594 989 l 947 0 l 858 0 l 767 264 m 740 339 l 549 886 l 272 339 l 740 339 z "},"Á":{"ha":1010,"x_min":10,"x_max":947,"o":"m 767 264 l 235 264 l 101 0 l 10 0 l 517 989 l 594 989 l 947 0 l 858 0 l 767 264 m 740 339 l 549 886 l 272 339 l 740 339 m 531 1074 l 685 1283 l 796 1283 l 594 1074 l 531 1074 z "},"Ă":{"ha":1010,"x_min":10,"x_max":947,"o":"m 767 264 l 235 264 l 101 0 l 10 0 l 517 989 l 594 989 l 947 0 l 858 0 l 767 264 m 740 339 l 549 886 l 272 339 l 740 339 m 564 1092 q 434 1128 490 1092 q 353 1239 378 1164 l 418 1267 q 483 1183 447 1206 q 568 1160 518 1160 q 658 1183 619 1160 q 735 1267 697 1206 l 797 1239 q 564 1092 725 1092 z "},"Ắ":{"ha":1010,"x_min":10,"x_max":947,"o":"m 767 264 l 235 264 l 101 0 l 10 0 l 517 989 l 594 989 l 947 0 l 858 0 l 767 264 m 740 339 l 549 886 l 272 339 l 740 339 m 694 1414 l 804 1414 l 604 1215 l 543 1215 l 694 1414 m 563 1067 q 433 1103 489 1067 q 351 1214 378 1139 l 415 1242 q 480 1157 444 1181 q 568 1133 515 1133 q 658 1157 618 1133 q 735 1242 697 1181 l 796 1214 q 563 1067 724 1067 z "},"Ặ":{"ha":1010,"x_min":10,"x_max":947,"o":"m 767 264 l 235 264 l 101 0 l 10 0 l 517 989 l 594 989 l 947 0 l 858 0 l 767 264 m 740 339 l 549 886 l 272 339 l 740 339 m 524 -142 l 514 -250 l 403 -250 l 413 -142 l 524 -142 m 564 1092 q 434 1128 490 1092 q 353 1239 378 1164 l 418 1267 q 483 1183 447 1206 q 568 1160 518 1160 q 658 1183 619 1160 q 735 1267 697 1206 l 797 1239 q 564 1092 725 1092 z "},"Ằ":{"ha":1010,"x_min":10,"x_max":947,"o":"m 767 264 l 235 264 l 101 0 l 10 0 l 517 989 l 594 989 l 947 0 l 858 0 l 767 264 m 740 339 l 549 886 l 272 339 l 740 339 m 381 1414 l 478 1414 l 604 1215 l 543 1215 l 381 1414 m 563 1067 q 433 1103 489 1067 q 351 1214 378 1139 l 415 1242 q 480 1157 444 1181 q 568 1133 515 1133 q 658 1157 618 1133 q 735 1242 697 1181 l 796 1214 q 563 1067 724 1067 z "},"Ẳ":{"ha":1010,"x_min":10,"x_max":947,"o":"m 767 264 l 235 264 l 101 0 l 10 0 l 517 989 l 594 989 l 947 0 l 858 0 l 767 264 m 740 339 l 549 886 l 272 339 l 740 339 m 543 1239 q 561 1276 544 1264 q 607 1300 578 1289 q 622 1307 610 1301 q 641 1319 635 1313 q 647 1333 647 1325 q 631 1352 647 1346 q 590 1358 615 1358 q 499 1343 553 1358 l 485 1399 q 596 1421 538 1421 q 690 1399 656 1421 q 724 1342 724 1376 q 706 1298 724 1313 q 657 1268 689 1283 q 622 1251 635 1260 q 608 1228 610 1242 l 607 1215 l 542 1215 l 543 1239 m 563 1067 q 433 1103 489 1067 q 351 1214 378 1139 l 415 1242 q 480 1157 444 1181 q 568 1133 515 1133 q 658 1157 618 1133 q 735 1242 697 1181 l 796 1214 q 563 1067 724 1067 z "},"Ẵ":{"ha":1010,"x_min":10,"x_max":947,"o":"m 767 264 l 235 264 l 101 0 l 10 0 l 517 989 l 594 989 l 947 0 l 858 0 l 767 264 m 740 339 l 549 886 l 272 339 l 740 339 m 683 1279 q 629 1290 654 1279 q 567 1325 604 1301 q 522 1351 540 1342 q 486 1360 503 1360 q 435 1339 454 1360 q 414 1283 417 1318 l 358 1283 q 397 1390 363 1353 q 486 1426 432 1426 q 541 1415 515 1426 q 603 1382 567 1404 q 649 1356 631 1365 q 685 1347 668 1347 q 735 1368 717 1347 q 756 1422 754 1389 l 811 1422 q 774 1316 808 1353 q 683 1279 739 1279 m 563 1067 q 433 1103 489 1067 q 351 1214 378 1139 l 415 1242 q 480 1157 444 1181 q 568 1133 515 1133 q 658 1157 618 1133 q 735 1242 697 1181 l 796 1214 q 563 1067 724 1067 z "},"Â":{"ha":1010,"x_min":10,"x_max":947,"o":"m 767 264 l 235 264 l 101 0 l 10 0 l 517 989 l 594 989 l 947 0 l 858 0 l 767 264 m 740 339 l 549 886 l 272 339 l 740 339 m 369 1074 l 547 1283 l 611 1283 l 756 1074 l 671 1074 l 578 1225 l 457 1074 l 369 1074 z "},"Ấ":{"ha":1010,"x_min":10,"x_max":947,"o":"m 767 264 l 235 264 l 101 0 l 10 0 l 517 989 l 594 989 l 947 0 l 858 0 l 767 264 m 740 339 l 549 886 l 272 339 l 740 339 m 838 1414 l 946 1414 l 747 1215 l 689 1215 l 838 1414 m 547 1282 l 610 1282 l 756 1074 l 671 1074 l 578 1224 l 457 1074 l 369 1074 l 547 1282 z "},"Ậ":{"ha":1010,"x_min":10,"x_max":947,"o":"m 767 264 l 235 264 l 101 0 l 10 0 l 517 989 l 594 989 l 947 0 l 858 0 l 767 264 m 740 339 l 549 886 l 272 339 l 740 339 m 524 -142 l 514 -250 l 403 -250 l 413 -142 l 524 -142 m 369 1074 l 547 1283 l 611 1283 l 756 1074 l 671 1074 l 578 1225 l 457 1074 l 369 1074 z "},"Ầ":{"ha":1010,"x_min":10,"x_max":947,"o":"m 767 264 l 235 264 l 101 0 l 10 0 l 517 989 l 594 989 l 947 0 l 858 0 l 767 264 m 740 339 l 549 886 l 272 339 l 740 339 m 614 1414 l 711 1414 l 808 1215 l 749 1215 l 614 1414 m 547 1282 l 610 1282 l 756 1074 l 671 1074 l 578 1224 l 457 1074 l 369 1074 l 547 1282 z "},"Ẩ":{"ha":1010,"x_min":10,"x_max":947,"o":"m 767 264 l 235 264 l 101 0 l 10 0 l 517 989 l 594 989 l 947 0 l 858 0 l 767 264 m 740 339 l 549 886 l 272 339 l 740 339 m 689 1239 q 707 1276 690 1264 q 753 1300 724 1289 q 768 1307 756 1301 q 787 1319 781 1313 q 793 1333 793 1325 q 777 1352 793 1346 q 736 1358 761 1358 q 644 1343 699 1358 l 631 1399 q 742 1421 683 1421 q 836 1399 801 1421 q 871 1342 871 1376 q 853 1297 871 1313 q 803 1268 836 1282 q 768 1250 781 1258 q 754 1228 756 1242 l 753 1215 l 688 1215 l 689 1239 m 547 1282 l 610 1282 l 756 1074 l 671 1074 l 578 1224 l 457 1074 l 369 1074 l 547 1282 z "},"Ẫ":{"ha":1010,"x_min":10,"x_max":947,"o":"m 767 264 l 235 264 l 101 0 l 10 0 l 517 989 l 594 989 l 947 0 l 858 0 l 767 264 m 740 339 l 549 886 l 272 339 l 740 339 m 360 1301 q 399 1401 364 1365 q 488 1438 433 1438 q 542 1428 517 1438 q 606 1401 568 1419 q 686 1374 658 1374 q 736 1394 717 1374 q 757 1442 756 1414 l 813 1442 q 774 1342 810 1379 q 685 1306 739 1306 q 628 1315 656 1306 q 567 1343 601 1325 q 524 1363 546 1354 q 486 1371 503 1371 q 436 1351 456 1371 q 415 1301 417 1331 l 360 1301 m 547 1282 l 610 1282 l 756 1074 l 671 1074 l 578 1224 l 457 1074 l 369 1074 l 547 1282 z "},"Ȁ":{"ha":1010,"x_min":10,"x_max":947,"o":"m 767 264 l 235 264 l 101 0 l 10 0 l 517 989 l 594 989 l 947 0 l 858 0 l 767 264 m 740 339 l 549 886 l 272 339 l 740 339 m 339 1283 l 424 1283 l 508 1074 l 458 1074 l 339 1283 m 499 1283 l 583 1283 l 667 1074 l 617 1074 l 499 1283 z "},"Ä":{"ha":1010,"x_min":10,"x_max":947,"o":"m 767 264 l 235 264 l 101 0 l 10 0 l 517 989 l 594 989 l 947 0 l 858 0 l 767 264 m 740 339 l 549 886 l 272 339 l 740 339 m 513 1231 l 503 1129 l 399 1129 l 407 1231 l 513 1231 m 744 1231 l 736 1129 l 631 1129 l 639 1231 l 744 1231 z "},"Ạ":{"ha":1010,"x_min":10,"x_max":947,"o":"m 767 264 l 235 264 l 101 0 l 10 0 l 517 989 l 594 989 l 947 0 l 858 0 l 767 264 m 740 339 l 549 886 l 272 339 l 740 339 m 524 -142 l 514 -250 l 403 -250 l 413 -142 l 524 -142 z "},"À":{"ha":1010,"x_min":10,"x_max":947,"o":"m 767 264 l 235 264 l 101 0 l 10 0 l 517 989 l 594 989 l 947 0 l 858 0 l 767 264 m 740 339 l 549 886 l 272 339 l 740 339 m 371 1283 l 467 1283 l 594 1074 l 531 1074 l 371 1283 z "},"Ả":{"ha":1010,"x_min":10,"x_max":947,"o":"m 767 264 l 235 264 l 101 0 l 10 0 l 517 989 l 594 989 l 947 0 l 858 0 l 767 264 m 740 339 l 549 886 l 272 339 l 740 339 m 596 1074 l 531 1074 l 532 1096 q 549 1133 533 1119 q 594 1164 565 1147 q 624 1183 614 1175 q 635 1203 635 1192 q 619 1221 635 1214 q 578 1228 604 1228 q 489 1211 538 1228 l 474 1267 q 585 1290 526 1290 q 680 1268 646 1290 q 714 1208 714 1246 q 697 1162 714 1178 q 644 1128 679 1146 q 610 1109 622 1118 q 597 1086 599 1100 l 596 1074 z "},"Ȃ":{"ha":1010,"x_min":10,"x_max":947,"o":"m 767 264 l 235 264 l 101 0 l 10 0 l 517 989 l 594 989 l 947 0 l 858 0 l 767 264 m 740 339 l 549 886 l 272 339 l 740 339 m 578 1268 q 708 1231 651 1268 q 789 1119 764 1194 l 724 1093 q 659 1176 694 1153 q 574 1200 624 1200 q 484 1176 524 1200 q 407 1093 444 1153 l 344 1119 q 578 1268 418 1268 z "},"Ā":{"ha":1010,"x_min":10,"x_max":947,"o":"m 767 264 l 235 264 l 101 0 l 10 0 l 517 989 l 594 989 l 947 0 l 858 0 l 767 264 m 740 339 l 549 886 l 272 339 l 740 339 m 367 1217 l 781 1217 l 775 1144 l 360 1144 l 367 1217 z "},"Ą":{"ha":1010,"x_min":10,"x_max":986,"o":"m 986 -237 q 935 -260 965 -251 q 872 -268 904 -268 q 762 -231 803 -268 q 721 -129 721 -193 q 752 -28 721 -72 q 844 39 783 17 l 767 264 l 235 264 l 101 0 l 10 0 l 517 989 l 594 989 l 947 0 l 933 0 q 831 -35 864 0 q 797 -119 797 -71 q 819 -183 797 -161 q 882 -204 842 -204 q 969 -178 925 -204 l 986 -237 m 740 339 l 549 886 l 272 339 l 740 339 z "},"Å":{"ha":1010,"x_min":10,"x_max":947,"o":"m 767 264 l 235 264 l 101 0 l 10 0 l 501 960 q 444 1008 465 975 q 422 1082 422 1040 q 463 1178 422 1139 q 560 1218 503 1218 q 658 1178 618 1218 q 699 1082 699 1139 q 674 1003 699 1038 q 607 954 649 968 l 947 0 l 858 0 l 767 264 m 560 1154 q 510 1133 531 1154 q 490 1082 490 1113 q 510 1031 490 1051 q 560 1010 531 1010 q 610 1031 590 1010 q 629 1082 629 1051 q 610 1133 629 1113 q 560 1154 590 1154 m 740 339 l 549 886 l 272 339 l 740 339 z "},"Ǻ":{"ha":1010,"x_min":10,"x_max":947,"o":"m 767 264 l 235 264 l 101 0 l 10 0 l 501 960 q 444 1008 465 975 q 422 1082 422 1040 q 463 1178 422 1139 q 560 1218 503 1218 q 643 1192 608 1218 l 774 1317 l 888 1317 l 679 1153 q 699 1082 699 1121 q 674 1003 699 1038 q 607 954 649 968 l 947 0 l 858 0 l 767 264 m 560 1154 q 510 1133 531 1154 q 490 1082 490 1113 q 510 1031 490 1051 q 560 1010 531 1010 q 610 1031 590 1010 q 629 1082 629 1051 q 610 1133 629 1113 q 560 1154 590 1154 m 740 339 l 549 886 l 272 339 l 740 339 z "},"Ã":{"ha":1010,"x_min":10,"x_max":947,"o":"m 767 264 l 235 264 l 101 0 l 10 0 l 517 989 l 594 989 l 947 0 l 858 0 l 767 264 m 740 339 l 549 886 l 272 339 l 740 339 m 344 1110 q 383 1219 347 1181 q 474 1257 418 1257 q 527 1245 501 1257 q 589 1210 553 1233 q 637 1182 619 1190 q 671 1174 654 1174 q 722 1196 703 1174 q 742 1253 740 1218 l 797 1253 q 759 1143 794 1181 q 668 1106 724 1106 q 615 1117 640 1106 q 554 1151 589 1129 q 508 1177 526 1168 q 472 1186 489 1186 q 422 1165 440 1186 q 400 1110 403 1144 l 344 1110 z "},"Æ":{"ha":1388,"x_min":-18,"x_max":1364,"o":"m 818 914 l 824 540 l 1300 540 l 1294 464 l 825 464 l 831 75 l 1293 75 l 1286 0 l 753 0 l 750 264 l 257 264 l 81 0 l -18 0 l 656 989 l 1364 989 l 1360 914 l 818 914 m 740 914 l 692 914 l 307 339 l 749 339 l 740 914 z "},"Ǽ":{"ha":1388,"x_min":-18,"x_max":1364,"o":"m 818 914 l 824 540 l 1300 540 l 1294 464 l 825 464 l 831 75 l 1293 75 l 1286 0 l 753 0 l 750 264 l 257 264 l 81 0 l -18 0 l 656 989 l 1364 989 l 1360 914 l 818 914 m 740 914 l 692 914 l 307 339 l 749 339 l 740 914 m 818 1074 l 972 1283 l 1083 1283 l 882 1074 l 818 1074 z "},"B":{"ha":940,"x_min":103,"x_max":860,"o":"m 678 504 q 803 426 761 482 q 846 286 846 371 q 758 76 846 151 q 513 0 669 0 l 103 0 l 179 989 l 547 989 q 780 926 700 989 q 860 747 860 864 q 814 597 860 660 q 678 504 768 533 m 261 915 l 232 540 l 528 540 q 709 593 644 540 q 774 744 774 646 q 716 872 774 829 q 544 915 658 915 l 261 915 m 513 74 q 696 125 633 74 q 758 279 758 176 q 702 418 758 372 q 529 464 646 464 l 225 464 l 194 74 l 513 74 z "},"C":{"ha":950,"x_min":101,"x_max":918,"o":"m 513 -11 q 296 44 389 -11 q 152 204 203 100 q 101 451 101 308 q 158 742 101 618 q 319 933 214 865 q 568 1000 425 1000 q 767 967 678 1000 q 918 871 856 935 l 875 804 q 735 896 807 868 q 565 924 664 924 q 364 867 449 924 q 235 703 279 810 q 190 450 190 597 q 278 165 190 265 q 529 65 367 65 q 828 186 696 65 l 858 118 q 513 -11 721 -11 z "},"Ć":{"ha":950,"x_min":101,"x_max":918,"o":"m 513 -11 q 296 44 389 -11 q 152 204 203 100 q 101 451 101 308 q 158 742 101 618 q 319 933 214 865 q 568 1000 425 1000 q 767 967 678 1000 q 918 871 856 935 l 875 804 q 735 896 807 868 q 565 924 664 924 q 364 867 449 924 q 235 703 279 810 q 190 450 190 597 q 278 165 190 265 q 529 65 367 65 q 828 186 696 65 l 858 118 q 513 -11 721 -11 m 564 1074 l 718 1283 l 829 1283 l 628 1074 l 564 1074 z "},"Č":{"ha":950,"x_min":101,"x_max":918,"o":"m 513 -11 q 296 44 389 -11 q 152 204 203 100 q 101 451 101 308 q 158 742 101 618 q 319 933 214 865 q 568 1000 425 1000 q 767 967 678 1000 q 918 871 856 935 l 875 804 q 735 896 807 868 q 565 924 664 924 q 364 867 449 924 q 235 703 279 810 q 190 450 190 597 q 278 165 190 265 q 529 65 367 65 q 828 186 696 65 l 858 118 q 513 -11 721 -11 m 806 1283 l 628 1074 l 564 1074 l 419 1283 l 504 1283 l 600 1132 l 718 1283 l 806 1283 z "},"Ç":{"ha":950,"x_min":101,"x_max":918,"o":"m 565 924 q 364 867 449 924 q 235 703 279 810 q 190 450 190 597 q 278 165 190 265 q 529 65 367 65 q 828 186 696 65 l 858 118 q 532 -11 726 -6 l 522 -61 q 554 -57 539 -57 q 627 -82 599 -57 q 656 -151 656 -107 q 614 -236 656 -204 q 497 -268 572 -268 q 435 -262 468 -268 q 375 -242 401 -256 l 396 -187 q 499 -207 449 -207 q 563 -194 540 -207 q 585 -154 585 -181 q 572 -124 585 -135 q 535 -114 560 -114 q 469 -128 508 -114 l 444 -107 l 463 -8 q 272 61 353 3 q 146 219 190 119 q 101 451 101 318 q 158 742 101 618 q 319 933 214 865 q 568 1000 425 1000 q 767 967 678 1000 q 918 871 856 935 l 875 804 q 735 896 807 868 q 565 924 664 924 z "},"Ḉ":{"ha":950,"x_min":101,"x_max":918,"o":"m 628 1074 l 564 1074 l 718 1283 l 829 1283 l 628 1074 m 565 924 q 364 867 449 924 q 235 703 279 810 q 190 450 190 597 q 278 165 190 265 q 529 65 367 65 q 828 186 696 65 l 858 118 q 532 -11 726 -6 l 522 -61 q 554 -57 539 -57 q 627 -82 599 -57 q 656 -151 656 -107 q 614 -236 656 -204 q 497 -268 572 -268 q 435 -262 468 -268 q 375 -242 401 -256 l 396 -187 q 499 -207 449 -207 q 563 -194 540 -207 q 585 -154 585 -181 q 572 -124 585 -135 q 535 -114 560 -114 q 469 -128 508 -114 l 444 -107 l 463 -8 q 272 61 353 3 q 146 219 190 119 q 101 451 101 318 q 158 742 101 618 q 319 933 214 865 q 568 1000 425 1000 q 767 967 678 1000 q 918 871 856 935 l 875 804 q 735 896 807 868 q 565 924 664 924 z "},"Ĉ":{"ha":950,"x_min":101,"x_max":918,"o":"m 513 -11 q 296 44 389 -11 q 152 204 203 100 q 101 451 101 308 q 158 742 101 618 q 319 933 214 865 q 568 1000 425 1000 q 767 967 678 1000 q 918 871 856 935 l 875 804 q 735 896 807 868 q 565 924 664 924 q 364 867 449 924 q 235 703 279 810 q 190 450 190 597 q 278 165 190 265 q 529 65 367 65 q 828 186 696 65 l 858 118 q 513 -11 721 -11 m 403 1074 l 581 1283 l 644 1283 l 789 1074 l 704 1074 l 611 1225 l 490 1074 l 403 1074 z "},"Ċ":{"ha":950,"x_min":101,"x_max":918,"o":"m 513 -11 q 296 44 389 -11 q 152 204 203 100 q 101 451 101 308 q 158 742 101 618 q 319 933 214 865 q 568 1000 425 1000 q 767 967 678 1000 q 918 871 856 935 l 875 804 q 735 896 807 868 q 565 924 664 924 q 364 867 449 924 q 235 703 279 810 q 190 450 190 597 q 278 165 190 265 q 529 65 367 65 q 828 186 696 65 l 858 118 q 513 -11 721 -11 m 664 1235 l 656 1126 l 544 1126 l 553 1235 l 664 1235 z "},"D":{"ha":1028,"x_min":103,"x_max":950,"o":"m 179 989 l 490 989 q 831 872 713 989 q 950 538 950 754 q 892 250 950 371 q 724 65 835 129 q 456 0 613 0 l 103 0 l 179 989 m 453 75 q 757 195 654 75 q 860 539 860 315 q 488 914 860 914 l 261 914 l 194 75 l 453 75 z "},"Ǆ":{"ha":1826,"x_min":103,"x_max":1811,"o":"m 179 989 l 490 989 q 831 872 713 989 q 950 538 950 754 q 892 250 950 371 q 724 65 835 129 q 456 0 613 0 l 103 0 l 179 989 m 453 75 q 757 195 654 75 q 860 539 860 315 q 488 914 860 914 l 261 914 l 194 75 l 453 75 m 1807 926 l 1153 74 l 1754 74 l 1747 0 l 1040 0 l 1046 63 l 1701 915 l 1114 915 l 1119 989 l 1811 989 l 1807 926 m 1682 1283 l 1504 1074 l 1440 1074 l 1296 1283 l 1381 1283 l 1476 1132 l 1594 1283 l 1682 1283 z "},"Ð":{"ha":1039,"x_min":17,"x_max":961,"o":"m 503 989 q 843 872 725 989 q 961 538 961 754 q 832 142 961 285 q 467 0 703 0 l 114 0 l 150 465 l 17 465 l 24 538 l 156 538 l 190 989 l 503 989 m 464 75 q 768 195 665 75 q 871 539 871 315 q 778 819 871 725 q 500 914 686 914 l 272 914 l 242 538 l 515 538 l 508 465 l 236 465 l 206 75 l 464 75 z "},"Ď":{"ha":1028,"x_min":103,"x_max":950,"o":"m 179 989 l 490 989 q 831 872 713 989 q 950 538 950 754 q 892 250 950 371 q 724 65 835 129 q 456 0 613 0 l 103 0 l 179 989 m 453 75 q 757 195 654 75 q 860 539 860 315 q 488 914 860 914 l 261 914 l 194 75 l 453 75 m 781 1283 l 603 1074 l 539 1074 l 394 1283 l 479 1283 l 575 1132 l 693 1283 l 781 1283 z "},"Đ":{"ha":1039,"x_min":17,"x_max":961,"o":"m 503 989 q 843 872 725 989 q 961 538 961 754 q 832 142 961 285 q 467 0 703 0 l 114 0 l 150 465 l 17 465 l 24 538 l 156 538 l 190 989 l 503 989 m 464 75 q 768 195 665 75 q 871 539 871 315 q 778 819 871 725 q 500 914 686 914 l 272 914 l 242 538 l 515 538 l 508 465 l 236 465 l 206 75 l 464 75 z "},"Ḍ":{"ha":1028,"x_min":103,"x_max":950,"o":"m 179 989 l 490 989 q 831 872 713 989 q 950 538 950 754 q 892 250 950 371 q 724 65 835 129 q 456 0 613 0 l 103 0 l 179 989 m 453 75 q 757 195 654 75 q 860 539 860 315 q 488 914 860 914 l 261 914 l 194 75 l 453 75 m 533 -142 l 524 -250 l 413 -250 l 422 -142 l 533 -142 z "},"Ḏ":{"ha":1028,"x_min":103,"x_max":950,"o":"m 179 989 l 490 989 q 831 872 713 989 q 950 538 950 754 q 892 250 950 371 q 724 65 835 129 q 456 0 613 0 l 103 0 l 179 989 m 453 75 q 757 195 654 75 q 860 539 860 315 q 488 914 860 914 l 261 914 l 194 75 l 453 75 m 268 -160 l 683 -160 l 678 -232 l 263 -232 l 268 -160 z "},"ǅ":{"ha":1743,"x_min":103,"x_max":1690,"o":"m 179 989 l 490 989 q 831 872 713 989 q 950 538 950 754 q 892 250 950 371 q 724 65 835 129 q 456 0 613 0 l 103 0 l 179 989 m 453 75 q 757 195 654 75 q 860 539 860 315 q 488 914 860 914 l 261 914 l 194 75 l 453 75 m 1688 633 l 1189 68 l 1657 68 l 1651 0 l 1071 0 l 1075 57 l 1579 628 l 1139 628 l 1143 696 l 1690 696 l 1688 633 m 1640 1069 l 1458 788 l 1392 788 l 1254 1069 l 1339 1069 l 1429 857 l 1553 1069 l 1640 1069 z "},"E":{"ha":814,"x_min":103,"x_max":790,"o":"m 261 915 l 232 540 l 728 540 l 721 464 l 225 464 l 194 74 l 719 74 l 713 0 l 103 0 l 179 989 l 790 989 l 786 915 l 261 915 z "},"É":{"ha":814,"x_min":103,"x_max":790,"o":"m 261 915 l 232 540 l 728 540 l 721 464 l 225 464 l 194 74 l 719 74 l 713 0 l 103 0 l 179 989 l 790 989 l 786 915 l 261 915 m 479 1074 l 633 1283 l 744 1283 l 543 1074 l 479 1074 z "},"Ĕ":{"ha":814,"x_min":103,"x_max":790,"o":"m 261 915 l 232 540 l 728 540 l 721 464 l 225 464 l 194 74 l 719 74 l 713 0 l 103 0 l 179 989 l 790 989 l 786 915 l 261 915 m 513 1092 q 383 1128 439 1092 q 301 1239 326 1164 l 367 1267 q 431 1183 396 1206 q 517 1160 467 1160 q 607 1183 568 1160 q 683 1267 646 1206 l 746 1239 q 513 1092 674 1092 z "},"Ě":{"ha":814,"x_min":103,"x_max":790,"o":"m 261 915 l 232 540 l 728 540 l 721 464 l 225 464 l 194 74 l 719 74 l 713 0 l 103 0 l 179 989 l 790 989 l 786 915 l 261 915 m 721 1283 l 543 1074 l 479 1074 l 335 1283 l 419 1283 l 515 1132 l 633 1283 l 721 1283 z "},"Ȩ":{"ha":814,"x_min":103,"x_max":790,"o":"m 261 915 l 232 540 l 728 540 l 721 464 l 225 464 l 194 74 l 719 74 l 713 0 l 450 0 l 438 -61 q 469 -57 454 -57 q 542 -82 514 -57 q 571 -151 571 -107 q 529 -236 571 -204 q 413 -268 488 -268 q 350 -262 383 -268 q 290 -242 317 -256 l 311 -187 q 414 -207 364 -207 q 478 -194 456 -207 q 500 -154 500 -181 q 488 -124 500 -135 q 450 -114 475 -114 q 385 -128 424 -114 l 360 -107 l 379 0 l 103 0 l 179 989 l 790 989 l 786 915 l 261 915 z "},"Ḝ":{"ha":814,"x_min":103,"x_max":790,"o":"m 513 1092 q 383 1128 439 1092 q 301 1239 326 1164 l 367 1267 q 431 1183 396 1206 q 517 1160 467 1160 q 607 1183 568 1160 q 683 1267 646 1206 l 746 1239 q 513 1092 674 1092 m 261 915 l 232 540 l 728 540 l 721 464 l 225 464 l 194 74 l 719 74 l 713 0 l 450 0 l 438 -61 q 469 -57 454 -57 q 542 -82 514 -57 q 571 -151 571 -107 q 529 -236 571 -204 q 413 -268 488 -268 q 350 -262 383 -268 q 290 -242 317 -256 l 311 -187 q 414 -207 364 -207 q 478 -194 456 -207 q 500 -154 500 -181 q 488 -124 500 -135 q 450 -114 475 -114 q 385 -128 424 -114 l 360 -107 l 379 0 l 103 0 l 179 989 l 790 989 l 786 915 l 261 915 z "},"Ê":{"ha":814,"x_min":103,"x_max":790,"o":"m 261 915 l 232 540 l 728 540 l 721 464 l 225 464 l 194 74 l 719 74 l 713 0 l 103 0 l 179 989 l 790 989 l 786 915 l 261 915 m 318 1074 l 496 1283 l 560 1283 l 704 1074 l 619 1074 l 526 1225 l 406 1074 l 318 1074 z "},"Ế":{"ha":814,"x_min":103,"x_max":894,"o":"m 261 915 l 232 540 l 728 540 l 721 464 l 225 464 l 194 74 l 719 74 l 713 0 l 103 0 l 179 989 l 790 989 l 786 915 l 261 915 m 786 1414 l 894 1414 l 696 1215 l 638 1215 l 786 1414 m 496 1282 l 558 1282 l 704 1074 l 619 1074 l 526 1224 l 406 1074 l 318 1074 l 496 1282 z "},"Ệ":{"ha":814,"x_min":103,"x_max":790,"o":"m 261 915 l 232 540 l 728 540 l 721 464 l 225 464 l 194 74 l 719 74 l 713 0 l 103 0 l 179 989 l 790 989 l 786 915 l 261 915 m 472 -142 l 463 -250 l 351 -250 l 361 -142 l 472 -142 m 318 1074 l 496 1283 l 560 1283 l 704 1074 l 619 1074 l 526 1225 l 406 1074 l 318 1074 z "},"Ề":{"ha":814,"x_min":103,"x_max":790,"o":"m 261 915 l 232 540 l 728 540 l 721 464 l 225 464 l 194 74 l 719 74 l 713 0 l 103 0 l 179 989 l 790 989 l 786 915 l 261 915 m 563 1414 l 660 1414 l 757 1215 l 697 1215 l 563 1414 m 496 1282 l 558 1282 l 704 1074 l 619 1074 l 526 1224 l 406 1074 l 318 1074 l 496 1282 z "},"Ể":{"ha":814,"x_min":103,"x_max":819,"o":"m 261 915 l 232 540 l 728 540 l 721 464 l 225 464 l 194 74 l 719 74 l 713 0 l 103 0 l 179 989 l 790 989 l 786 915 l 261 915 m 638 1239 q 656 1276 639 1264 q 701 1300 672 1289 q 717 1307 704 1301 q 735 1319 729 1313 q 742 1333 742 1325 q 726 1352 742 1346 q 685 1358 710 1358 q 593 1343 647 1358 l 579 1399 q 690 1421 632 1421 q 785 1399 750 1421 q 819 1342 819 1376 q 802 1297 819 1313 q 751 1268 785 1282 q 717 1250 729 1258 q 703 1228 704 1242 l 701 1215 l 636 1215 l 638 1239 m 496 1282 l 558 1282 l 704 1074 l 619 1074 l 526 1224 l 406 1074 l 318 1074 l 496 1282 z "},"Ễ":{"ha":814,"x_min":103,"x_max":790,"o":"m 261 915 l 232 540 l 728 540 l 721 464 l 225 464 l 194 74 l 719 74 l 713 0 l 103 0 l 179 989 l 790 989 l 786 915 l 261 915 m 308 1301 q 347 1401 313 1365 q 436 1438 382 1438 q 491 1428 465 1438 q 554 1401 517 1419 q 635 1374 607 1374 q 685 1394 665 1374 q 706 1442 704 1414 l 761 1442 q 723 1342 758 1379 q 633 1306 688 1306 q 577 1315 604 1306 q 515 1343 550 1325 q 473 1363 494 1354 q 435 1371 451 1371 q 385 1351 404 1371 q 364 1301 365 1331 l 308 1301 m 496 1282 l 558 1282 l 704 1074 l 619 1074 l 526 1224 l 406 1074 l 318 1074 l 496 1282 z "},"Ȅ":{"ha":814,"x_min":103,"x_max":790,"o":"m 261 915 l 232 540 l 728 540 l 721 464 l 225 464 l 194 74 l 719 74 l 713 0 l 103 0 l 179 989 l 790 989 l 786 915 l 261 915 m 288 1283 l 372 1283 l 457 1074 l 407 1074 l 288 1283 m 447 1283 l 532 1283 l 615 1074 l 565 1074 l 447 1283 z "},"Ë":{"ha":814,"x_min":103,"x_max":790,"o":"m 261 915 l 232 540 l 728 540 l 721 464 l 225 464 l 194 74 l 719 74 l 713 0 l 103 0 l 179 989 l 790 989 l 786 915 l 261 915 m 461 1231 l 451 1129 l 347 1129 l 356 1231 l 461 1231 m 693 1231 l 685 1129 l 579 1129 l 588 1231 l 693 1231 z "},"Ė":{"ha":814,"x_min":103,"x_max":790,"o":"m 261 915 l 232 540 l 728 540 l 721 464 l 225 464 l 194 74 l 719 74 l 713 0 l 103 0 l 179 989 l 790 989 l 786 915 l 261 915 m 579 1235 l 571 1126 l 460 1126 l 468 1235 l 579 1235 z "},"Ẹ":{"ha":814,"x_min":103,"x_max":790,"o":"m 261 915 l 232 540 l 728 540 l 721 464 l 225 464 l 194 74 l 719 74 l 713 0 l 103 0 l 179 989 l 790 989 l 786 915 l 261 915 m 472 -142 l 463 -250 l 351 -250 l 361 -142 l 472 -142 z "},"È":{"ha":814,"x_min":103,"x_max":790,"o":"m 261 915 l 232 540 l 728 540 l 721 464 l 225 464 l 194 74 l 719 74 l 713 0 l 103 0 l 179 989 l 790 989 l 786 915 l 261 915 m 319 1283 l 415 1283 l 543 1074 l 479 1074 l 319 1283 z "},"Ẻ":{"ha":814,"x_min":103,"x_max":790,"o":"m 261 915 l 232 540 l 728 540 l 721 464 l 225 464 l 194 74 l 719 74 l 713 0 l 103 0 l 179 989 l 790 989 l 786 915 l 261 915 m 544 1074 l 479 1074 l 481 1096 q 498 1133 482 1119 q 543 1164 514 1147 q 573 1183 563 1175 q 583 1203 583 1192 q 568 1221 583 1214 q 526 1228 553 1228 q 438 1211 486 1228 l 422 1267 q 533 1290 475 1290 q 628 1268 594 1290 q 663 1208 663 1246 q 645 1162 663 1178 q 593 1128 628 1146 q 559 1109 571 1118 q 546 1086 547 1100 l 544 1074 z "},"Ȇ":{"ha":814,"x_min":103,"x_max":790,"o":"m 261 915 l 232 540 l 728 540 l 721 464 l 225 464 l 194 74 l 719 74 l 713 0 l 103 0 l 179 989 l 790 989 l 786 915 l 261 915 m 526 1268 q 656 1231 600 1268 q 738 1119 713 1194 l 672 1093 q 608 1176 643 1153 q 522 1200 572 1200 q 433 1176 472 1200 q 356 1093 393 1153 l 293 1119 q 526 1268 367 1268 z "},"Ē":{"ha":814,"x_min":103,"x_max":790,"o":"m 261 915 l 232 540 l 728 540 l 721 464 l 225 464 l 194 74 l 719 74 l 713 0 l 103 0 l 179 989 l 790 989 l 786 915 l 261 915 m 315 1217 l 729 1217 l 724 1144 l 308 1144 l 315 1217 z "},"Ḗ":{"ha":814,"x_min":103,"x_max":790,"o":"m 261 915 l 232 540 l 728 540 l 721 464 l 225 464 l 194 74 l 719 74 l 713 0 l 103 0 l 179 989 l 790 989 l 786 915 l 261 915 m 315 1217 l 729 1217 l 724 1144 l 308 1144 l 315 1217 m 497 1299 l 651 1508 l 763 1508 l 561 1299 l 497 1299 z "},"Ḕ":{"ha":814,"x_min":103,"x_max":790,"o":"m 261 915 l 232 540 l 728 540 l 721 464 l 225 464 l 194 74 l 719 74 l 713 0 l 103 0 l 179 989 l 790 989 l 786 915 l 261 915 m 315 1217 l 729 1217 l 724 1144 l 308 1144 l 315 1217 m 338 1508 l 433 1508 l 561 1299 l 497 1299 l 338 1508 z "},"Ę":{"ha":814,"x_min":103,"x_max":790,"o":"m 261 915 l 232 540 l 728 540 l 721 464 l 225 464 l 194 74 l 719 74 l 713 0 l 694 0 q 587 -33 622 0 q 551 -118 551 -67 q 574 -182 551 -160 q 638 -204 596 -204 q 722 -178 678 -204 l 740 -237 q 689 -260 719 -251 q 626 -268 658 -268 q 515 -231 557 -268 q 474 -133 474 -194 q 536 0 474 -54 l 103 0 l 179 989 l 790 989 l 786 915 l 261 915 z "},"Ẽ":{"ha":814,"x_min":103,"x_max":790,"o":"m 261 915 l 232 540 l 728 540 l 721 464 l 225 464 l 194 74 l 719 74 l 713 0 l 103 0 l 179 989 l 790 989 l 786 915 l 261 915 m 293 1110 q 331 1219 296 1181 q 422 1257 367 1257 q 476 1245 450 1257 q 538 1210 501 1233 q 585 1182 568 1190 q 619 1174 603 1174 q 670 1196 651 1174 q 690 1253 689 1218 l 746 1253 q 708 1143 743 1181 q 617 1106 672 1106 q 563 1117 589 1106 q 503 1151 538 1129 q 456 1177 475 1168 q 421 1186 438 1186 q 370 1165 389 1186 q 349 1110 351 1144 l 293 1110 z "},"F":{"ha":776,"x_min":103,"x_max":776,"o":"m 261 915 l 232 540 l 713 540 l 707 464 l 225 464 l 189 0 l 103 0 l 179 989 l 776 989 l 771 915 l 261 915 z "},"G":{"ha":1008,"x_min":101,"x_max":926,"o":"m 567 507 l 906 507 l 871 56 q 719 8 810 26 q 547 -11 628 -11 q 216 107 331 -11 q 101 438 101 225 q 160 735 101 608 q 329 930 219 861 q 586 999 439 999 q 926 871 794 999 l 883 803 q 742 895 813 867 q 586 924 672 924 q 374 866 463 924 q 238 700 285 808 q 190 443 190 592 q 281 163 190 261 q 547 64 371 64 q 675 76 608 64 q 797 110 742 89 l 821 433 l 561 433 l 567 507 z "},"Ğ":{"ha":1008,"x_min":101,"x_max":926,"o":"m 567 507 l 906 507 l 871 56 q 719 8 810 26 q 547 -11 628 -11 q 216 107 331 -11 q 101 438 101 225 q 160 735 101 608 q 329 930 219 861 q 586 999 439 999 q 926 871 794 999 l 883 803 q 742 895 813 867 q 586 924 672 924 q 374 866 463 924 q 238 700 285 808 q 190 443 190 592 q 281 163 190 261 q 547 64 371 64 q 675 76 608 64 q 797 110 742 89 l 821 433 l 561 433 l 567 507 m 603 1092 q 473 1128 529 1092 q 392 1239 417 1164 l 457 1267 q 522 1183 486 1206 q 607 1160 557 1160 q 697 1183 658 1160 q 774 1267 736 1206 l 836 1239 q 603 1092 764 1092 z "},"Ǧ":{"ha":1008,"x_min":101,"x_max":926,"o":"m 567 507 l 906 507 l 871 56 q 719 8 810 26 q 547 -11 628 -11 q 216 107 331 -11 q 101 438 101 225 q 160 735 101 608 q 329 930 219 861 q 586 999 439 999 q 926 871 794 999 l 883 803 q 742 895 813 867 q 586 924 672 924 q 374 866 463 924 q 238 700 285 808 q 190 443 190 592 q 281 163 190 261 q 547 64 371 64 q 675 76 608 64 q 797 110 742 89 l 821 433 l 561 433 l 567 507 m 811 1283 l 633 1074 l 569 1074 l 425 1283 l 510 1283 l 606 1132 l 724 1283 l 811 1283 z "},"Ĝ":{"ha":1008,"x_min":101,"x_max":926,"o":"m 567 507 l 906 507 l 871 56 q 719 8 810 26 q 547 -11 628 -11 q 216 107 331 -11 q 101 438 101 225 q 160 735 101 608 q 329 930 219 861 q 586 999 439 999 q 926 871 794 999 l 883 803 q 742 895 813 867 q 586 924 672 924 q 374 866 463 924 q 238 700 285 808 q 190 443 190 592 q 281 163 190 261 q 547 64 371 64 q 675 76 608 64 q 797 110 742 89 l 821 433 l 561 433 l 567 507 m 408 1074 l 586 1283 l 650 1283 l 794 1074 l 710 1074 l 617 1225 l 496 1074 l 408 1074 z "},"Ģ":{"ha":1008,"x_min":101,"x_max":926,"o":"m 567 507 l 906 507 l 871 56 q 719 8 810 26 q 547 -11 628 -11 q 216 107 331 -11 q 101 438 101 225 q 160 735 101 608 q 329 930 219 861 q 586 999 439 999 q 926 871 794 999 l 883 803 q 742 895 813 867 q 586 924 672 924 q 374 866 463 924 q 238 700 285 808 q 190 443 190 592 q 281 163 190 261 q 547 64 371 64 q 675 76 608 64 q 797 110 742 89 l 821 433 l 561 433 l 567 507 m 579 -104 l 574 -182 q 549 -278 568 -236 q 490 -358 531 -319 l 450 -324 q 492 -267 479 -294 q 508 -207 506 -240 l 454 -207 l 461 -104 l 579 -104 z "},"Ġ":{"ha":1008,"x_min":101,"x_max":926,"o":"m 567 507 l 906 507 l 871 56 q 719 8 810 26 q 547 -11 628 -11 q 216 107 331 -11 q 101 438 101 225 q 160 735 101 608 q 329 930 219 861 q 586 999 439 999 q 926 871 794 999 l 883 803 q 742 895 813 867 q 586 924 672 924 q 374 866 463 924 q 238 700 285 808 q 190 443 190 592 q 281 163 190 261 q 547 64 371 64 q 675 76 608 64 q 797 110 742 89 l 821 433 l 561 433 l 567 507 m 669 1235 l 661 1126 l 550 1126 l 558 1235 l 669 1235 z "},"Ḡ":{"ha":1008,"x_min":101,"x_max":926,"o":"m 567 507 l 906 507 l 871 56 q 719 8 810 26 q 547 -11 628 -11 q 216 107 331 -11 q 101 438 101 225 q 160 735 101 608 q 329 930 219 861 q 586 999 439 999 q 926 871 794 999 l 883 803 q 742 895 813 867 q 586 924 672 924 q 374 866 463 924 q 238 700 285 808 q 190 443 190 592 q 281 163 190 261 q 547 64 371 64 q 675 76 608 64 q 797 110 742 89 l 821 433 l 561 433 l 567 507 m 406 1217 l 819 1217 l 814 1144 l 399 1144 l 406 1217 z "},"H":{"ha":1058,"x_min":103,"x_max":982,"o":"m 982 989 l 904 0 l 819 0 l 856 464 l 225 464 l 188 0 l 103 0 l 179 989 l 267 989 l 231 540 l 861 540 l 896 989 l 982 989 z "},"Ħ":{"ha":1083,"x_min":39,"x_max":1111,"o":"m 1106 735 l 975 735 l 917 0 l 832 0 l 868 464 l 236 464 l 200 0 l 115 0 l 172 735 l 39 735 l 44 807 l 178 807 l 192 989 l 278 989 l 264 807 l 894 807 l 908 989 l 994 989 l 981 807 l 1111 807 l 1106 735 m 889 735 l 258 735 l 243 540 l 874 540 l 889 735 z "},"Ḫ":{"ha":1058,"x_min":103,"x_max":982,"o":"m 982 989 l 904 0 l 819 0 l 856 464 l 225 464 l 188 0 l 103 0 l 179 989 l 267 989 l 231 540 l 861 540 l 896 989 l 982 989 m 483 -290 q 354 -249 411 -290 q 274 -121 297 -207 l 339 -93 q 489 -221 383 -221 q 581 -192 539 -221 q 656 -93 622 -162 l 719 -119 q 620 -249 682 -208 q 483 -290 558 -290 z "},"Ĥ":{"ha":1058,"x_min":103,"x_max":982,"o":"m 982 989 l 904 0 l 819 0 l 856 464 l 225 464 l 188 0 l 103 0 l 179 989 l 267 989 l 231 540 l 861 540 l 896 989 l 982 989 m 394 1074 l 572 1283 l 636 1283 l 781 1074 l 696 1074 l 603 1225 l 482 1074 l 394 1074 z "},"Ḥ":{"ha":1058,"x_min":103,"x_max":982,"o":"m 982 989 l 904 0 l 819 0 l 856 464 l 225 464 l 188 0 l 103 0 l 179 989 l 267 989 l 231 540 l 861 540 l 896 989 l 982 989 m 551 -142 l 542 -250 l 431 -250 l 440 -142 l 551 -142 z "},"I":{"ha":342,"x_min":103,"x_max":267,"o":"m 179 989 l 267 989 l 189 0 l 103 0 l 179 989 z "},"Í":{"ha":342,"x_min":103,"x_max":464,"o":"m 179 989 l 267 989 l 189 0 l 103 0 l 179 989 m 199 1074 l 353 1283 l 464 1283 l 263 1074 l 199 1074 z "},"Ĭ":{"ha":342,"x_min":21,"x_max":465,"o":"m 179 989 l 267 989 l 189 0 l 103 0 l 179 989 m 232 1092 q 102 1128 158 1092 q 21 1239 46 1164 l 86 1267 q 151 1183 115 1206 q 236 1160 186 1160 q 326 1183 288 1160 q 403 1267 365 1206 l 465 1239 q 232 1092 393 1092 z "},"Î":{"ha":342,"x_min":38,"x_max":424,"o":"m 179 989 l 267 989 l 189 0 l 103 0 l 179 989 m 38 1074 l 215 1283 l 279 1283 l 424 1074 l 339 1074 l 246 1225 l 125 1074 l 38 1074 z "},"Ȉ":{"ha":342,"x_min":7,"x_max":335,"o":"m 179 989 l 267 989 l 189 0 l 103 0 l 179 989 m 7 1283 l 92 1283 l 176 1074 l 126 1074 l 7 1283 m 167 1283 l 251 1283 l 335 1074 l 285 1074 l 167 1283 z "},"Ï":{"ha":342,"x_min":67,"x_max":413,"o":"m 179 989 l 267 989 l 189 0 l 103 0 l 179 989 m 181 1231 l 171 1129 l 67 1129 l 75 1231 l 181 1231 m 413 1231 l 404 1129 l 299 1129 l 307 1231 l 413 1231 z "},"Ḯ":{"ha":342,"x_min":67,"x_max":482,"o":"m 179 989 l 267 989 l 189 0 l 103 0 l 179 989 m 181 1231 l 171 1129 l 67 1129 l 75 1231 l 181 1231 m 413 1231 l 404 1129 l 299 1129 l 307 1231 l 413 1231 m 217 1299 l 371 1508 l 482 1508 l 281 1299 l 217 1299 z "},"İ":{"ha":342,"x_min":103,"x_max":299,"o":"m 179 989 l 267 989 l 189 0 l 103 0 l 179 989 m 299 1235 l 290 1126 l 179 1126 l 188 1235 l 299 1235 z "},"Ị":{"ha":342,"x_min":71,"x_max":267,"o":"m 179 989 l 267 989 l 189 0 l 103 0 l 179 989 m 192 -142 l 182 -250 l 71 -250 l 81 -142 l 192 -142 z "},"Ì":{"ha":342,"x_min":39,"x_max":267,"o":"m 179 989 l 267 989 l 189 0 l 103 0 l 179 989 m 39 1283 l 135 1283 l 263 1074 l 199 1074 l 39 1283 z "},"Ỉ":{"ha":342,"x_min":103,"x_max":382,"o":"m 179 989 l 267 989 l 189 0 l 103 0 l 179 989 m 264 1074 l 199 1074 l 200 1096 q 217 1133 201 1119 q 263 1164 233 1147 q 292 1183 282 1175 q 303 1203 303 1192 q 288 1221 303 1214 q 246 1228 272 1228 q 157 1211 206 1228 l 142 1267 q 253 1290 194 1290 q 348 1268 314 1290 q 382 1208 382 1246 q 365 1162 382 1178 q 313 1128 347 1146 q 278 1109 290 1118 q 265 1086 267 1100 l 264 1074 z "},"Ȋ":{"ha":342,"x_min":13,"x_max":457,"o":"m 179 989 l 267 989 l 189 0 l 103 0 l 179 989 m 246 1268 q 376 1231 319 1268 q 457 1119 432 1194 l 392 1093 q 327 1176 363 1153 q 242 1200 292 1200 q 152 1176 192 1200 q 75 1093 113 1153 l 13 1119 q 246 1268 86 1268 z "},"Ī":{"ha":342,"x_min":28,"x_max":449,"o":"m 179 989 l 267 989 l 189 0 l 103 0 l 179 989 m 35 1217 l 449 1217 l 443 1144 l 28 1144 l 35 1217 z "},"Į":{"ha":342,"x_min":-32,"x_max":265,"o":"m 131 -204 q 215 -178 171 -204 l 235 -237 q 182 -260 213 -251 q 121 -268 151 -268 q 9 -231 50 -268 q -32 -129 -32 -193 q 3 -22 -32 -68 q 104 44 38 24 l 178 989 l 265 989 l 188 0 l 181 0 q 78 -33 111 0 q 44 -117 44 -67 q 67 -182 44 -160 q 131 -204 89 -204 z "},"Ĩ":{"ha":342,"x_min":13,"x_max":465,"o":"m 179 989 l 267 989 l 189 0 l 103 0 l 179 989 m 13 1110 q 51 1219 15 1181 q 142 1257 86 1257 q 195 1245 169 1257 q 257 1210 221 1233 q 305 1182 288 1190 q 339 1174 322 1174 q 390 1196 371 1174 q 410 1253 408 1218 l 465 1253 q 427 1143 463 1181 q 336 1106 392 1106 q 283 1117 308 1106 q 222 1151 257 1129 q 176 1177 194 1168 q 140 1186 157 1186 q 90 1165 108 1186 q 68 1110 71 1144 l 13 1110 z "},"J":{"ha":436,"x_min":-56,"x_max":360,"o":"m -50 -171 q 42 -182 6 -182 q 150 -139 114 -182 q 194 4 186 -96 l 272 989 l 360 989 l 281 1 q 213 -197 269 -135 q 50 -258 157 -258 q -56 -247 7 -258 l -50 -171 z "},"Ĵ":{"ha":436,"x_min":-56,"x_max":514,"o":"m -50 -171 q 42 -182 6 -182 q 150 -139 114 -182 q 194 4 186 -96 l 272 989 l 360 989 l 281 1 q 213 -197 269 -135 q 50 -258 157 -258 q -56 -247 7 -258 l -50 -171 m 128 1074 l 306 1283 l 369 1283 l 514 1074 l 429 1074 l 336 1225 l 215 1074 l 128 1074 z "},"K":{"ha":860,"x_min":103,"x_max":885,"o":"m 311 507 l 838 0 l 728 0 l 226 476 l 189 0 l 103 0 l 179 989 l 267 989 l 231 535 l 765 989 l 885 989 l 311 507 z "},"Ķ":{"ha":860,"x_min":103,"x_max":885,"o":"m 311 507 l 838 0 l 728 0 l 226 476 l 189 0 l 103 0 l 179 989 l 267 989 l 231 535 l 765 989 l 885 989 l 311 507 m 460 -104 l 454 -182 q 430 -278 449 -236 q 371 -358 411 -319 l 331 -324 q 373 -267 360 -294 q 389 -207 386 -240 l 335 -207 l 342 -104 l 460 -104 z "},"L":{"ha":747,"x_min":103,"x_max":706,"o":"m 179 989 l 267 989 l 194 75 l 706 75 l 700 0 l 103 0 l 179 989 z "},"Ǉ":{"ha":1067,"x_min":103,"x_max":990,"o":"m 179 989 l 267 989 l 194 75 l 664 75 l 658 0 l 103 0 l 179 989 m 581 -171 q 672 -182 636 -182 q 781 -139 744 -182 q 826 4 818 -96 l 903 989 l 990 989 l 911 1 q 844 -197 900 -135 q 681 -258 788 -258 q 575 -247 638 -258 l 581 -171 z "},"Ĺ":{"ha":747,"x_min":103,"x_max":706,"o":"m 179 989 l 267 989 l 194 75 l 706 75 l 700 0 l 103 0 l 179 989 m 199 1074 l 353 1283 l 464 1283 l 263 1074 l 199 1074 z "},"Ľ":{"ha":747,"x_min":103,"x_max":706,"o":"m 179 989 l 267 989 l 194 75 l 706 75 l 700 0 l 103 0 l 179 989 m 363 724 l 382 989 l 468 989 l 413 724 l 363 724 z "},"Ļ":{"ha":747,"x_min":103,"x_max":706,"o":"m 179 989 l 267 989 l 194 75 l 706 75 l 700 0 l 103 0 l 179 989 m 457 -104 l 451 -182 q 427 -278 446 -236 q 368 -358 408 -319 l 328 -324 q 370 -267 357 -294 q 386 -207 383 -240 l 332 -207 l 339 -104 l 457 -104 z "},"Ŀ":{"ha":747,"x_min":103,"x_max":706,"o":"m 179 989 l 267 989 l 194 75 l 706 75 l 700 0 l 103 0 l 179 989 m 551 551 l 543 439 l 424 439 l 432 551 l 551 551 z "},"Ḷ":{"ha":747,"x_min":103,"x_max":706,"o":"m 179 989 l 267 989 l 194 75 l 706 75 l 700 0 l 103 0 l 179 989 m 451 -142 l 442 -250 l 331 -250 l 340 -142 l 451 -142 z "},"ǈ":{"ha":1064,"x_min":103,"x_max":1011,"o":"m 179 989 l 267 989 l 194 75 l 706 75 l 700 0 l 103 0 l 179 989 m 629 -218 q 696 -229 667 -229 q 788 -197 753 -229 q 829 -82 822 -165 l 890 696 l 974 696 l 911 -99 q 849 -253 903 -201 q 707 -304 794 -304 q 624 -293 668 -304 l 629 -218 m 1011 983 l 1003 875 l 890 875 l 899 983 l 1011 983 z "},"Ḻ":{"ha":747,"x_min":103,"x_max":706,"o":"m 179 989 l 267 989 l 194 75 l 706 75 l 700 0 l 103 0 l 179 989 m 186 -160 l 601 -160 l 596 -232 l 181 -232 l 186 -160 z "},"Ł":{"ha":758,"x_min":14,"x_max":717,"o":"m 717 75 l 711 0 l 114 0 l 147 433 l 14 360 l 19 444 l 154 518 l 190 989 l 276 989 l 244 568 l 521 721 l 515 636 l 238 483 l 206 75 l 717 75 z "},"M":{"ha":1178,"x_min":103,"x_max":1101,"o":"m 1101 989 l 1024 0 l 943 0 l 1004 785 l 597 0 l 533 0 l 246 785 l 185 0 l 103 0 l 179 989 l 254 989 l 572 100 l 1028 989 l 1101 989 z "},"Ṃ":{"ha":1178,"x_min":103,"x_max":1101,"o":"m 1101 989 l 1024 0 l 943 0 l 1004 785 l 597 0 l 533 0 l 246 785 l 185 0 l 103 0 l 179 989 l 254 989 l 572 100 l 1028 989 l 1101 989 m 610 -142 l 600 -250 l 489 -250 l 499 -142 l 610 -142 z "},"N":{"ha":1031,"x_min":103,"x_max":954,"o":"m 954 989 l 876 0 l 810 0 l 250 844 l 183 0 l 103 0 l 179 989 l 249 989 l 807 147 l 872 989 l 954 989 z "},"Ǌ":{"ha":1467,"x_min":103,"x_max":1390,"o":"m 954 989 l 876 0 l 810 0 l 250 844 l 183 0 l 103 0 l 179 989 l 249 989 l 807 147 l 872 989 l 954 989 m 981 -171 q 1072 -182 1036 -182 q 1181 -139 1144 -182 q 1225 4 1217 -96 l 1303 989 l 1390 989 l 1311 1 q 1244 -197 1300 -135 q 1081 -258 1188 -258 q 975 -247 1038 -258 l 981 -171 z "},"Ń":{"ha":1031,"x_min":103,"x_max":954,"o":"m 954 989 l 876 0 l 810 0 l 250 844 l 183 0 l 103 0 l 179 989 l 249 989 l 807 147 l 872 989 l 954 989 m 543 1074 l 697 1283 l 808 1283 l 607 1074 l 543 1074 z "},"Ň":{"ha":1031,"x_min":103,"x_max":954,"o":"m 954 989 l 876 0 l 810 0 l 250 844 l 183 0 l 103 0 l 179 989 l 249 989 l 807 147 l 872 989 l 954 989 m 785 1283 l 607 1074 l 543 1074 l 399 1283 l 483 1283 l 579 1132 l 697 1283 l 785 1283 z "},"Ņ":{"ha":1031,"x_min":103,"x_max":954,"o":"m 954 989 l 876 0 l 810 0 l 250 844 l 183 0 l 103 0 l 179 989 l 249 989 l 807 147 l 872 989 l 954 989 m 542 -104 l 536 -182 q 512 -278 531 -236 q 453 -358 493 -319 l 413 -324 q 455 -267 442 -294 q 471 -207 468 -240 l 417 -207 l 424 -104 l 542 -104 z "},"Ṅ":{"ha":1031,"x_min":103,"x_max":954,"o":"m 954 989 l 876 0 l 810 0 l 250 844 l 183 0 l 103 0 l 179 989 l 249 989 l 807 147 l 872 989 l 954 989 m 643 1235 l 635 1126 l 524 1126 l 532 1235 l 643 1235 z "},"Ṇ":{"ha":1031,"x_min":103,"x_max":954,"o":"m 954 989 l 876 0 l 810 0 l 250 844 l 183 0 l 103 0 l 179 989 l 249 989 l 807 147 l 872 989 l 954 989 m 536 -142 l 526 -250 l 415 -250 l 425 -142 l 536 -142 z "},"Ŋ":{"ha":1031,"x_min":103,"x_max":954,"o":"m 954 989 l 875 -8 q 806 -183 868 -119 q 622 -256 743 -247 l 542 -261 l 542 -187 l 617 -182 q 794 -14 782 -169 l 797 19 l 250 844 l 183 0 l 103 0 l 179 989 l 249 989 l 807 147 l 872 989 l 954 989 z "},"ǋ":{"ha":1347,"x_min":103,"x_max":1294,"o":"m 954 989 l 876 0 l 810 0 l 250 844 l 183 0 l 103 0 l 179 989 l 249 989 l 807 147 l 872 989 l 954 989 m 913 -218 q 979 -229 950 -229 q 1071 -197 1036 -229 q 1113 -82 1106 -165 l 1174 696 l 1257 696 l 1194 -99 q 1132 -253 1186 -201 q 990 -304 1078 -304 q 907 -293 951 -304 l 913 -218 m 1294 983 l 1286 875 l 1174 875 l 1182 983 l 1294 983 z "},"Ṉ":{"ha":1031,"x_min":103,"x_max":954,"o":"m 954 989 l 876 0 l 810 0 l 250 844 l 183 0 l 103 0 l 179 989 l 249 989 l 807 147 l 872 989 l 954 989 m 271 -160 l 686 -160 l 681 -232 l 265 -232 l 271 -160 z "},"Ñ":{"ha":1031,"x_min":103,"x_max":954,"o":"m 954 989 l 876 0 l 810 0 l 250 844 l 183 0 l 103 0 l 179 989 l 249 989 l 807 147 l 872 989 l 954 989 m 357 1110 q 395 1219 360 1181 q 486 1257 431 1257 q 540 1245 514 1257 q 601 1210 565 1233 q 649 1182 632 1190 q 683 1174 667 1174 q 734 1196 715 1174 q 754 1253 753 1218 l 810 1253 q 772 1143 807 1181 q 681 1106 736 1106 q 627 1117 653 1106 q 567 1151 601 1129 q 520 1177 539 1168 q 485 1186 501 1186 q 434 1165 453 1186 q 413 1110 415 1144 l 357 1110 z "},"O":{"ha":1063,"x_min":101,"x_max":985,"o":"m 531 -11 q 301 44 399 -11 q 153 204 204 100 q 101 451 101 308 q 157 741 101 617 q 315 933 213 865 q 554 1000 418 1000 q 785 944 688 1000 q 933 785 882 889 q 985 538 985 681 q 929 247 985 371 q 771 56 874 124 q 531 -11 668 -11 m 532 67 q 725 123 643 67 q 851 285 807 179 q 894 538 894 392 q 807 823 894 724 q 554 922 719 922 q 360 865 442 922 q 234 702 278 808 q 190 450 190 596 q 278 166 190 265 q 532 67 367 67 z "},"Ó":{"ha":1063,"x_min":101,"x_max":985,"o":"m 531 -11 q 301 44 399 -11 q 153 204 204 100 q 101 451 101 308 q 157 741 101 617 q 315 933 213 865 q 554 1000 418 1000 q 785 944 688 1000 q 933 785 882 889 q 985 538 985 681 q 929 247 985 371 q 771 56 874 124 q 531 -11 668 -11 m 532 67 q 725 123 643 67 q 851 285 807 179 q 894 538 894 392 q 807 823 894 724 q 554 922 719 922 q 360 865 442 922 q 234 702 278 808 q 190 450 190 596 q 278 166 190 265 q 532 67 367 67 m 556 1074 l 710 1283 l 821 1283 l 619 1074 l 556 1074 z "},"Ŏ":{"ha":1063,"x_min":101,"x_max":985,"o":"m 531 -11 q 301 44 399 -11 q 153 204 204 100 q 101 451 101 308 q 157 741 101 617 q 315 933 213 865 q 554 1000 418 1000 q 785 944 688 1000 q 933 785 882 889 q 985 538 985 681 q 929 247 985 371 q 771 56 874 124 q 531 -11 668 -11 m 532 67 q 725 123 643 67 q 851 285 807 179 q 894 538 894 392 q 807 823 894 724 q 554 922 719 922 q 360 865 442 922 q 234 702 278 808 q 190 450 190 596 q 278 166 190 265 q 532 67 367 67 m 589 1092 q 459 1128 515 1092 q 378 1239 403 1164 l 443 1267 q 508 1183 472 1206 q 593 1160 543 1160 q 683 1183 644 1160 q 760 1267 722 1206 l 822 1239 q 589 1092 750 1092 z "},"Ô":{"ha":1063,"x_min":101,"x_max":985,"o":"m 531 -11 q 301 44 399 -11 q 153 204 204 100 q 101 451 101 308 q 157 741 101 617 q 315 933 213 865 q 554 1000 418 1000 q 785 944 688 1000 q 933 785 882 889 q 985 538 985 681 q 929 247 985 371 q 771 56 874 124 q 531 -11 668 -11 m 532 67 q 725 123 643 67 q 851 285 807 179 q 894 538 894 392 q 807 823 894 724 q 554 922 719 922 q 360 865 442 922 q 234 702 278 808 q 190 450 190 596 q 278 166 190 265 q 532 67 367 67 m 394 1074 l 572 1283 l 636 1283 l 781 1074 l 696 1074 l 603 1225 l 482 1074 l 394 1074 z "},"Ố":{"ha":1063,"x_min":101,"x_max":985,"o":"m 531 -11 q 301 44 399 -11 q 153 204 204 100 q 101 451 101 308 q 157 741 101 617 q 315 933 213 865 q 554 1000 418 1000 q 785 944 688 1000 q 933 785 882 889 q 985 538 985 681 q 929 247 985 371 q 771 56 874 124 q 531 -11 668 -11 m 532 67 q 725 123 643 67 q 851 285 807 179 q 894 538 894 392 q 807 823 894 724 q 554 922 719 922 q 360 865 442 922 q 234 702 278 808 q 190 450 190 596 q 278 166 190 265 q 532 67 367 67 m 863 1414 l 971 1414 l 772 1215 l 714 1215 l 863 1414 m 572 1282 l 635 1282 l 781 1074 l 696 1074 l 603 1224 l 482 1074 l 394 1074 l 572 1282 z "},"Ộ":{"ha":1063,"x_min":101,"x_max":985,"o":"m 531 -11 q 301 44 399 -11 q 153 204 204 100 q 101 451 101 308 q 157 741 101 617 q 315 933 213 865 q 554 1000 418 1000 q 785 944 688 1000 q 933 785 882 889 q 985 538 985 681 q 929 247 985 371 q 771 56 874 124 q 531 -11 668 -11 m 532 67 q 725 123 643 67 q 851 285 807 179 q 894 538 894 392 q 807 823 894 724 q 554 922 719 922 q 360 865 442 922 q 234 702 278 808 q 190 450 190 596 q 278 166 190 265 q 532 67 367 67 m 550 -142 l 540 -250 l 429 -250 l 439 -142 l 550 -142 m 394 1074 l 572 1283 l 636 1283 l 781 1074 l 696 1074 l 603 1225 l 482 1074 l 394 1074 z "},"Ồ":{"ha":1063,"x_min":101,"x_max":985,"o":"m 531 -11 q 301 44 399 -11 q 153 204 204 100 q 101 451 101 308 q 157 741 101 617 q 315 933 213 865 q 554 1000 418 1000 q 785 944 688 1000 q 933 785 882 889 q 985 538 985 681 q 929 247 985 371 q 771 56 874 124 q 531 -11 668 -11 m 532 67 q 725 123 643 67 q 851 285 807 179 q 894 538 894 392 q 807 823 894 724 q 554 922 719 922 q 360 865 442 922 q 234 702 278 808 q 190 450 190 596 q 278 166 190 265 q 532 67 367 67 m 639 1414 l 736 1414 l 833 1215 l 774 1215 l 639 1414 m 572 1282 l 635 1282 l 781 1074 l 696 1074 l 603 1224 l 482 1074 l 394 1074 l 572 1282 z "},"Ổ":{"ha":1063,"x_min":101,"x_max":985,"o":"m 531 -11 q 301 44 399 -11 q 153 204 204 100 q 101 451 101 308 q 157 741 101 617 q 315 933 213 865 q 554 1000 418 1000 q 785 944 688 1000 q 933 785 882 889 q 985 538 985 681 q 929 247 985 371 q 771 56 874 124 q 531 -11 668 -11 m 532 67 q 725 123 643 67 q 851 285 807 179 q 894 538 894 392 q 807 823 894 724 q 554 922 719 922 q 360 865 442 922 q 234 702 278 808 q 190 450 190 596 q 278 166 190 265 q 532 67 367 67 m 714 1239 q 732 1276 715 1264 q 778 1300 749 1289 q 793 1307 781 1301 q 812 1319 806 1313 q 818 1333 818 1325 q 802 1352 818 1346 q 761 1358 786 1358 q 669 1343 724 1358 l 656 1399 q 767 1421 708 1421 q 861 1399 826 1421 q 896 1342 896 1376 q 878 1297 896 1313 q 828 1268 861 1282 q 793 1250 806 1258 q 779 1228 781 1242 l 778 1215 l 713 1215 l 714 1239 m 572 1282 l 635 1282 l 781 1074 l 696 1074 l 603 1224 l 482 1074 l 394 1074 l 572 1282 z "},"Ỗ":{"ha":1063,"x_min":101,"x_max":985,"o":"m 531 -11 q 301 44 399 -11 q 153 204 204 100 q 101 451 101 308 q 157 741 101 617 q 315 933 213 865 q 554 1000 418 1000 q 785 944 688 1000 q 933 785 882 889 q 985 538 985 681 q 929 247 985 371 q 771 56 874 124 q 531 -11 668 -11 m 532 67 q 725 123 643 67 q 851 285 807 179 q 894 538 894 392 q 807 823 894 724 q 554 922 719 922 q 360 865 442 922 q 234 702 278 808 q 190 450 190 596 q 278 166 190 265 q 532 67 367 67 m 385 1301 q 424 1401 389 1365 q 513 1438 458 1438 q 567 1428 542 1438 q 631 1401 593 1419 q 711 1374 683 1374 q 761 1394 742 1374 q 782 1442 781 1414 l 838 1442 q 799 1342 835 1379 q 710 1306 764 1306 q 653 1315 681 1306 q 592 1343 626 1325 q 549 1363 571 1354 q 511 1371 528 1371 q 461 1351 481 1371 q 440 1301 442 1331 l 385 1301 m 572 1282 l 635 1282 l 781 1074 l 696 1074 l 603 1224 l 482 1074 l 394 1074 l 572 1282 z "},"Ȍ":{"ha":1063,"x_min":101,"x_max":985,"o":"m 531 -11 q 301 44 399 -11 q 153 204 204 100 q 101 451 101 308 q 157 741 101 617 q 315 933 213 865 q 554 1000 418 1000 q 785 944 688 1000 q 933 785 882 889 q 985 538 985 681 q 929 247 985 371 q 771 56 874 124 q 531 -11 668 -11 m 532 67 q 725 123 643 67 q 851 285 807 179 q 894 538 894 392 q 807 823 894 724 q 554 922 719 922 q 360 865 442 922 q 234 702 278 808 q 190 450 190 596 q 278 166 190 265 q 532 67 367 67 m 364 1283 l 449 1283 l 533 1074 l 483 1074 l 364 1283 m 524 1283 l 608 1283 l 692 1074 l 642 1074 l 524 1283 z "},"Ö":{"ha":1063,"x_min":101,"x_max":985,"o":"m 531 -11 q 301 44 399 -11 q 153 204 204 100 q 101 451 101 308 q 157 741 101 617 q 315 933 213 865 q 554 1000 418 1000 q 785 944 688 1000 q 933 785 882 889 q 985 538 985 681 q 929 247 985 371 q 771 56 874 124 q 531 -11 668 -11 m 532 67 q 725 123 643 67 q 851 285 807 179 q 894 538 894 392 q 807 823 894 724 q 554 922 719 922 q 360 865 442 922 q 234 702 278 808 q 190 450 190 596 q 278 166 190 265 q 532 67 367 67 m 538 1231 l 528 1129 l 424 1129 l 432 1231 l 538 1231 m 769 1231 l 761 1129 l 656 1129 l 664 1231 l 769 1231 z "},"Ȫ":{"ha":1063,"x_min":101,"x_max":985,"o":"m 531 -11 q 301 44 399 -11 q 153 204 204 100 q 101 451 101 308 q 157 741 101 617 q 315 933 213 865 q 554 1000 418 1000 q 785 944 688 1000 q 933 785 882 889 q 985 538 985 681 q 929 247 985 371 q 771 56 874 124 q 531 -11 668 -11 m 532 67 q 725 123 643 67 q 851 285 807 179 q 894 538 894 392 q 807 823 894 724 q 554 922 719 922 q 360 865 442 922 q 234 702 278 808 q 190 450 190 596 q 278 166 190 265 q 532 67 367 67 m 538 1231 l 528 1129 l 424 1129 l 432 1231 l 538 1231 m 769 1231 l 761 1129 l 656 1129 l 664 1231 l 769 1231 m 410 1442 l 824 1442 l 818 1369 l 403 1369 l 410 1442 z "},"Ȱ":{"ha":1063,"x_min":101,"x_max":985,"o":"m 531 -11 q 301 44 399 -11 q 153 204 204 100 q 101 451 101 308 q 157 741 101 617 q 315 933 213 865 q 554 1000 418 1000 q 785 944 688 1000 q 933 785 882 889 q 985 538 985 681 q 929 247 985 371 q 771 56 874 124 q 531 -11 668 -11 m 532 67 q 725 123 643 67 q 851 285 807 179 q 894 538 894 392 q 807 823 894 724 q 554 922 719 922 q 360 865 442 922 q 234 702 278 808 q 190 450 190 596 q 278 166 190 265 q 532 67 367 67 m 656 1235 l 647 1126 l 536 1126 l 544 1235 l 656 1235 m 410 1442 l 824 1442 l 818 1369 l 403 1369 l 410 1442 z "},"Ọ":{"ha":1063,"x_min":101,"x_max":985,"o":"m 531 -11 q 301 44 399 -11 q 153 204 204 100 q 101 451 101 308 q 157 741 101 617 q 315 933 213 865 q 554 1000 418 1000 q 785 944 688 1000 q 933 785 882 889 q 985 538 985 681 q 929 247 985 371 q 771 56 874 124 q 531 -11 668 -11 m 532 67 q 725 123 643 67 q 851 285 807 179 q 894 538 894 392 q 807 823 894 724 q 554 922 719 922 q 360 865 442 922 q 234 702 278 808 q 190 450 190 596 q 278 166 190 265 q 532 67 367 67 m 550 -142 l 540 -250 l 429 -250 l 439 -142 l 550 -142 z "},"Ò":{"ha":1063,"x_min":101,"x_max":985,"o":"m 531 -11 q 301 44 399 -11 q 153 204 204 100 q 101 451 101 308 q 157 741 101 617 q 315 933 213 865 q 554 1000 418 1000 q 785 944 688 1000 q 933 785 882 889 q 985 538 985 681 q 929 247 985 371 q 771 56 874 124 q 531 -11 668 -11 m 532 67 q 725 123 643 67 q 851 285 807 179 q 894 538 894 392 q 807 823 894 724 q 554 922 719 922 q 360 865 442 922 q 234 702 278 808 q 190 450 190 596 q 278 166 190 265 q 532 67 367 67 m 396 1283 l 492 1283 l 619 1074 l 556 1074 l 396 1283 z "},"Ỏ":{"ha":1063,"x_min":101,"x_max":985,"o":"m 531 -11 q 301 44 399 -11 q 153 204 204 100 q 101 451 101 308 q 157 741 101 617 q 315 933 213 865 q 554 1000 418 1000 q 785 944 688 1000 q 933 785 882 889 q 985 538 985 681 q 929 247 985 371 q 771 56 874 124 q 531 -11 668 -11 m 532 67 q 725 123 643 67 q 851 285 807 179 q 894 538 894 392 q 807 823 894 724 q 554 922 719 922 q 360 865 442 922 q 234 702 278 808 q 190 450 190 596 q 278 166 190 265 q 532 67 367 67 m 621 1074 l 556 1074 l 557 1096 q 574 1133 558 1119 q 619 1164 590 1147 q 649 1183 639 1175 q 660 1203 660 1192 q 644 1221 660 1214 q 603 1228 629 1228 q 514 1211 563 1228 l 499 1267 q 610 1290 551 1290 q 705 1268 671 1290 q 739 1208 739 1246 q 722 1162 739 1178 q 669 1128 704 1146 q 635 1109 647 1118 q 622 1086 624 1100 l 621 1074 z "},"Ơ":{"ha":1063,"x_min":101,"x_max":1036,"o":"m 1035 1133 q 814 928 1017 938 q 938 775 890 874 q 985 538 985 676 q 929 247 985 371 q 771 56 874 124 q 531 -11 668 -11 q 301 44 399 -11 q 153 204 204 100 q 101 451 101 308 q 158 742 101 618 q 319 933 214 865 q 568 1000 424 1000 q 665 994 601 1000 q 783 989 738 989 q 912 1025 872 989 q 958 1146 951 1061 l 960 1165 l 1036 1165 l 1035 1133 m 894 538 q 807 823 894 724 q 554 922 719 922 q 360 865 442 922 q 234 702 278 808 q 190 450 190 596 q 278 166 190 265 q 532 67 367 67 q 725 123 643 67 q 851 285 807 179 q 894 538 894 392 z "},"Ớ":{"ha":1063,"x_min":101,"x_max":1036,"o":"m 1035 1133 q 814 928 1017 938 q 938 775 890 874 q 985 538 985 676 q 929 247 985 371 q 771 56 874 124 q 531 -11 668 -11 q 301 44 399 -11 q 153 204 204 100 q 101 451 101 308 q 158 742 101 618 q 319 933 214 865 q 568 1000 424 1000 q 665 994 601 1000 q 783 989 738 989 q 912 1025 872 989 q 958 1146 951 1061 l 960 1165 l 1036 1165 l 1035 1133 m 894 538 q 807 823 894 724 q 554 922 719 922 q 360 865 442 922 q 234 702 278 808 q 190 450 190 596 q 278 166 190 265 q 532 67 367 67 q 725 123 643 67 q 851 285 807 179 q 894 538 894 392 m 556 1074 l 710 1283 l 821 1283 l 619 1074 l 556 1074 z "},"Ợ":{"ha":1063,"x_min":101,"x_max":1036,"o":"m 1035 1133 q 814 928 1017 938 q 938 775 890 874 q 985 538 985 676 q 929 247 985 371 q 771 56 874 124 q 531 -11 668 -11 q 301 44 399 -11 q 153 204 204 100 q 101 451 101 308 q 158 742 101 618 q 319 933 214 865 q 568 1000 424 1000 q 665 994 601 1000 q 783 989 738 989 q 912 1025 872 989 q 958 1146 951 1061 l 960 1165 l 1036 1165 l 1035 1133 m 894 538 q 807 823 894 724 q 554 922 719 922 q 360 865 442 922 q 234 702 278 808 q 190 450 190 596 q 278 166 190 265 q 532 67 367 67 q 725 123 643 67 q 851 285 807 179 q 894 538 894 392 m 551 -142 l 542 -250 l 431 -250 l 440 -142 l 551 -142 z "},"Ờ":{"ha":1063,"x_min":101,"x_max":1036,"o":"m 1035 1133 q 814 928 1017 938 q 938 775 890 874 q 985 538 985 676 q 929 247 985 371 q 771 56 874 124 q 531 -11 668 -11 q 301 44 399 -11 q 153 204 204 100 q 101 451 101 308 q 158 742 101 618 q 319 933 214 865 q 568 1000 424 1000 q 665 994 601 1000 q 783 989 738 989 q 912 1025 872 989 q 958 1146 951 1061 l 960 1165 l 1036 1165 l 1035 1133 m 894 538 q 807 823 894 724 q 554 922 719 922 q 360 865 442 922 q 234 702 278 808 q 190 450 190 596 q 278 166 190 265 q 532 67 367 67 q 725 123 643 67 q 851 285 807 179 q 894 538 894 392 m 396 1283 l 492 1283 l 619 1074 l 556 1074 l 396 1283 z "},"Ở":{"ha":1063,"x_min":101,"x_max":1036,"o":"m 1035 1133 q 814 928 1017 938 q 938 775 890 874 q 985 538 985 676 q 929 247 985 371 q 771 56 874 124 q 531 -11 668 -11 q 301 44 399 -11 q 153 204 204 100 q 101 451 101 308 q 158 742 101 618 q 319 933 214 865 q 568 1000 424 1000 q 665 994 601 1000 q 783 989 738 989 q 912 1025 872 989 q 958 1146 951 1061 l 960 1165 l 1036 1165 l 1035 1133 m 894 538 q 807 823 894 724 q 554 922 719 922 q 360 865 442 922 q 234 702 278 808 q 190 450 190 596 q 278 166 190 265 q 532 67 367 67 q 725 123 643 67 q 851 285 807 179 q 894 538 894 392 m 621 1074 l 556 1074 l 557 1096 q 574 1133 558 1119 q 619 1164 590 1147 q 649 1183 639 1175 q 660 1203 660 1192 q 644 1221 660 1214 q 603 1228 629 1228 q 514 1211 563 1228 l 499 1267 q 610 1290 551 1290 q 705 1268 671 1290 q 739 1208 739 1246 q 722 1162 739 1178 q 669 1128 704 1146 q 635 1109 647 1118 q 622 1086 624 1100 l 621 1074 z "},"Ỡ":{"ha":1063,"x_min":101,"x_max":1036,"o":"m 1035 1133 q 814 928 1017 938 q 938 775 890 874 q 985 538 985 676 q 929 247 985 371 q 771 56 874 124 q 531 -11 668 -11 q 301 44 399 -11 q 153 204 204 100 q 101 451 101 308 q 158 742 101 618 q 319 933 214 865 q 568 1000 424 1000 q 665 994 601 1000 q 783 989 738 989 q 912 1025 872 989 q 958 1146 951 1061 l 960 1165 l 1036 1165 l 1035 1133 m 894 538 q 807 823 894 724 q 554 922 719 922 q 360 865 442 922 q 234 702 278 808 q 190 450 190 596 q 278 166 190 265 q 532 67 367 67 q 725 123 643 67 q 851 285 807 179 q 894 538 894 392 m 369 1110 q 408 1219 372 1181 q 499 1257 443 1257 q 552 1245 526 1257 q 614 1210 578 1233 q 662 1182 644 1190 q 696 1174 679 1174 q 747 1196 728 1174 q 767 1253 765 1218 l 822 1253 q 784 1143 819 1181 q 693 1106 749 1106 q 640 1117 665 1106 q 579 1151 614 1129 q 533 1177 551 1168 q 497 1186 514 1186 q 447 1165 465 1186 q 425 1110 428 1144 l 369 1110 z "},"Ő":{"ha":1063,"x_min":101,"x_max":985,"o":"m 531 -11 q 301 44 399 -11 q 153 204 204 100 q 101 451 101 308 q 157 741 101 617 q 315 933 213 865 q 554 1000 418 1000 q 785 944 688 1000 q 933 785 882 889 q 985 538 985 681 q 929 247 985 371 q 771 56 874 124 q 531 -11 668 -11 m 532 67 q 725 123 643 67 q 851 285 807 179 q 894 538 894 392 q 807 823 894 724 q 554 922 719 922 q 360 865 442 922 q 234 702 278 808 q 190 450 190 596 q 278 166 190 265 q 532 67 367 67 m 597 1283 l 688 1283 l 533 1074 l 483 1074 l 597 1283 m 757 1283 l 847 1283 l 692 1074 l 642 1074 l 757 1283 z "},"Ȏ":{"ha":1063,"x_min":101,"x_max":985,"o":"m 531 -11 q 301 44 399 -11 q 153 204 204 100 q 101 451 101 308 q 157 741 101 617 q 315 933 213 865 q 554 1000 418 1000 q 785 944 688 1000 q 933 785 882 889 q 985 538 985 681 q 929 247 985 371 q 771 56 874 124 q 531 -11 668 -11 m 532 67 q 725 123 643 67 q 851 285 807 179 q 894 538 894 392 q 807 823 894 724 q 554 922 719 922 q 360 865 442 922 q 234 702 278 808 q 190 450 190 596 q 278 166 190 265 q 532 67 367 67 m 603 1268 q 733 1231 676 1268 q 814 1119 789 1194 l 749 1093 q 684 1176 719 1153 q 599 1200 649 1200 q 509 1176 549 1200 q 432 1093 469 1153 l 369 1119 q 603 1268 443 1268 z "},"Ō":{"ha":1063,"x_min":101,"x_max":985,"o":"m 531 -11 q 301 44 399 -11 q 153 204 204 100 q 101 451 101 308 q 157 741 101 617 q 315 933 213 865 q 554 1000 418 1000 q 785 944 688 1000 q 933 785 882 889 q 985 538 985 681 q 929 247 985 371 q 771 56 874 124 q 531 -11 668 -11 m 532 67 q 725 123 643 67 q 851 285 807 179 q 894 538 894 392 q 807 823 894 724 q 554 922 719 922 q 360 865 442 922 q 234 702 278 808 q 190 450 190 596 q 278 166 190 265 q 532 67 367 67 m 392 1217 l 806 1217 l 800 1144 l 385 1144 l 392 1217 z "},"Ṓ":{"ha":1063,"x_min":101,"x_max":985,"o":"m 531 -11 q 301 44 399 -11 q 153 204 204 100 q 101 451 101 308 q 157 741 101 617 q 315 933 213 865 q 554 1000 418 1000 q 785 944 688 1000 q 933 785 882 889 q 985 538 985 681 q 929 247 985 371 q 771 56 874 124 q 531 -11 668 -11 m 532 67 q 725 123 643 67 q 851 285 807 179 q 894 538 894 392 q 807 823 894 724 q 554 922 719 922 q 360 865 442 922 q 234 702 278 808 q 190 450 190 596 q 278 166 190 265 q 532 67 367 67 m 392 1217 l 806 1217 l 800 1144 l 385 1144 l 392 1217 m 574 1299 l 728 1508 l 839 1508 l 638 1299 l 574 1299 z "},"Ṑ":{"ha":1063,"x_min":101,"x_max":985,"o":"m 531 -11 q 301 44 399 -11 q 153 204 204 100 q 101 451 101 308 q 157 741 101 617 q 315 933 213 865 q 554 1000 418 1000 q 785 944 688 1000 q 933 785 882 889 q 985 538 985 681 q 929 247 985 371 q 771 56 874 124 q 531 -11 668 -11 m 532 67 q 725 123 643 67 q 851 285 807 179 q 894 538 894 392 q 807 823 894 724 q 554 922 719 922 q 360 865 442 922 q 234 702 278 808 q 190 450 190 596 q 278 166 190 265 q 532 67 367 67 m 392 1217 l 806 1217 l 800 1144 l 385 1144 l 392 1217 m 414 1508 l 510 1508 l 638 1299 l 574 1299 l 414 1508 z "},"Ǫ":{"ha":1063,"x_min":101,"x_max":985,"o":"m 636 0 q 518 -119 518 -26 q 540 -183 518 -161 q 603 -204 563 -204 q 689 -178 644 -204 l 707 -237 q 656 -260 686 -251 q 593 -268 625 -268 q 482 -231 524 -268 q 440 -131 440 -193 q 494 -10 440 -56 q 285 53 374 -4 q 149 212 197 110 q 101 451 101 314 q 157 741 101 617 q 315 933 213 865 q 554 1000 418 1000 q 785 944 688 1000 q 933 785 882 889 q 985 538 985 681 q 890 174 985 313 q 636 0 794 36 m 190 450 q 278 166 190 265 q 532 67 367 67 q 725 123 643 67 q 851 285 807 179 q 894 538 894 392 q 807 823 894 724 q 554 922 719 922 q 360 865 442 922 q 234 702 278 808 q 190 450 190 596 z "},"Ø":{"ha":1063,"x_min":101,"x_max":985,"o":"m 854 893 q 951 742 917 833 q 985 538 985 651 q 929 247 985 371 q 771 56 874 124 q 531 -11 668 -11 q 292 50 390 -11 l 221 -57 l 160 -18 l 235 93 q 135 245 169 154 q 101 451 101 336 q 157 741 101 617 q 315 933 213 865 q 554 1000 418 1000 q 796 938 694 1000 l 868 1046 l 929 1007 l 854 893 m 190 450 q 281 164 190 263 l 751 871 q 554 922 669 922 q 360 865 442 922 q 234 702 278 808 q 190 450 190 596 m 532 67 q 725 123 643 67 q 851 285 807 179 q 894 538 894 392 q 807 824 894 724 l 336 117 q 532 67 415 67 z "},"Ǿ":{"ha":1063,"x_min":101,"x_max":985,"o":"m 854 893 q 951 742 917 833 q 985 538 985 651 q 929 247 985 371 q 771 56 874 124 q 531 -11 668 -11 q 292 50 390 -11 l 221 -57 l 160 -18 l 235 93 q 135 245 169 154 q 101 451 101 336 q 157 741 101 617 q 315 933 213 865 q 554 1000 418 1000 q 796 938 694 1000 l 868 1046 l 929 1007 l 854 893 m 190 450 q 281 164 190 263 l 751 871 q 554 922 669 922 q 360 865 442 922 q 234 702 278 808 q 190 450 190 596 m 532 67 q 725 123 643 67 q 851 285 807 179 q 894 538 894 392 q 807 824 894 724 l 336 117 q 532 67 415 67 m 556 1074 l 710 1283 l 821 1283 l 619 1074 l 556 1074 z "},"Õ":{"ha":1063,"x_min":101,"x_max":985,"o":"m 531 -11 q 301 44 399 -11 q 153 204 204 100 q 101 451 101 308 q 157 741 101 617 q 315 933 213 865 q 554 1000 418 1000 q 785 944 688 1000 q 933 785 882 889 q 985 538 985 681 q 929 247 985 371 q 771 56 874 124 q 531 -11 668 -11 m 532 67 q 725 123 643 67 q 851 285 807 179 q 894 538 894 392 q 807 823 894 724 q 554 922 719 922 q 360 865 442 922 q 234 702 278 808 q 190 450 190 596 q 278 166 190 265 q 532 67 367 67 m 369 1110 q 408 1219 372 1181 q 499 1257 443 1257 q 552 1245 526 1257 q 614 1210 578 1233 q 662 1182 644 1190 q 696 1174 679 1174 q 747 1196 728 1174 q 767 1253 765 1218 l 822 1253 q 784 1143 819 1181 q 693 1106 749 1106 q 640 1117 665 1106 q 579 1151 614 1129 q 533 1177 551 1168 q 497 1186 514 1186 q 447 1165 465 1186 q 425 1110 428 1144 l 369 1110 z "},"Ṍ":{"ha":1063,"x_min":101,"x_max":985,"o":"m 531 -11 q 301 44 399 -11 q 153 204 204 100 q 101 451 101 308 q 157 741 101 617 q 315 933 213 865 q 554 1000 418 1000 q 785 944 688 1000 q 933 785 882 889 q 985 538 985 681 q 929 247 985 371 q 771 56 874 124 q 531 -11 668 -11 m 532 67 q 725 123 643 67 q 851 285 807 179 q 894 538 894 392 q 807 823 894 724 q 554 922 719 922 q 360 865 442 922 q 234 702 278 808 q 190 450 190 596 q 278 166 190 265 q 532 67 367 67 m 369 1110 q 408 1219 372 1181 q 499 1257 443 1257 q 552 1245 526 1257 q 614 1210 578 1233 q 662 1182 644 1190 q 696 1174 679 1174 q 747 1196 728 1174 q 767 1253 765 1218 l 822 1253 q 784 1143 819 1181 q 693 1106 749 1106 q 640 1117 665 1106 q 579 1151 614 1129 q 533 1177 551 1168 q 497 1186 514 1186 q 447 1165 465 1186 q 425 1110 428 1144 l 369 1110 m 574 1299 l 728 1508 l 839 1508 l 638 1299 l 574 1299 z "},"Ṏ":{"ha":1063,"x_min":101,"x_max":985,"o":"m 531 -11 q 301 44 399 -11 q 153 204 204 100 q 101 451 101 308 q 157 741 101 617 q 315 933 213 865 q 554 1000 418 1000 q 785 944 688 1000 q 933 785 882 889 q 985 538 985 681 q 929 247 985 371 q 771 56 874 124 q 531 -11 668 -11 m 532 67 q 725 123 643 67 q 851 285 807 179 q 894 538 894 392 q 807 823 894 724 q 554 922 719 922 q 360 865 442 922 q 234 702 278 808 q 190 450 190 596 q 278 166 190 265 q 532 67 367 67 m 369 1110 q 408 1219 372 1181 q 499 1257 443 1257 q 552 1245 526 1257 q 614 1210 578 1233 q 662 1182 644 1190 q 696 1174 679 1174 q 747 1196 728 1174 q 767 1253 765 1218 l 822 1253 q 784 1143 819 1181 q 693 1106 749 1106 q 640 1117 665 1106 q 579 1151 614 1129 q 533 1177 551 1168 q 497 1186 514 1186 q 447 1165 465 1186 q 425 1110 428 1144 l 369 1110 m 556 1456 l 546 1354 l 442 1354 l 450 1456 l 556 1456 m 788 1456 l 779 1354 l 674 1354 l 682 1456 l 788 1456 z "},"Ȭ":{"ha":1063,"x_min":101,"x_max":985,"o":"m 531 -11 q 301 44 399 -11 q 153 204 204 100 q 101 451 101 308 q 157 741 101 617 q 315 933 213 865 q 554 1000 418 1000 q 785 944 688 1000 q 933 785 882 889 q 985 538 985 681 q 929 247 985 371 q 771 56 874 124 q 531 -11 668 -11 m 532 67 q 725 123 643 67 q 851 285 807 179 q 894 538 894 392 q 807 823 894 724 q 554 922 719 922 q 360 865 442 922 q 234 702 278 808 q 190 450 190 596 q 278 166 190 265 q 532 67 367 67 m 369 1110 q 408 1219 372 1181 q 499 1257 443 1257 q 552 1245 526 1257 q 614 1210 578 1233 q 662 1182 644 1190 q 696 1174 679 1174 q 747 1196 728 1174 q 767 1253 765 1218 l 822 1253 q 784 1143 819 1181 q 693 1106 749 1106 q 640 1117 665 1106 q 579 1151 614 1129 q 533 1177 551 1168 q 497 1186 514 1186 q 447 1165 465 1186 q 425 1110 428 1144 l 369 1110 m 410 1442 l 824 1442 l 818 1369 l 403 1369 l 410 1442 z "},"Œ":{"ha":1468,"x_min":101,"x_max":1443,"o":"m 914 915 l 885 540 l 1381 540 l 1375 464 l 879 464 l 849 74 l 1372 74 l 1367 0 l 758 0 l 763 58 q 528 -11 664 -11 q 301 44 397 -11 q 153 204 204 100 q 101 451 101 308 q 158 742 101 618 q 319 933 214 865 q 567 1000 425 1000 q 832 924 722 1000 l 836 989 l 1443 989 l 1439 915 l 914 915 m 190 450 q 278 166 190 265 q 532 67 367 67 q 657 88 596 67 q 768 151 718 110 l 822 838 q 712 901 778 879 q 569 922 646 922 q 290 797 389 922 q 190 450 190 672 z "},"P":{"ha":896,"x_min":103,"x_max":857,"o":"m 544 989 q 776 919 694 989 q 857 735 857 850 q 764 519 857 594 q 510 444 671 444 l 224 444 l 189 0 l 103 0 l 179 989 l 544 989 m 508 519 q 703 572 636 519 q 771 732 771 625 q 713 866 771 817 q 542 915 656 915 l 260 915 l 229 519 l 508 519 z "},"Þ":{"ha":894,"x_min":103,"x_max":840,"o":"m 543 765 q 763 702 686 765 q 840 518 840 639 q 756 314 840 388 q 513 240 672 240 l 207 240 l 188 0 l 103 0 l 179 989 l 267 989 l 249 765 l 543 765 m 508 314 q 693 365 633 314 q 753 517 753 415 q 699 649 753 607 q 539 692 646 692 l 243 692 l 213 314 l 508 314 z "},"Q":{"ha":1063,"x_min":101,"x_max":985,"o":"m 985 538 q 897 187 985 328 q 656 4 810 46 q 814 -203 714 -114 l 749 -265 q 647 -153 699 -224 q 560 -10 596 -83 q 531 -11 550 -11 q 301 44 399 -11 q 153 204 204 100 q 101 451 101 308 q 157 741 101 617 q 315 933 213 865 q 554 1000 418 1000 q 785 944 688 1000 q 933 785 882 889 q 985 538 985 681 m 532 67 q 725 123 643 67 q 851 285 807 179 q 894 538 894 392 q 807 823 894 724 q 554 922 719 922 q 360 865 442 922 q 234 702 278 808 q 190 450 190 596 q 278 166 190 265 q 532 67 367 67 z "},"R":{"ha":956,"x_min":103,"x_max":878,"o":"m 651 461 q 722 415 693 449 q 768 319 751 382 l 863 0 l 774 0 l 675 329 q 610 418 656 394 q 482 442 564 442 l 224 442 l 189 0 l 103 0 l 179 989 l 567 989 q 797 924 717 989 q 878 738 878 858 q 820 556 878 628 q 651 461 763 485 m 533 517 q 728 570 664 517 q 793 732 793 624 q 565 915 793 915 l 261 915 l 229 517 l 533 517 z "},"Ŕ":{"ha":956,"x_min":103,"x_max":878,"o":"m 651 461 q 722 415 693 449 q 768 319 751 382 l 863 0 l 774 0 l 675 329 q 610 418 656 394 q 482 442 564 442 l 224 442 l 189 0 l 103 0 l 179 989 l 567 989 q 797 924 717 989 q 878 738 878 858 q 820 556 878 628 q 651 461 763 485 m 533 517 q 728 570 664 517 q 793 732 793 624 q 565 915 793 915 l 261 915 l 229 517 l 533 517 m 499 1074 l 653 1283 l 764 1283 l 563 1074 l 499 1074 z "},"Ř":{"ha":956,"x_min":103,"x_max":878,"o":"m 651 461 q 722 415 693 449 q 768 319 751 382 l 863 0 l 774 0 l 675 329 q 610 418 656 394 q 482 442 564 442 l 224 442 l 189 0 l 103 0 l 179 989 l 567 989 q 797 924 717 989 q 878 738 878 858 q 820 556 878 628 q 651 461 763 485 m 533 517 q 728 570 664 517 q 793 732 793 624 q 565 915 793 915 l 261 915 l 229 517 l 533 517 m 740 1283 l 563 1074 l 499 1074 l 354 1283 l 439 1283 l 535 1132 l 653 1283 l 740 1283 z "},"Ŗ":{"ha":956,"x_min":103,"x_max":878,"o":"m 651 461 q 722 415 693 449 q 768 319 751 382 l 863 0 l 774 0 l 675 329 q 610 418 656 394 q 482 442 564 442 l 224 442 l 189 0 l 103 0 l 179 989 l 567 989 q 797 924 717 989 q 878 738 878 858 q 820 556 878 628 q 651 461 763 485 m 533 517 q 728 570 664 517 q 793 732 793 624 q 565 915 793 915 l 261 915 l 229 517 l 533 517 m 497 -104 l 492 -182 q 467 -278 486 -236 q 408 -358 449 -319 l 368 -324 q 410 -267 397 -294 q 426 -207 424 -240 l 372 -207 l 379 -104 l 497 -104 z "},"Ȑ":{"ha":956,"x_min":103,"x_max":878,"o":"m 651 461 q 722 415 693 449 q 768 319 751 382 l 863 0 l 774 0 l 675 329 q 610 418 656 394 q 482 442 564 442 l 224 442 l 189 0 l 103 0 l 179 989 l 567 989 q 797 924 717 989 q 878 738 878 858 q 820 556 878 628 q 651 461 763 485 m 533 517 q 728 570 664 517 q 793 732 793 624 q 565 915 793 915 l 261 915 l 229 517 l 533 517 m 307 1283 l 392 1283 l 476 1074 l 426 1074 l 307 1283 m 467 1283 l 551 1283 l 635 1074 l 585 1074 l 467 1283 z "},"Ṛ":{"ha":956,"x_min":103,"x_max":878,"o":"m 651 461 q 722 415 693 449 q 768 319 751 382 l 863 0 l 774 0 l 675 329 q 610 418 656 394 q 482 442 564 442 l 224 442 l 189 0 l 103 0 l 179 989 l 567 989 q 797 924 717 989 q 878 738 878 858 q 820 556 878 628 q 651 461 763 485 m 533 517 q 728 570 664 517 q 793 732 793 624 q 565 915 793 915 l 261 915 l 229 517 l 533 517 m 492 -142 l 482 -250 l 371 -250 l 381 -142 l 492 -142 z "},"Ȓ":{"ha":956,"x_min":103,"x_max":878,"o":"m 651 461 q 722 415 693 449 q 768 319 751 382 l 863 0 l 774 0 l 675 329 q 610 418 656 394 q 482 442 564 442 l 224 442 l 189 0 l 103 0 l 179 989 l 567 989 q 797 924 717 989 q 878 738 878 858 q 820 556 878 628 q 651 461 763 485 m 533 517 q 728 570 664 517 q 793 732 793 624 q 565 915 793 915 l 261 915 l 229 517 l 533 517 m 546 1268 q 676 1231 619 1268 q 757 1119 732 1194 l 692 1093 q 627 1176 663 1153 q 542 1200 592 1200 q 452 1176 492 1200 q 375 1093 413 1153 l 313 1119 q 546 1268 386 1268 z "},"Ṟ":{"ha":956,"x_min":103,"x_max":878,"o":"m 651 461 q 722 415 693 449 q 768 319 751 382 l 863 0 l 774 0 l 675 329 q 610 418 656 394 q 482 442 564 442 l 224 442 l 189 0 l 103 0 l 179 989 l 567 989 q 797 924 717 989 q 878 738 878 858 q 820 556 878 628 q 651 461 763 485 m 533 517 q 728 570 664 517 q 793 732 793 624 q 565 915 793 915 l 261 915 l 229 517 l 533 517 m 226 -160 l 642 -160 l 636 -232 l 221 -232 l 226 -160 z "},"S":{"ha":851,"x_min":51,"x_max":817,"o":"m 424 -11 q 217 20 307 -11 q 51 118 128 51 l 93 186 q 247 93 169 122 q 424 64 325 64 q 622 115 553 64 q 692 256 692 165 q 658 344 692 310 q 576 399 625 379 q 440 443 526 418 q 272 499 336 472 q 162 581 207 526 q 117 725 117 636 q 160 870 117 808 q 285 966 204 932 q 472 1000 365 1000 q 663 967 575 1000 q 817 871 751 933 l 775 803 q 472 925 638 925 q 274 873 343 925 q 204 728 204 821 q 240 628 204 667 q 329 567 276 589 q 472 521 382 546 q 635 466 574 492 q 738 390 696 440 q 781 260 781 340 q 684 62 781 135 q 424 -11 588 -11 z "},"Ś":{"ha":851,"x_min":51,"x_max":817,"o":"m 424 -11 q 217 20 307 -11 q 51 118 128 51 l 93 186 q 247 93 169 122 q 424 64 325 64 q 622 115 553 64 q 692 256 692 165 q 658 344 692 310 q 576 399 625 379 q 440 443 526 418 q 272 499 336 472 q 162 581 207 526 q 117 725 117 636 q 160 870 117 808 q 285 966 204 932 q 472 1000 365 1000 q 663 967 575 1000 q 817 871 751 933 l 775 803 q 472 925 638 925 q 274 873 343 925 q 204 728 204 821 q 240 628 204 667 q 329 567 276 589 q 472 521 382 546 q 635 466 574 492 q 738 390 696 440 q 781 260 781 340 q 684 62 781 135 q 424 -11 588 -11 m 451 1074 l 606 1283 l 717 1283 l 515 1074 l 451 1074 z "},"Ṥ":{"ha":851,"x_min":51,"x_max":817,"o":"m 424 -11 q 217 20 307 -11 q 51 118 128 51 l 93 186 q 247 93 169 122 q 424 64 325 64 q 622 115 553 64 q 692 256 692 165 q 658 344 692 310 q 576 399 625 379 q 440 443 526 418 q 272 499 336 472 q 162 581 207 526 q 117 725 117 636 q 160 870 117 808 q 285 966 204 932 q 472 1000 365 1000 q 663 967 575 1000 q 817 871 751 933 l 775 803 q 472 925 638 925 q 274 873 343 925 q 204 728 204 821 q 240 628 204 667 q 329 567 276 589 q 472 521 382 546 q 635 466 574 492 q 738 390 696 440 q 781 260 781 340 q 684 62 781 135 q 424 -11 588 -11 m 454 1074 l 608 1283 l 719 1283 l 518 1074 l 454 1074 m 397 1285 l 389 1176 l 278 1176 l 286 1285 l 397 1285 z "},"Š":{"ha":851,"x_min":51,"x_max":817,"o":"m 424 -11 q 217 20 307 -11 q 51 118 128 51 l 93 186 q 247 93 169 122 q 424 64 325 64 q 622 115 553 64 q 692 256 692 165 q 658 344 692 310 q 576 399 625 379 q 440 443 526 418 q 272 499 336 472 q 162 581 207 526 q 117 725 117 636 q 160 870 117 808 q 285 966 204 932 q 472 1000 365 1000 q 663 967 575 1000 q 817 871 751 933 l 775 803 q 472 925 638 925 q 274 873 343 925 q 204 728 204 821 q 240 628 204 667 q 329 567 276 589 q 472 521 382 546 q 635 466 574 492 q 738 390 696 440 q 781 260 781 340 q 684 62 781 135 q 424 -11 588 -11 m 693 1283 l 515 1074 l 451 1074 l 307 1283 l 392 1283 l 488 1132 l 606 1283 l 693 1283 z "},"Ṧ":{"ha":851,"x_min":51,"x_max":817,"o":"m 424 -11 q 217 20 307 -11 q 51 118 128 51 l 93 186 q 247 93 169 122 q 424 64 325 64 q 622 115 553 64 q 692 256 692 165 q 658 344 692 310 q 576 399 625 379 q 440 443 526 418 q 272 499 336 472 q 162 581 207 526 q 117 725 117 636 q 160 870 117 808 q 285 966 204 932 q 472 1000 365 1000 q 663 967 575 1000 q 817 871 751 933 l 775 803 q 472 925 638 925 q 274 873 343 925 q 204 728 204 821 q 240 628 204 667 q 329 567 276 589 q 472 521 382 546 q 635 466 574 492 q 738 390 696 440 q 781 260 781 340 q 684 62 781 135 q 424 -11 588 -11 m 693 1283 l 515 1074 l 451 1074 l 307 1283 l 392 1283 l 488 1132 l 606 1283 l 693 1283 m 569 1460 l 561 1351 l 450 1351 l 458 1460 l 569 1460 z "},"Ş":{"ha":851,"x_min":51,"x_max":817,"o":"m 204 728 q 240 628 204 667 q 329 567 276 589 q 472 521 382 546 q 635 466 574 492 q 738 390 696 440 q 781 260 781 340 q 685 63 781 136 q 426 -11 589 -10 l 417 -61 q 449 -57 433 -57 q 522 -82 493 -57 q 550 -151 550 -107 q 508 -236 550 -204 q 392 -268 467 -268 q 329 -262 363 -268 q 269 -242 296 -256 l 290 -187 q 393 -207 343 -207 q 457 -194 435 -207 q 479 -154 479 -181 q 467 -124 479 -135 q 429 -114 454 -114 q 364 -128 403 -114 l 339 -107 l 357 -8 q 191 30 265 -1 q 51 118 117 61 l 93 186 q 247 93 169 122 q 424 64 325 64 q 622 115 553 64 q 692 256 692 165 q 658 344 692 310 q 576 399 625 379 q 440 443 526 418 q 272 499 336 472 q 162 581 207 526 q 117 725 117 636 q 160 870 117 808 q 285 966 204 932 q 472 1000 365 1000 q 663 967 575 1000 q 817 871 751 933 l 775 803 q 472 925 638 925 q 274 873 343 925 q 204 728 204 821 z "},"Ŝ":{"ha":851,"x_min":51,"x_max":817,"o":"m 424 -11 q 217 20 307 -11 q 51 118 128 51 l 93 186 q 247 93 169 122 q 424 64 325 64 q 622 115 553 64 q 692 256 692 165 q 658 344 692 310 q 576 399 625 379 q 440 443 526 418 q 272 499 336 472 q 162 581 207 526 q 117 725 117 636 q 160 870 117 808 q 285 966 204 932 q 472 1000 365 1000 q 663 967 575 1000 q 817 871 751 933 l 775 803 q 472 925 638 925 q 274 873 343 925 q 204 728 204 821 q 240 628 204 667 q 329 567 276 589 q 472 521 382 546 q 635 466 574 492 q 738 390 696 440 q 781 260 781 340 q 684 62 781 135 q 424 -11 588 -11 m 290 1074 l 468 1283 l 532 1283 l 676 1074 l 592 1074 l 499 1225 l 378 1074 l 290 1074 z "},"Ș":{"ha":851,"x_min":51,"x_max":817,"o":"m 424 -11 q 217 20 307 -11 q 51 118 128 51 l 93 186 q 247 93 169 122 q 424 64 325 64 q 622 115 553 64 q 692 256 692 165 q 658 344 692 310 q 576 399 625 379 q 440 443 526 418 q 272 499 336 472 q 162 581 207 526 q 117 725 117 636 q 160 870 117 808 q 285 966 204 932 q 472 1000 365 1000 q 663 967 575 1000 q 817 871 751 933 l 775 803 q 472 925 638 925 q 274 873 343 925 q 204 728 204 821 q 240 628 204 667 q 329 567 276 589 q 472 521 382 546 q 635 466 574 492 q 738 390 696 440 q 781 260 781 340 q 684 62 781 135 q 424 -11 588 -11 m 457 -104 l 451 -182 q 427 -278 446 -236 q 368 -358 408 -319 l 328 -324 q 370 -267 357 -294 q 386 -207 383 -240 l 332 -207 l 339 -104 l 457 -104 z "},"Ṡ":{"ha":851,"x_min":51,"x_max":817,"o":"m 424 -11 q 217 20 307 -11 q 51 118 128 51 l 93 186 q 247 93 169 122 q 424 64 325 64 q 622 115 553 64 q 692 256 692 165 q 658 344 692 310 q 576 399 625 379 q 440 443 526 418 q 272 499 336 472 q 162 581 207 526 q 117 725 117 636 q 160 870 117 808 q 285 966 204 932 q 472 1000 365 1000 q 663 967 575 1000 q 817 871 751 933 l 775 803 q 472 925 638 925 q 274 873 343 925 q 204 728 204 821 q 240 628 204 667 q 329 567 276 589 q 472 521 382 546 q 635 466 574 492 q 738 390 696 440 q 781 260 781 340 q 684 62 781 135 q 424 -11 588 -11 m 551 1235 l 543 1126 l 432 1126 l 440 1235 l 551 1235 z "},"Ṣ":{"ha":851,"x_min":51,"x_max":817,"o":"m 424 -11 q 217 20 307 -11 q 51 118 128 51 l 93 186 q 247 93 169 122 q 424 64 325 64 q 622 115 553 64 q 692 256 692 165 q 658 344 692 310 q 576 399 625 379 q 440 443 526 418 q 272 499 336 472 q 162 581 207 526 q 117 725 117 636 q 160 870 117 808 q 285 966 204 932 q 472 1000 365 1000 q 663 967 575 1000 q 817 871 751 933 l 775 803 q 472 925 638 925 q 274 873 343 925 q 204 728 204 821 q 240 628 204 667 q 329 567 276 589 q 472 521 382 546 q 635 466 574 492 q 738 390 696 440 q 781 260 781 340 q 684 62 781 135 q 424 -11 588 -11 m 451 -142 l 442 -250 l 331 -250 l 340 -142 l 451 -142 z "},"Ṩ":{"ha":851,"x_min":51,"x_max":817,"o":"m 424 -11 q 217 20 307 -11 q 51 118 128 51 l 93 186 q 247 93 169 122 q 424 64 325 64 q 622 115 553 64 q 692 256 692 165 q 658 344 692 310 q 576 399 625 379 q 440 443 526 418 q 272 499 336 472 q 162 581 207 526 q 117 725 117 636 q 160 870 117 808 q 285 966 204 932 q 472 1000 365 1000 q 663 967 575 1000 q 817 871 751 933 l 775 803 q 472 925 638 925 q 274 873 343 925 q 204 728 204 821 q 240 628 204 667 q 329 567 276 589 q 472 521 382 546 q 635 466 574 492 q 738 390 696 440 q 781 260 781 340 q 684 62 781 135 q 424 -11 588 -11 m 451 -142 l 442 -250 l 331 -250 l 340 -142 l 451 -142 m 551 1235 l 543 1126 l 432 1126 l 440 1235 l 551 1235 z "},"ẞ":{"ha":958,"x_min":101,"x_max":863,"o":"m 672 515 q 814 438 765 496 q 863 289 863 379 q 822 133 863 201 q 710 28 782 65 q 544 -10 638 -10 q 289 82 393 -10 l 328 153 q 434 88 383 108 q 538 67 485 67 q 714 126 650 67 q 778 290 778 185 q 718 420 778 376 q 542 464 658 464 l 353 464 l 360 540 l 504 540 q 683 595 619 540 q 747 751 747 650 q 689 876 747 831 q 532 922 631 922 q 318 854 388 922 q 238 639 249 786 l 188 0 l 101 0 l 153 653 q 263 912 167 825 q 533 999 358 999 q 753 933 671 999 q 835 756 835 868 q 792 606 835 668 q 672 515 750 543 z "},"Ə":{"ha":1032,"x_min":100,"x_max":954,"o":"m 536 1000 q 758 944 664 1000 q 903 785 851 889 q 954 538 954 681 q 898 247 954 371 q 737 56 842 124 q 490 -11 632 -11 q 278 43 365 -11 q 145 196 190 97 q 100 424 100 294 q 103 493 100 469 l 107 540 l 864 540 q 774 824 863 725 q 521 924 685 924 q 206 803 338 924 l 174 871 q 536 1000 314 1000 m 496 65 q 749 170 653 65 q 861 463 844 275 l 189 463 l 188 424 q 266 160 188 256 q 496 65 344 65 z "},"T":{"ha":828,"x_min":63,"x_max":863,"o":"m 417 914 l 63 914 l 68 989 l 863 989 l 857 914 l 503 914 l 431 0 l 344 0 l 417 914 z "},"Ŧ":{"ha":828,"x_min":63,"x_max":863,"o":"m 503 914 l 474 538 l 675 538 l 669 465 l 467 465 l 431 0 l 344 0 l 381 465 l 178 465 l 183 538 l 388 538 l 417 914 l 63 914 l 68 989 l 863 989 l 857 914 l 503 914 z "},"Ť":{"ha":828,"x_min":63,"x_max":863,"o":"m 417 914 l 63 914 l 68 989 l 863 989 l 857 914 l 503 914 l 431 0 l 344 0 l 417 914 m 681 1283 l 503 1074 l 439 1074 l 294 1283 l 379 1283 l 475 1132 l 593 1283 l 681 1283 z "},"Ţ":{"ha":828,"x_min":63,"x_max":863,"o":"m 411 0 l 399 -61 q 431 -57 415 -57 q 503 -82 475 -57 q 532 -151 532 -107 q 490 -236 532 -204 q 374 -268 449 -268 q 311 -262 344 -268 q 251 -242 278 -256 l 272 -187 q 375 -207 325 -207 q 439 -194 417 -207 q 461 -154 461 -181 q 449 -124 461 -135 q 411 -114 436 -114 q 346 -128 385 -114 l 321 -107 l 346 28 l 347 28 l 417 914 l 63 914 l 68 989 l 863 989 l 857 914 l 503 914 l 431 0 l 411 0 z "},"Ț":{"ha":828,"x_min":63,"x_max":863,"o":"m 417 914 l 63 914 l 68 989 l 863 989 l 857 914 l 503 914 l 431 0 l 344 0 l 417 914 m 439 -104 l 433 -182 q 409 -278 428 -236 q 350 -358 390 -319 l 310 -324 q 352 -267 339 -294 q 368 -207 365 -240 l 314 -207 l 321 -104 l 439 -104 z "},"Ṭ":{"ha":828,"x_min":63,"x_max":863,"o":"m 417 914 l 63 914 l 68 989 l 863 989 l 857 914 l 503 914 l 431 0 l 344 0 l 417 914 m 433 -142 l 424 -250 l 313 -250 l 322 -142 l 433 -142 z "},"Ṯ":{"ha":828,"x_min":63,"x_max":863,"o":"m 417 914 l 63 914 l 68 989 l 863 989 l 857 914 l 503 914 l 431 0 l 344 0 l 417 914 m 168 -160 l 583 -160 l 578 -232 l 163 -232 l 168 -160 z "},"U":{"ha":1008,"x_min":122,"x_max":939,"o":"m 483 -11 q 214 76 306 -11 q 122 329 122 164 q 125 382 122 346 l 171 989 l 258 989 l 210 386 q 208 339 208 369 q 483 65 208 65 q 714 141 633 65 q 806 371 794 217 l 853 989 l 939 989 l 890 381 q 772 87 875 185 q 483 -11 669 -11 z "},"Ú":{"ha":1008,"x_min":122,"x_max":939,"o":"m 483 -11 q 214 76 306 -11 q 122 329 122 164 q 125 382 122 346 l 171 989 l 258 989 l 210 386 q 208 339 208 369 q 483 65 208 65 q 714 141 633 65 q 806 371 794 217 l 853 989 l 939 989 l 890 381 q 772 87 875 185 q 483 -11 669 -11 m 531 1074 l 685 1283 l 796 1283 l 594 1074 l 531 1074 z "},"Ŭ":{"ha":1008,"x_min":122,"x_max":939,"o":"m 483 -11 q 214 76 306 -11 q 122 329 122 164 q 125 382 122 346 l 171 989 l 258 989 l 210 386 q 208 339 208 369 q 483 65 208 65 q 714 141 633 65 q 806 371 794 217 l 853 989 l 939 989 l 890 381 q 772 87 875 185 q 483 -11 669 -11 m 564 1092 q 434 1128 490 1092 q 353 1239 378 1164 l 418 1267 q 483 1183 447 1206 q 568 1160 518 1160 q 658 1183 619 1160 q 735 1267 697 1206 l 797 1239 q 564 1092 725 1092 z "},"Û":{"ha":1008,"x_min":122,"x_max":939,"o":"m 483 -11 q 214 76 306 -11 q 122 329 122 164 q 125 382 122 346 l 171 989 l 258 989 l 210 386 q 208 339 208 369 q 483 65 208 65 q 714 141 633 65 q 806 371 794 217 l 853 989 l 939 989 l 890 381 q 772 87 875 185 q 483 -11 669 -11 m 369 1074 l 547 1283 l 611 1283 l 756 1074 l 671 1074 l 578 1225 l 457 1074 l 369 1074 z "},"Ȕ":{"ha":1008,"x_min":122,"x_max":939,"o":"m 483 -11 q 214 76 306 -11 q 122 329 122 164 q 125 382 122 346 l 171 989 l 258 989 l 210 386 q 208 339 208 369 q 483 65 208 65 q 714 141 633 65 q 806 371 794 217 l 853 989 l 939 989 l 890 381 q 772 87 875 185 q 483 -11 669 -11 m 339 1283 l 424 1283 l 508 1074 l 458 1074 l 339 1283 m 499 1283 l 583 1283 l 667 1074 l 617 1074 l 499 1283 z "},"Ü":{"ha":1008,"x_min":122,"x_max":939,"o":"m 483 -11 q 214 76 306 -11 q 122 329 122 164 q 125 382 122 346 l 171 989 l 258 989 l 210 386 q 208 339 208 369 q 483 65 208 65 q 714 141 633 65 q 806 371 794 217 l 853 989 l 939 989 l 890 381 q 772 87 875 185 q 483 -11 669 -11 m 513 1231 l 503 1129 l 399 1129 l 407 1231 l 513 1231 m 744 1231 l 736 1129 l 631 1129 l 639 1231 l 744 1231 z "},"Ụ":{"ha":1008,"x_min":122,"x_max":939,"o":"m 483 -11 q 214 76 306 -11 q 122 329 122 164 q 125 382 122 346 l 171 989 l 258 989 l 210 386 q 208 339 208 369 q 483 65 208 65 q 714 141 633 65 q 806 371 794 217 l 853 989 l 939 989 l 890 381 q 772 87 875 185 q 483 -11 669 -11 m 524 -142 l 514 -250 l 403 -250 l 413 -142 l 524 -142 z "},"Ù":{"ha":1008,"x_min":122,"x_max":939,"o":"m 483 -11 q 214 76 306 -11 q 122 329 122 164 q 125 382 122 346 l 171 989 l 258 989 l 210 386 q 208 339 208 369 q 483 65 208 65 q 714 141 633 65 q 806 371 794 217 l 853 989 l 939 989 l 890 381 q 772 87 875 185 q 483 -11 669 -11 m 371 1283 l 467 1283 l 594 1074 l 531 1074 l 371 1283 z "},"Ủ":{"ha":1008,"x_min":122,"x_max":939,"o":"m 483 -11 q 214 76 306 -11 q 122 329 122 164 q 125 382 122 346 l 171 989 l 258 989 l 210 386 q 208 339 208 369 q 483 65 208 65 q 714 141 633 65 q 806 371 794 217 l 853 989 l 939 989 l 890 381 q 772 87 875 185 q 483 -11 669 -11 m 596 1074 l 531 1074 l 532 1096 q 549 1133 533 1119 q 594 1164 565 1147 q 624 1183 614 1175 q 635 1203 635 1192 q 619 1221 635 1214 q 578 1228 604 1228 q 489 1211 538 1228 l 474 1267 q 585 1290 526 1290 q 680 1268 646 1290 q 714 1208 714 1246 q 697 1162 714 1178 q 644 1128 679 1146 q 610 1109 622 1118 q 597 1086 599 1100 l 596 1074 z "},"Ư":{"ha":1008,"x_min":122,"x_max":1119,"o":"m 1119 1165 l 1117 1133 q 1064 997 1111 1049 q 935 932 1017 944 l 890 381 q 772 87 875 185 q 483 -11 669 -11 q 214 76 306 -11 q 122 329 122 164 q 125 382 122 346 l 171 989 l 258 989 l 210 386 q 208 339 208 369 q 483 65 208 65 q 714 141 633 65 q 806 371 794 217 l 853 989 l 878 989 q 996 1026 958 990 q 1039 1146 1033 1063 l 1040 1165 l 1119 1165 z "},"Ứ":{"ha":1008,"x_min":122,"x_max":1119,"o":"m 1119 1165 l 1117 1133 q 1064 997 1111 1049 q 935 932 1017 944 l 890 381 q 772 87 875 185 q 483 -11 669 -11 q 214 76 306 -11 q 122 329 122 164 q 125 382 122 346 l 171 989 l 258 989 l 210 386 q 208 339 208 369 q 483 65 208 65 q 714 141 633 65 q 806 371 794 217 l 853 989 l 878 989 q 996 1026 958 990 q 1039 1146 1033 1063 l 1040 1165 l 1119 1165 m 531 1074 l 685 1283 l 796 1283 l 594 1074 l 531 1074 z "},"Ự":{"ha":1008,"x_min":122,"x_max":1119,"o":"m 1119 1165 l 1117 1133 q 1064 997 1111 1049 q 935 932 1017 944 l 890 381 q 772 87 875 185 q 483 -11 669 -11 q 214 76 306 -11 q 122 329 122 164 q 125 382 122 346 l 171 989 l 258 989 l 210 386 q 208 339 208 369 q 483 65 208 65 q 714 141 633 65 q 806 371 794 217 l 853 989 l 878 989 q 996 1026 958 990 q 1039 1146 1033 1063 l 1040 1165 l 1119 1165 m 524 -142 l 514 -250 l 403 -250 l 413 -142 l 524 -142 z "},"Ừ":{"ha":1008,"x_min":122,"x_max":1119,"o":"m 1119 1165 l 1117 1133 q 1064 997 1111 1049 q 935 932 1017 944 l 890 381 q 772 87 875 185 q 483 -11 669 -11 q 214 76 306 -11 q 122 329 122 164 q 125 382 122 346 l 171 989 l 258 989 l 210 386 q 208 339 208 369 q 483 65 208 65 q 714 141 633 65 q 806 371 794 217 l 853 989 l 878 989 q 996 1026 958 990 q 1039 1146 1033 1063 l 1040 1165 l 1119 1165 m 371 1283 l 467 1283 l 594 1074 l 531 1074 l 371 1283 z "},"Ử":{"ha":1008,"x_min":122,"x_max":1119,"o":"m 1119 1165 l 1117 1133 q 1064 997 1111 1049 q 935 932 1017 944 l 890 381 q 772 87 875 185 q 483 -11 669 -11 q 214 76 306 -11 q 122 329 122 164 q 125 382 122 346 l 171 989 l 258 989 l 210 386 q 208 339 208 369 q 483 65 208 65 q 714 141 633 65 q 806 371 794 217 l 853 989 l 878 989 q 996 1026 958 990 q 1039 1146 1033 1063 l 1040 1165 l 1119 1165 m 596 1074 l 531 1074 l 532 1096 q 549 1133 533 1119 q 594 1164 565 1147 q 624 1183 614 1175 q 635 1203 635 1192 q 619 1221 635 1214 q 578 1228 604 1228 q 489 1211 538 1228 l 474 1267 q 585 1290 526 1290 q 680 1268 646 1290 q 714 1208 714 1246 q 697 1162 714 1178 q 644 1128 679 1146 q 610 1109 622 1118 q 597 1086 599 1100 l 596 1074 z "},"Ữ":{"ha":1008,"x_min":122,"x_max":1119,"o":"m 1119 1165 l 1117 1133 q 1064 997 1111 1049 q 935 932 1017 944 l 890 381 q 772 87 875 185 q 483 -11 669 -11 q 214 76 306 -11 q 122 329 122 164 q 125 382 122 346 l 171 989 l 258 989 l 210 386 q 208 339 208 369 q 483 65 208 65 q 714 141 633 65 q 806 371 794 217 l 853 989 l 878 989 q 996 1026 958 990 q 1039 1146 1033 1063 l 1040 1165 l 1119 1165 m 344 1110 q 383 1219 347 1181 q 474 1257 418 1257 q 527 1245 501 1257 q 589 1210 553 1233 q 637 1182 619 1190 q 671 1174 654 1174 q 722 1196 703 1174 q 742 1253 740 1218 l 797 1253 q 759 1143 794 1181 q 668 1106 724 1106 q 615 1117 640 1106 q 554 1151 589 1129 q 508 1177 526 1168 q 472 1186 489 1186 q 422 1165 440 1186 q 400 1110 403 1144 l 344 1110 z "},"Ű":{"ha":1008,"x_min":122,"x_max":939,"o":"m 483 -11 q 214 76 306 -11 q 122 329 122 164 q 125 382 122 346 l 171 989 l 258 989 l 210 386 q 208 339 208 369 q 483 65 208 65 q 714 141 633 65 q 806 371 794 217 l 853 989 l 939 989 l 890 381 q 772 87 875 185 q 483 -11 669 -11 m 572 1283 l 663 1283 l 508 1074 l 458 1074 l 572 1283 m 732 1283 l 822 1283 l 667 1074 l 617 1074 l 732 1283 z "},"Ȗ":{"ha":1008,"x_min":122,"x_max":939,"o":"m 483 -11 q 214 76 306 -11 q 122 329 122 164 q 125 382 122 346 l 171 989 l 258 989 l 210 386 q 208 339 208 369 q 483 65 208 65 q 714 141 633 65 q 806 371 794 217 l 853 989 l 939 989 l 890 381 q 772 87 875 185 q 483 -11 669 -11 m 578 1268 q 708 1231 651 1268 q 789 1119 764 1194 l 724 1093 q 659 1176 694 1153 q 574 1200 624 1200 q 484 1176 524 1200 q 407 1093 444 1153 l 344 1119 q 578 1268 418 1268 z "},"Ū":{"ha":1008,"x_min":122,"x_max":939,"o":"m 483 -11 q 214 76 306 -11 q 122 329 122 164 q 125 382 122 346 l 171 989 l 258 989 l 210 386 q 208 339 208 369 q 483 65 208 65 q 714 141 633 65 q 806 371 794 217 l 853 989 l 939 989 l 890 381 q 772 87 875 185 q 483 -11 669 -11 m 367 1217 l 781 1217 l 775 1144 l 360 1144 l 367 1217 z "},"Ṻ":{"ha":1008,"x_min":122,"x_max":939,"o":"m 483 -11 q 214 76 306 -11 q 122 329 122 164 q 125 382 122 346 l 171 989 l 258 989 l 210 386 q 208 339 208 369 q 483 65 208 65 q 714 141 633 65 q 806 371 794 217 l 853 989 l 939 989 l 890 381 q 772 87 875 185 q 483 -11 669 -11 m 367 1217 l 781 1217 l 775 1144 l 360 1144 l 367 1217 m 531 1456 l 521 1354 l 417 1354 l 425 1456 l 531 1456 m 763 1456 l 754 1354 l 649 1354 l 657 1456 l 763 1456 z "},"Ų":{"ha":1008,"x_min":122,"x_max":939,"o":"m 939 989 l 890 381 q 813 133 879 228 q 628 7 747 39 q 533 -42 564 -12 q 501 -119 501 -72 q 524 -183 501 -161 q 588 -204 546 -204 q 672 -178 628 -204 l 690 -237 q 638 -259 669 -250 q 576 -268 607 -268 q 466 -231 507 -268 q 425 -133 425 -194 q 485 -11 425 -54 l 476 -11 q 213 76 303 -11 q 122 328 122 164 q 125 382 122 346 l 171 989 l 258 989 l 210 386 q 208 339 208 369 q 483 65 208 65 q 714 141 633 65 q 806 371 794 217 l 853 989 l 939 989 z "},"Ů":{"ha":1008,"x_min":122,"x_max":939,"o":"m 483 -11 q 214 76 306 -11 q 122 329 122 164 q 125 382 122 346 l 171 989 l 258 989 l 210 386 q 208 339 208 369 q 483 65 208 65 q 714 141 633 65 q 806 371 794 217 l 853 989 l 939 989 l 890 381 q 772 87 875 185 q 483 -11 669 -11 m 572 1067 q 474 1106 514 1067 q 433 1203 433 1144 q 474 1299 433 1258 q 572 1339 515 1339 q 671 1299 631 1339 q 711 1203 711 1260 q 671 1106 711 1144 q 572 1067 631 1067 m 572 1129 q 622 1150 603 1129 q 642 1203 642 1171 q 622 1253 642 1233 q 572 1274 603 1274 q 522 1253 542 1274 q 503 1203 503 1233 q 522 1150 503 1171 q 572 1129 542 1129 z "},"Ũ":{"ha":1008,"x_min":122,"x_max":939,"o":"m 483 -11 q 214 76 306 -11 q 122 329 122 164 q 125 382 122 346 l 171 989 l 258 989 l 210 386 q 208 339 208 369 q 483 65 208 65 q 714 141 633 65 q 806 371 794 217 l 853 989 l 939 989 l 890 381 q 772 87 875 185 q 483 -11 669 -11 m 344 1110 q 383 1219 347 1181 q 474 1257 418 1257 q 527 1245 501 1257 q 589 1210 553 1233 q 637 1182 619 1190 q 671 1174 654 1174 q 722 1196 703 1174 q 742 1253 740 1218 l 797 1253 q 759 1143 794 1181 q 668 1106 724 1106 q 615 1117 640 1106 q 554 1151 589 1129 q 508 1177 526 1168 q 472 1186 489 1186 q 422 1165 440 1186 q 400 1110 403 1144 l 344 1110 z "},"Ṹ":{"ha":1008,"x_min":122,"x_max":939,"o":"m 483 -11 q 214 76 306 -11 q 122 329 122 164 q 125 382 122 346 l 171 989 l 258 989 l 210 386 q 208 339 208 369 q 483 65 208 65 q 714 141 633 65 q 806 371 794 217 l 853 989 l 939 989 l 890 381 q 772 87 875 185 q 483 -11 669 -11 m 344 1110 q 383 1219 347 1181 q 474 1257 418 1257 q 527 1245 501 1257 q 589 1210 553 1233 q 637 1182 619 1190 q 671 1174 654 1174 q 722 1196 703 1174 q 742 1253 740 1218 l 797 1253 q 759 1143 794 1181 q 668 1106 724 1106 q 615 1117 640 1106 q 554 1151 589 1129 q 508 1177 526 1168 q 472 1186 489 1186 q 422 1165 440 1186 q 400 1110 403 1144 l 344 1110 m 549 1299 l 703 1508 l 814 1508 l 613 1299 l 549 1299 z "},"V":{"ha":954,"x_min":60,"x_max":996,"o":"m 996 989 l 489 0 l 411 0 l 60 989 l 150 989 l 458 108 l 904 989 l 996 989 z "},"W":{"ha":1538,"x_min":104,"x_max":1536,"o":"m 1536 989 l 1115 0 l 1039 0 l 810 853 l 444 0 l 371 0 l 104 989 l 189 989 l 418 121 l 788 989 l 854 988 l 1083 122 l 1450 989 l 1536 989 z "},"Ẃ":{"ha":1538,"x_min":104,"x_max":1536,"o":"m 1536 989 l 1115 0 l 1039 0 l 810 853 l 444 0 l 371 0 l 104 989 l 189 989 l 418 121 l 788 989 l 854 988 l 1083 122 l 1450 989 l 1536 989 m 794 1074 l 949 1283 l 1060 1283 l 858 1074 l 794 1074 z "},"Ŵ":{"ha":1538,"x_min":104,"x_max":1536,"o":"m 1536 989 l 1115 0 l 1039 0 l 810 853 l 444 0 l 371 0 l 104 989 l 189 989 l 418 121 l 788 989 l 854 988 l 1083 122 l 1450 989 l 1536 989 m 633 1074 l 811 1283 l 875 1283 l 1019 1074 l 935 1074 l 842 1225 l 721 1074 l 633 1074 z "},"Ẅ":{"ha":1538,"x_min":104,"x_max":1536,"o":"m 1536 989 l 1115 0 l 1039 0 l 810 853 l 444 0 l 371 0 l 104 989 l 189 989 l 418 121 l 788 989 l 854 988 l 1083 122 l 1450 989 l 1536 989 m 776 1231 l 767 1129 l 663 1129 l 671 1231 l 776 1231 m 1008 1231 l 1000 1129 l 894 1129 l 903 1231 l 1008 1231 z "},"Ẁ":{"ha":1538,"x_min":104,"x_max":1536,"o":"m 1536 989 l 1115 0 l 1039 0 l 810 853 l 444 0 l 371 0 l 104 989 l 189 989 l 418 121 l 788 989 l 854 988 l 1083 122 l 1450 989 l 1536 989 m 635 1283 l 731 1283 l 858 1074 l 794 1074 l 635 1283 z "},"X":{"ha":894,"x_min":-4,"x_max":903,"o":"m 510 507 l 846 0 l 743 0 l 457 440 l 100 0 l -4 0 l 411 510 l 94 989 l 194 989 l 465 574 l 800 989 l 903 989 l 510 507 z "},"Y":{"ha":829,"x_min":39,"x_max":889,"o":"m 463 408 l 431 0 l 343 0 l 376 407 l 39 989 l 136 989 l 424 479 l 790 989 l 889 989 l 463 408 z "},"Ý":{"ha":829,"x_min":39,"x_max":889,"o":"m 463 408 l 431 0 l 343 0 l 376 407 l 39 989 l 136 989 l 424 479 l 790 989 l 889 989 l 463 408 m 439 1074 l 593 1283 l 704 1283 l 503 1074 l 439 1074 z "},"Ŷ":{"ha":829,"x_min":39,"x_max":889,"o":"m 463 408 l 431 0 l 343 0 l 376 407 l 39 989 l 136 989 l 424 479 l 790 989 l 889 989 l 463 408 m 278 1074 l 456 1283 l 519 1283 l 664 1074 l 579 1074 l 486 1225 l 365 1074 l 278 1074 z "},"Ÿ":{"ha":829,"x_min":39,"x_max":889,"o":"m 463 408 l 431 0 l 343 0 l 376 407 l 39 989 l 136 989 l 424 479 l 790 989 l 889 989 l 463 408 m 421 1231 l 411 1129 l 307 1129 l 315 1231 l 421 1231 m 653 1231 l 644 1129 l 539 1129 l 547 1231 l 653 1231 z "},"Ẏ":{"ha":829,"x_min":39,"x_max":889,"o":"m 463 408 l 431 0 l 343 0 l 376 407 l 39 989 l 136 989 l 424 479 l 790 989 l 889 989 l 463 408 m 539 1235 l 531 1126 l 419 1126 l 428 1235 l 539 1235 z "},"Ỵ":{"ha":829,"x_min":39,"x_max":889,"o":"m 463 408 l 431 0 l 343 0 l 376 407 l 39 989 l 136 989 l 424 479 l 790 989 l 889 989 l 463 408 m 433 -142 l 424 -250 l 313 -250 l 322 -142 l 433 -142 z "},"Ỳ":{"ha":829,"x_min":39,"x_max":889,"o":"m 463 408 l 431 0 l 343 0 l 376 407 l 39 989 l 136 989 l 424 479 l 790 989 l 889 989 l 463 408 m 279 1283 l 375 1283 l 503 1074 l 439 1074 l 279 1283 z "},"Ỷ":{"ha":829,"x_min":39,"x_max":889,"o":"m 463 408 l 431 0 l 343 0 l 376 407 l 39 989 l 136 989 l 424 479 l 790 989 l 889 989 l 463 408 m 504 1074 l 439 1074 l 440 1096 q 458 1133 442 1119 q 503 1164 474 1147 q 533 1183 522 1175 q 543 1203 543 1192 q 528 1221 543 1214 q 486 1228 513 1228 q 397 1211 446 1228 l 382 1267 q 493 1290 435 1290 q 588 1268 554 1290 q 622 1208 622 1246 q 605 1162 622 1178 q 553 1128 588 1146 q 519 1109 531 1118 q 506 1086 507 1100 l 504 1074 z "},"Ȳ":{"ha":829,"x_min":39,"x_max":889,"o":"m 463 408 l 431 0 l 343 0 l 376 407 l 39 989 l 136 989 l 424 479 l 790 989 l 889 989 l 463 408 m 275 1217 l 689 1217 l 683 1144 l 268 1144 l 275 1217 z "},"Ỹ":{"ha":829,"x_min":39,"x_max":889,"o":"m 463 408 l 431 0 l 343 0 l 376 407 l 39 989 l 136 989 l 424 479 l 790 989 l 889 989 l 463 408 m 253 1110 q 291 1219 256 1181 q 382 1257 326 1257 q 435 1245 410 1257 q 497 1210 461 1233 q 545 1182 528 1190 q 579 1174 563 1174 q 630 1196 611 1174 q 650 1253 649 1218 l 706 1253 q 667 1143 703 1181 q 576 1106 632 1106 q 523 1117 549 1106 q 463 1151 497 1129 q 416 1177 435 1168 q 381 1186 397 1186 q 330 1165 349 1186 q 308 1110 311 1144 l 253 1110 z "},"Z":{"ha":819,"x_min":33,"x_max":804,"o":"m 800 926 l 146 74 l 747 74 l 740 0 l 33 0 l 39 63 l 694 915 l 107 915 l 113 989 l 804 989 l 800 926 z "},"Ź":{"ha":819,"x_min":33,"x_max":804,"o":"m 800 926 l 146 74 l 747 74 l 740 0 l 33 0 l 39 63 l 694 915 l 107 915 l 113 989 l 804 989 l 800 926 m 433 1074 l 588 1283 l 699 1283 l 497 1074 l 433 1074 z "},"Ž":{"ha":819,"x_min":33,"x_max":804,"o":"m 800 926 l 146 74 l 747 74 l 740 0 l 33 0 l 39 63 l 694 915 l 107 915 l 113 989 l 804 989 l 800 926 m 675 1283 l 497 1074 l 433 1074 l 289 1283 l 374 1283 l 469 1132 l 588 1283 l 675 1283 z "},"Ż":{"ha":819,"x_min":33,"x_max":804,"o":"m 800 926 l 146 74 l 747 74 l 740 0 l 33 0 l 39 63 l 694 915 l 107 915 l 113 989 l 804 989 l 800 926 m 533 1235 l 525 1126 l 414 1126 l 422 1235 l 533 1235 z "},"Ẓ":{"ha":819,"x_min":33,"x_max":804,"o":"m 800 926 l 146 74 l 747 74 l 740 0 l 33 0 l 39 63 l 694 915 l 107 915 l 113 989 l 804 989 l 800 926 m 438 -142 l 428 -250 l 317 -250 l 326 -142 l 438 -142 z "},"a":{"ha":821,"x_min":72,"x_max":733,"o":"m 733 696 l 678 0 l 596 0 l 606 121 q 508 25 572 60 q 368 -10 443 -10 q 213 32 279 -10 q 109 150 146 74 q 72 328 72 226 q 113 530 72 443 q 227 665 153 617 q 397 713 301 713 q 547 675 483 713 q 640 569 610 638 l 650 696 l 733 696 m 385 64 q 560 149 496 64 q 625 381 625 233 q 567 574 625 507 q 400 640 508 640 q 223 556 286 640 q 160 324 160 472 q 218 132 160 200 q 385 64 276 64 z "},"á":{"ha":821,"x_min":72,"x_max":733,"o":"m 733 696 l 678 0 l 596 0 l 606 121 q 508 25 572 60 q 368 -10 443 -10 q 213 32 279 -10 q 109 150 146 74 q 72 328 72 226 q 113 530 72 443 q 227 665 153 617 q 397 713 301 713 q 547 675 483 713 q 640 569 610 638 l 650 696 l 733 696 m 385 64 q 560 149 496 64 q 625 381 625 233 q 567 574 625 507 q 400 640 508 640 q 223 556 286 640 q 160 324 160 472 q 218 132 160 200 q 385 64 276 64 m 415 788 l 575 1069 l 688 1069 l 479 788 l 415 788 z "},"ă":{"ha":821,"x_min":72,"x_max":733,"o":"m 733 696 l 678 0 l 596 0 l 606 121 q 508 25 572 60 q 368 -10 443 -10 q 213 32 279 -10 q 109 150 146 74 q 72 328 72 226 q 113 530 72 443 q 227 665 153 617 q 397 713 301 713 q 547 675 483 713 q 640 569 610 638 l 650 696 l 733 696 m 385 64 q 560 149 496 64 q 625 381 625 233 q 567 574 625 507 q 400 640 508 640 q 223 556 286 640 q 160 324 160 472 q 218 132 160 200 q 385 64 276 64 m 451 833 q 322 875 378 833 q 240 1001 265 917 l 307 1029 q 457 901 351 901 q 624 1029 561 901 l 686 1003 q 588 874 650 914 q 451 833 526 833 z "},"ắ":{"ha":821,"x_min":72,"x_max":733,"o":"m 733 696 l 678 0 l 596 0 l 606 121 q 508 25 572 60 q 368 -10 443 -10 q 213 32 279 -10 q 109 150 146 74 q 72 328 72 226 q 113 530 72 443 q 227 665 153 617 q 397 713 301 713 q 547 675 483 713 q 640 569 610 638 l 650 696 l 733 696 m 385 64 q 560 149 496 64 q 625 381 625 233 q 567 574 625 507 q 400 640 508 640 q 223 556 286 640 q 160 324 160 472 q 218 132 160 200 q 385 64 276 64 m 428 931 l 579 1129 l 688 1129 l 489 931 l 428 931 m 447 779 q 319 816 375 779 q 236 929 263 853 l 300 956 q 365 872 329 894 q 453 849 400 849 q 542 872 503 849 q 619 956 582 894 l 681 929 q 581 815 642 850 q 447 779 521 779 z "},"ặ":{"ha":821,"x_min":72,"x_max":733,"o":"m 733 696 l 678 0 l 596 0 l 606 121 q 508 25 572 60 q 368 -10 443 -10 q 213 32 279 -10 q 109 150 146 74 q 72 328 72 226 q 113 530 72 443 q 227 665 153 617 q 397 713 301 713 q 547 675 483 713 q 640 569 610 638 l 650 696 l 733 696 m 385 64 q 560 149 496 64 q 625 381 625 233 q 567 574 625 507 q 400 640 508 640 q 223 556 286 640 q 160 324 160 472 q 218 132 160 200 q 385 64 276 64 m 432 -142 l 422 -250 l 311 -250 l 321 -142 l 432 -142 m 451 833 q 322 875 378 833 q 240 1001 265 917 l 307 1029 q 457 901 351 901 q 624 1029 561 901 l 686 1003 q 588 874 650 914 q 451 833 526 833 z "},"ằ":{"ha":821,"x_min":72,"x_max":733,"o":"m 733 696 l 678 0 l 596 0 l 606 121 q 508 25 572 60 q 368 -10 443 -10 q 213 32 279 -10 q 109 150 146 74 q 72 328 72 226 q 113 530 72 443 q 227 665 153 617 q 397 713 301 713 q 547 675 483 713 q 640 569 610 638 l 650 696 l 733 696 m 385 64 q 560 149 496 64 q 625 381 625 233 q 567 574 625 507 q 400 640 508 640 q 223 556 286 640 q 160 324 160 472 q 218 132 160 200 q 385 64 276 64 m 264 1129 l 363 1129 l 489 931 l 428 931 l 264 1129 m 447 779 q 319 816 375 779 q 236 929 263 853 l 300 956 q 365 872 329 894 q 453 849 400 849 q 542 872 503 849 q 619 956 582 894 l 681 929 q 581 815 642 850 q 447 779 521 779 z "},"ẳ":{"ha":821,"x_min":72,"x_max":733,"o":"m 733 696 l 678 0 l 596 0 l 606 121 q 508 25 572 60 q 368 -10 443 -10 q 213 32 279 -10 q 109 150 146 74 q 72 328 72 226 q 113 530 72 443 q 227 665 153 617 q 397 713 301 713 q 547 675 483 713 q 640 569 610 638 l 650 696 l 733 696 m 385 64 q 560 149 496 64 q 625 381 625 233 q 567 574 625 507 q 400 640 508 640 q 223 556 286 640 q 160 324 160 472 q 218 132 160 200 q 385 64 276 64 m 428 953 q 446 991 429 978 q 492 1015 463 1004 q 521 1031 511 1024 q 531 1047 531 1038 q 515 1066 531 1058 q 475 1074 499 1074 q 383 1056 433 1074 l 369 1114 q 481 1136 419 1136 q 575 1114 540 1136 q 610 1056 610 1092 q 592 1011 610 1026 q 542 982 574 996 q 507 965 519 974 q 493 943 494 957 l 492 931 l 426 931 l 428 953 m 447 779 q 319 816 375 779 q 236 929 263 853 l 300 956 q 365 872 329 894 q 453 849 400 849 q 542 872 503 849 q 619 956 582 894 l 681 929 q 581 815 642 850 q 447 779 521 779 z "},"ẵ":{"ha":821,"x_min":72,"x_max":733,"o":"m 733 696 l 678 0 l 596 0 l 606 121 q 508 25 572 60 q 368 -10 443 -10 q 213 32 279 -10 q 109 150 146 74 q 72 328 72 226 q 113 530 72 443 q 227 665 153 617 q 397 713 301 713 q 547 675 483 713 q 640 569 610 638 l 650 696 l 733 696 m 385 64 q 560 149 496 64 q 625 381 625 233 q 567 574 625 507 q 400 640 508 640 q 223 556 286 640 q 160 324 160 472 q 218 132 160 200 q 385 64 276 64 m 568 993 q 514 1004 539 993 q 451 1039 489 1015 q 406 1065 425 1056 q 371 1074 388 1074 q 320 1053 339 1074 q 299 997 301 1032 l 243 997 q 281 1103 246 1067 q 371 1140 315 1140 q 426 1128 400 1140 q 488 1094 453 1117 q 534 1069 515 1078 q 569 1060 553 1060 q 620 1081 601 1060 q 640 1136 639 1103 l 696 1136 q 657 1031 692 1068 q 568 993 622 993 m 447 779 q 319 816 375 779 q 236 929 263 853 l 300 956 q 365 872 329 894 q 453 849 400 849 q 542 872 503 849 q 619 956 582 894 l 681 929 q 581 815 642 850 q 447 779 521 779 z "},"ǎ":{"ha":821,"x_min":72,"x_max":733,"o":"m 733 696 l 678 0 l 596 0 l 606 121 q 508 25 572 60 q 368 -10 443 -10 q 213 32 279 -10 q 109 150 146 74 q 72 328 72 226 q 113 530 72 443 q 227 665 153 617 q 397 713 301 713 q 547 675 483 713 q 640 569 610 638 l 650 696 l 733 696 m 385 64 q 560 149 496 64 q 625 381 625 233 q 567 574 625 507 q 400 640 508 640 q 223 556 286 640 q 160 324 160 472 q 218 132 160 200 q 385 64 276 64 m 663 1069 l 481 788 l 414 788 l 276 1069 l 361 1069 l 451 857 l 575 1069 l 663 1069 z "},"â":{"ha":821,"x_min":72,"x_max":733,"o":"m 733 696 l 678 0 l 596 0 l 606 121 q 508 25 572 60 q 368 -10 443 -10 q 213 32 279 -10 q 109 150 146 74 q 72 328 72 226 q 113 530 72 443 q 227 665 153 617 q 397 713 301 713 q 547 675 483 713 q 640 569 610 638 l 650 696 l 733 696 m 385 64 q 560 149 496 64 q 625 381 625 233 q 567 574 625 507 q 400 640 508 640 q 223 556 286 640 q 160 324 160 472 q 218 132 160 200 q 385 64 276 64 m 253 788 l 436 1069 l 503 1069 l 640 788 l 556 788 l 465 999 l 343 788 l 253 788 z "},"ấ":{"ha":821,"x_min":72,"x_max":829,"o":"m 733 696 l 678 0 l 596 0 l 606 121 q 508 25 572 60 q 368 -10 443 -10 q 213 32 279 -10 q 109 150 146 74 q 72 328 72 226 q 113 530 72 443 q 227 665 153 617 q 397 713 301 713 q 547 675 483 713 q 640 569 610 638 l 650 696 l 733 696 m 385 64 q 560 149 496 64 q 625 381 625 233 q 567 574 625 507 q 400 640 508 640 q 223 556 286 640 q 160 324 160 472 q 218 132 160 200 q 385 64 276 64 m 574 931 l 722 1129 l 829 1129 l 632 931 l 574 931 m 253 788 l 432 997 l 496 997 l 640 788 l 556 788 l 463 938 l 342 788 l 253 788 z "},"ậ":{"ha":821,"x_min":72,"x_max":733,"o":"m 733 696 l 678 0 l 596 0 l 606 121 q 508 25 572 60 q 368 -10 443 -10 q 213 32 279 -10 q 109 150 146 74 q 72 328 72 226 q 113 530 72 443 q 227 665 153 617 q 397 713 301 713 q 547 675 483 713 q 640 569 610 638 l 650 696 l 733 696 m 385 64 q 560 149 496 64 q 625 381 625 233 q 567 574 625 507 q 400 640 508 640 q 223 556 286 640 q 160 324 160 472 q 218 132 160 200 q 385 64 276 64 m 432 -142 l 422 -250 l 311 -250 l 321 -142 l 432 -142 m 253 788 l 436 1069 l 503 1069 l 640 788 l 556 788 l 465 999 l 343 788 l 253 788 z "},"ầ":{"ha":821,"x_min":72,"x_max":733,"o":"m 733 696 l 678 0 l 596 0 l 606 121 q 508 25 572 60 q 368 -10 443 -10 q 213 32 279 -10 q 109 150 146 74 q 72 328 72 226 q 113 530 72 443 q 227 665 153 617 q 397 713 301 713 q 547 675 483 713 q 640 569 610 638 l 650 696 l 733 696 m 385 64 q 560 149 496 64 q 625 381 625 233 q 567 574 625 507 q 400 640 508 640 q 223 556 286 640 q 160 324 160 472 q 218 132 160 200 q 385 64 276 64 m 499 1129 l 596 1129 l 692 931 l 633 931 l 499 1129 m 432 997 l 496 997 l 640 788 l 556 788 l 463 938 l 342 788 l 253 788 l 432 997 z "},"ẩ":{"ha":821,"x_min":72,"x_max":756,"o":"m 733 696 l 678 0 l 596 0 l 606 121 q 508 25 572 60 q 368 -10 443 -10 q 213 32 279 -10 q 109 150 146 74 q 72 328 72 226 q 113 530 72 443 q 227 665 153 617 q 397 713 301 713 q 547 675 483 713 q 640 569 610 638 l 650 696 l 733 696 m 385 64 q 560 149 496 64 q 625 381 625 233 q 567 574 625 507 q 400 640 508 640 q 223 556 286 640 q 160 324 160 472 q 218 132 160 200 q 385 64 276 64 m 574 953 q 592 991 575 978 q 638 1015 608 1004 q 667 1031 657 1024 q 676 1047 676 1038 q 660 1066 676 1058 q 621 1074 644 1074 q 529 1056 579 1074 l 515 1114 q 626 1136 565 1136 q 721 1114 686 1136 q 756 1056 756 1092 q 738 1011 756 1026 q 688 982 719 996 q 653 965 665 974 q 639 943 640 957 l 638 931 l 572 931 l 574 953 m 432 997 l 496 997 l 640 788 l 556 788 l 463 938 l 342 788 l 253 788 l 432 997 z "},"ẫ":{"ha":821,"x_min":72,"x_max":733,"o":"m 733 696 l 678 0 l 596 0 l 606 121 q 508 25 572 60 q 368 -10 443 -10 q 213 32 279 -10 q 109 150 146 74 q 72 328 72 226 q 113 530 72 443 q 227 665 153 617 q 397 713 301 713 q 547 675 483 713 q 640 569 610 638 l 650 696 l 733 696 m 385 64 q 560 149 496 64 q 625 381 625 233 q 567 574 625 507 q 400 640 508 640 q 223 556 286 640 q 160 324 160 472 q 218 132 160 200 q 385 64 276 64 m 244 1017 q 283 1115 247 1079 q 372 1151 318 1151 q 427 1142 401 1151 q 490 1115 453 1133 q 571 1088 543 1088 q 621 1108 601 1088 q 642 1156 640 1128 l 697 1156 q 659 1056 694 1093 q 569 1019 624 1019 q 513 1029 540 1019 q 451 1057 486 1039 q 409 1076 431 1068 q 371 1085 388 1085 q 321 1065 340 1085 q 300 1017 301 1044 l 244 1017 m 432 997 l 496 997 l 640 788 l 556 788 l 463 938 l 342 788 l 253 788 l 432 997 z "},"ȁ":{"ha":821,"x_min":72,"x_max":733,"o":"m 733 696 l 678 0 l 596 0 l 606 121 q 508 25 572 60 q 368 -10 443 -10 q 213 32 279 -10 q 109 150 146 74 q 72 328 72 226 q 113 530 72 443 q 227 665 153 617 q 397 713 301 713 q 547 675 483 713 q 640 569 610 638 l 650 696 l 733 696 m 385 64 q 560 149 496 64 q 625 381 625 233 q 567 574 625 507 q 400 640 508 640 q 223 556 286 640 q 160 324 160 472 q 218 132 160 200 q 385 64 276 64 m 254 1069 l 342 1069 l 389 788 l 342 788 l 254 1069 m 418 1069 l 504 1069 l 551 788 l 504 788 l 418 1069 z "},"ä":{"ha":821,"x_min":72,"x_max":733,"o":"m 733 696 l 678 0 l 596 0 l 606 121 q 508 25 572 60 q 368 -10 443 -10 q 213 32 279 -10 q 109 150 146 74 q 72 328 72 226 q 113 530 72 443 q 227 665 153 617 q 397 713 301 713 q 547 675 483 713 q 640 569 610 638 l 650 696 l 733 696 m 385 64 q 560 149 496 64 q 625 381 625 233 q 567 574 625 507 q 400 640 508 640 q 223 556 286 640 q 160 324 160 472 q 218 132 160 200 q 385 64 276 64 m 399 981 l 390 878 l 286 878 l 294 981 l 399 981 m 632 981 l 624 878 l 518 878 l 526 981 l 632 981 z "},"ȧ":{"ha":821,"x_min":72,"x_max":733,"o":"m 733 696 l 678 0 l 596 0 l 606 121 q 508 25 572 60 q 368 -10 443 -10 q 213 32 279 -10 q 109 150 146 74 q 72 328 72 226 q 113 530 72 443 q 227 665 153 617 q 397 713 301 713 q 547 675 483 713 q 640 569 610 638 l 650 696 l 733 696 m 385 64 q 560 149 496 64 q 625 381 625 233 q 567 574 625 507 q 400 640 508 640 q 223 556 286 640 q 160 324 160 472 q 218 132 160 200 q 385 64 276 64 m 518 983 l 510 875 l 397 875 l 406 983 l 518 983 z "},"ạ":{"ha":821,"x_min":72,"x_max":733,"o":"m 733 696 l 678 0 l 596 0 l 606 121 q 508 25 572 60 q 368 -10 443 -10 q 213 32 279 -10 q 109 150 146 74 q 72 328 72 226 q 113 530 72 443 q 227 665 153 617 q 397 713 301 713 q 547 675 483 713 q 640 569 610 638 l 650 696 l 733 696 m 385 64 q 560 149 496 64 q 625 381 625 233 q 567 574 625 507 q 400 640 508 640 q 223 556 286 640 q 160 324 160 472 q 218 132 160 200 q 385 64 276 64 m 432 -142 l 422 -250 l 311 -250 l 321 -142 l 432 -142 z "},"à":{"ha":821,"x_min":72,"x_max":733,"o":"m 733 696 l 678 0 l 596 0 l 606 121 q 508 25 572 60 q 368 -10 443 -10 q 213 32 279 -10 q 109 150 146 74 q 72 328 72 226 q 113 530 72 443 q 227 665 153 617 q 397 713 301 713 q 547 675 483 713 q 640 569 610 638 l 650 696 l 733 696 m 385 64 q 560 149 496 64 q 625 381 625 233 q 567 574 625 507 q 400 640 508 640 q 223 556 286 640 q 160 324 160 472 q 218 132 160 200 q 385 64 276 64 m 257 1069 l 358 1069 l 479 788 l 415 788 l 257 1069 z "},"ả":{"ha":821,"x_min":72,"x_max":733,"o":"m 733 696 l 678 0 l 596 0 l 606 121 q 508 25 572 60 q 368 -10 443 -10 q 213 32 279 -10 q 109 150 146 74 q 72 328 72 226 q 113 530 72 443 q 227 665 153 617 q 397 713 301 713 q 547 675 483 713 q 640 569 610 638 l 650 696 l 733 696 m 385 64 q 560 149 496 64 q 625 381 625 233 q 567 574 625 507 q 400 640 508 640 q 223 556 286 640 q 160 324 160 472 q 218 132 160 200 q 385 64 276 64 m 482 788 l 418 788 l 421 825 q 440 875 424 854 q 483 921 456 896 q 515 953 506 942 q 524 978 524 964 q 509 1002 524 993 q 467 1011 494 1011 q 379 994 433 1011 l 364 1053 q 476 1075 410 1075 q 568 1051 533 1075 q 603 986 603 1026 q 588 935 603 954 q 540 889 572 915 q 499 851 514 868 q 483 810 485 833 l 482 788 z "},"ȃ":{"ha":821,"x_min":72,"x_max":733,"o":"m 733 696 l 678 0 l 596 0 l 606 121 q 508 25 572 60 q 368 -10 443 -10 q 213 32 279 -10 q 109 150 146 74 q 72 328 72 226 q 113 530 72 443 q 227 665 153 617 q 397 713 301 713 q 547 675 483 713 q 640 569 610 638 l 650 696 l 733 696 m 385 64 q 560 149 496 64 q 625 381 625 233 q 567 574 625 507 q 400 640 508 640 q 223 556 286 640 q 160 324 160 472 q 218 132 160 200 q 385 64 276 64 m 465 1028 q 595 986 539 1028 q 675 858 651 944 l 610 831 q 549 930 586 900 q 461 960 511 960 q 368 931 410 960 q 293 831 326 901 l 229 857 q 328 988 267 947 q 465 1028 390 1028 z "},"ā":{"ha":821,"x_min":72,"x_max":733,"o":"m 733 696 l 678 0 l 596 0 l 606 121 q 508 25 572 60 q 368 -10 443 -10 q 213 32 279 -10 q 109 150 146 74 q 72 328 72 226 q 113 530 72 443 q 227 665 153 617 q 397 713 301 713 q 547 675 483 713 q 640 569 610 638 l 650 696 l 733 696 m 385 64 q 560 149 496 64 q 625 381 625 233 q 567 574 625 507 q 400 640 508 640 q 223 556 286 640 q 160 324 160 472 q 218 132 160 200 q 385 64 276 64 m 254 965 l 668 965 l 663 893 l 247 893 l 254 965 z "},"ą":{"ha":821,"x_min":72,"x_max":733,"o":"m 619 -211 q 707 -182 663 -211 l 726 -243 q 674 -265 706 -256 q 611 -274 643 -274 q 498 -236 540 -274 q 456 -136 456 -199 q 494 -26 456 -72 q 599 42 532 19 l 606 121 q 508 25 572 60 q 368 -10 443 -10 q 213 32 281 -10 q 109 150 146 74 q 72 328 72 226 q 113 529 72 442 q 228 665 154 617 q 397 713 301 713 q 547 675 483 713 q 640 569 610 638 l 650 696 l 733 696 l 678 0 l 664 0 q 571 -33 610 0 q 532 -122 532 -67 q 555 -188 532 -165 q 619 -211 578 -211 m 385 54 q 565 142 499 54 q 631 382 631 229 q 572 580 631 511 q 399 649 513 649 q 218 562 283 649 q 153 322 153 475 q 214 124 153 194 q 385 54 275 54 z "},"å":{"ha":821,"x_min":72,"x_max":733,"o":"m 733 696 l 678 0 l 596 0 l 606 121 q 508 25 572 60 q 368 -10 443 -10 q 213 32 279 -10 q 109 150 146 74 q 72 328 72 226 q 113 530 72 443 q 227 665 153 617 q 397 713 301 713 q 547 675 483 713 q 640 569 610 638 l 650 696 l 733 696 m 385 64 q 560 149 496 64 q 625 381 625 233 q 567 574 625 507 q 400 640 508 640 q 223 556 286 640 q 160 324 160 472 q 218 132 160 200 q 385 64 276 64 m 458 793 q 360 832 400 793 q 319 929 319 871 q 360 1024 319 985 q 458 1063 401 1063 q 556 1024 515 1063 q 597 929 597 985 q 557 832 597 871 q 458 793 517 793 m 458 856 q 508 876 489 856 q 528 929 528 897 q 508 979 528 958 q 458 1000 488 1000 q 409 979 429 1000 q 389 929 389 958 q 408 876 389 897 q 458 856 428 856 z "},"ǻ":{"ha":821,"x_min":72,"x_max":785,"o":"m 458 796 q 359 835 400 796 q 318 932 318 875 q 359 1033 318 992 q 458 1074 400 1074 q 542 1047 504 1074 l 672 1221 l 785 1217 l 581 1007 q 600 935 600 975 q 558 836 600 876 q 458 796 517 796 m 460 1008 q 408 987 429 1008 q 388 935 388 965 q 408 883 388 904 q 458 861 428 861 q 510 883 489 861 q 531 935 531 904 q 510 987 531 965 q 460 1008 490 1008 m 650 696 l 733 696 l 678 0 l 596 0 l 604 118 q 506 24 571 58 q 368 -10 442 -10 q 213 32 279 -10 q 109 150 146 74 q 72 328 72 226 q 113 530 72 443 q 227 665 153 617 q 397 713 301 713 q 547 675 483 713 q 640 569 610 638 l 650 696 m 385 64 q 560 149 496 64 q 625 381 625 233 q 567 574 625 507 q 399 640 508 640 q 223 556 286 640 q 160 324 160 472 q 218 132 160 200 q 385 64 276 64 z "},"ã":{"ha":821,"x_min":72,"x_max":733,"o":"m 733 696 l 678 0 l 596 0 l 606 121 q 508 25 572 60 q 368 -10 443 -10 q 213 32 279 -10 q 109 150 146 74 q 72 328 72 226 q 113 530 72 443 q 227 665 153 617 q 397 713 301 713 q 547 675 483 713 q 640 569 610 638 l 650 696 l 733 696 m 385 64 q 560 149 496 64 q 625 381 625 233 q 567 574 625 507 q 400 640 508 640 q 223 556 286 640 q 160 324 160 472 q 218 132 160 200 q 385 64 276 64 m 232 858 q 269 968 235 931 q 360 1006 304 1006 q 415 994 389 1006 q 476 960 442 982 q 522 933 503 942 q 558 924 542 924 q 609 945 590 924 q 631 1001 628 967 l 685 1001 q 646 892 681 929 q 557 854 611 854 q 503 865 528 854 q 440 900 478 876 q 360 936 389 936 q 309 915 328 936 q 288 858 290 893 l 232 858 z "},"æ":{"ha":1231,"x_min":82,"x_max":1168,"o":"m 647 358 q 646 322 646 347 q 706 133 646 201 q 882 64 767 64 q 997 85 939 64 q 1104 147 1056 106 l 1133 83 q 1019 16 1092 42 q 881 -10 947 -10 q 697 41 771 -10 q 593 183 624 92 q 487 42 560 93 q 317 -10 414 -10 q 147 46 213 -10 q 82 190 82 101 q 179 366 82 308 q 496 424 276 424 l 568 424 l 571 450 q 572 485 572 463 q 534 602 572 564 q 415 640 496 640 q 171 564 292 640 l 143 629 q 269 690 194 668 q 417 713 344 713 q 640 583 593 713 q 747 679 683 646 q 896 713 811 713 q 1095 637 1022 713 q 1168 419 1168 561 q 1165 358 1168 379 l 647 358 m 900 644 q 738 587 801 644 q 654 424 674 529 l 1093 424 q 1043 586 1096 528 q 900 644 990 644 m 326 63 q 485 128 419 63 q 558 299 550 194 l 564 358 l 501 358 q 296 339 368 358 q 197 285 224 319 q 169 194 169 250 q 213 99 169 136 q 326 63 256 63 z "},"ǽ":{"ha":1231,"x_min":82,"x_max":1168,"o":"m 647 358 q 646 322 646 347 q 706 133 646 201 q 882 64 767 64 q 997 85 939 64 q 1104 147 1056 106 l 1133 83 q 1019 16 1092 42 q 881 -10 947 -10 q 697 41 771 -10 q 593 183 624 92 q 487 42 560 93 q 317 -10 414 -10 q 147 46 213 -10 q 82 190 82 101 q 179 366 82 308 q 496 424 276 424 l 568 424 l 571 450 q 572 485 572 463 q 534 602 572 564 q 415 640 496 640 q 171 564 292 640 l 143 629 q 269 690 194 668 q 417 713 344 713 q 640 583 593 713 q 747 679 683 646 q 896 713 811 713 q 1095 637 1022 713 q 1168 419 1168 561 q 1165 358 1168 379 l 647 358 m 900 644 q 738 587 801 644 q 654 424 674 529 l 1093 424 q 1043 586 1096 528 q 900 644 990 644 m 326 63 q 485 128 419 63 q 558 299 550 194 l 564 358 l 501 358 q 296 339 368 358 q 197 285 224 319 q 169 194 169 250 q 213 99 169 136 q 326 63 256 63 m 608 788 l 768 1069 l 881 1069 l 672 788 l 608 788 z "},"b":{"ha":821,"x_min":88,"x_max":750,"o":"m 453 713 q 608 672 540 713 q 713 554 675 631 q 750 376 750 478 q 709 174 750 261 q 594 38 668 86 q 425 -10 521 -10 q 276 28 340 -10 q 183 133 213 65 l 172 0 l 88 0 l 169 1022 l 253 1022 l 218 586 q 316 679 253 646 q 453 713 379 713 m 425 64 q 600 148 536 64 q 664 379 664 232 q 604 572 664 503 q 439 640 544 640 q 262 556 326 640 q 197 322 197 471 q 256 130 197 196 q 425 64 314 64 z "},"c":{"ha":681,"x_min":71,"x_max":663,"o":"m 381 -10 q 217 32 288 -10 q 109 149 147 74 q 71 325 71 225 q 113 529 71 442 q 232 665 154 617 q 415 713 310 713 q 553 689 489 713 q 663 621 618 665 l 625 556 q 519 620 569 600 q 411 640 469 640 q 225 556 292 640 q 158 322 158 471 q 218 133 158 201 q 389 64 278 64 q 492 83 444 64 q 593 147 539 103 l 621 83 q 513 15 576 40 q 381 -10 450 -10 z "},"ć":{"ha":681,"x_min":71,"x_max":671,"o":"m 381 -10 q 217 32 288 -10 q 109 149 147 74 q 71 325 71 225 q 113 529 71 442 q 232 665 154 617 q 415 713 310 713 q 553 689 489 713 q 663 621 618 665 l 625 556 q 519 620 569 600 q 411 640 469 640 q 225 556 292 640 q 158 322 158 471 q 218 133 158 201 q 389 64 278 64 q 492 83 444 64 q 593 147 539 103 l 621 83 q 513 15 576 40 q 381 -10 450 -10 m 399 788 l 558 1069 l 671 1069 l 463 788 l 399 788 z "},"č":{"ha":681,"x_min":71,"x_max":663,"o":"m 381 -10 q 217 32 288 -10 q 109 149 147 74 q 71 325 71 225 q 113 529 71 442 q 232 665 154 617 q 415 713 310 713 q 553 689 489 713 q 663 621 618 665 l 625 556 q 519 620 569 600 q 411 640 469 640 q 225 556 292 640 q 158 322 158 471 q 218 133 158 201 q 389 64 278 64 q 492 83 444 64 q 593 147 539 103 l 621 83 q 513 15 576 40 q 381 -10 450 -10 m 646 1069 l 464 788 l 397 788 l 260 1069 l 344 1069 l 435 857 l 558 1069 l 646 1069 z "},"ç":{"ha":681,"x_min":71,"x_max":663,"o":"m 411 640 q 225 556 292 640 q 158 322 158 471 q 218 133 158 201 q 389 64 278 64 q 492 83 444 64 q 593 147 539 103 l 621 83 q 516 16 578 40 q 386 -10 454 -8 l 376 -61 q 408 -57 393 -57 q 481 -82 453 -57 q 510 -151 510 -107 q 468 -236 510 -204 q 351 -268 426 -268 q 289 -262 322 -268 q 229 -242 256 -256 l 250 -187 q 353 -207 303 -207 q 417 -194 394 -207 q 439 -154 439 -181 q 426 -124 439 -135 q 389 -114 414 -114 q 324 -128 363 -114 l 299 -107 l 318 -4 q 137 103 203 15 q 71 325 71 192 q 113 529 71 442 q 232 665 154 617 q 415 713 310 713 q 553 689 489 713 q 663 621 618 665 l 625 556 q 519 620 569 600 q 411 640 469 640 z "},"ḉ":{"ha":681,"x_min":71,"x_max":671,"o":"m 463 788 l 399 788 l 558 1069 l 671 1069 l 463 788 m 71 325 q 113 529 71 442 q 232 665 154 617 q 415 713 310 713 q 553 689 489 713 q 663 621 618 665 l 625 556 q 519 620 569 600 q 411 640 469 640 q 225 556 292 640 q 158 322 158 471 q 218 133 158 201 q 389 64 278 64 q 492 83 444 64 q 593 147 539 103 l 621 83 q 516 16 578 40 q 386 -10 454 -8 l 376 -61 q 408 -57 393 -57 q 481 -82 453 -57 q 510 -151 510 -107 q 468 -236 510 -204 q 351 -268 426 -268 q 289 -262 322 -268 q 229 -242 256 -256 l 250 -187 q 353 -207 303 -207 q 417 -194 394 -207 q 439 -154 439 -181 q 426 -124 439 -135 q 389 -114 414 -114 q 324 -128 363 -114 l 299 -107 l 318 -4 q 137 103 203 15 q 71 325 71 192 z "},"ĉ":{"ha":681,"x_min":71,"x_max":663,"o":"m 381 -10 q 217 32 288 -10 q 109 149 147 74 q 71 325 71 225 q 113 529 71 442 q 232 665 154 617 q 415 713 310 713 q 553 689 489 713 q 663 621 618 665 l 625 556 q 519 620 569 600 q 411 640 469 640 q 225 556 292 640 q 158 322 158 471 q 218 133 158 201 q 389 64 278 64 q 492 83 444 64 q 593 147 539 103 l 621 83 q 513 15 576 40 q 381 -10 450 -10 m 236 788 l 419 1069 l 486 1069 l 624 788 l 539 788 l 449 999 l 326 788 l 236 788 z "},"ċ":{"ha":681,"x_min":71,"x_max":663,"o":"m 381 -10 q 217 32 288 -10 q 109 149 147 74 q 71 325 71 225 q 113 529 71 442 q 232 665 154 617 q 415 713 310 713 q 553 689 489 713 q 663 621 618 665 l 625 556 q 519 620 569 600 q 411 640 469 640 q 225 556 292 640 q 158 322 158 471 q 218 133 158 201 q 389 64 278 64 q 492 83 444 64 q 593 147 539 103 l 621 83 q 513 15 576 40 q 381 -10 450 -10 m 501 983 l 493 875 l 381 875 l 389 983 l 501 983 z "},"d":{"ha":821,"x_min":71,"x_max":757,"o":"m 757 1022 l 676 0 l 594 0 l 604 119 q 506 24 571 58 q 367 -10 442 -10 q 212 32 279 -10 q 108 149 144 74 q 71 325 71 225 q 112 528 71 440 q 226 665 153 617 q 396 713 300 713 q 545 675 482 713 q 639 568 608 638 l 675 1022 l 757 1022 m 383 64 q 559 149 494 64 q 624 381 624 233 q 565 574 624 507 q 399 640 507 640 q 222 556 286 640 q 158 326 158 472 q 217 133 158 201 q 383 64 276 64 z "},"ð":{"ha":786,"x_min":69,"x_max":756,"o":"m 596 853 q 724 463 724 704 q 631 107 724 224 q 379 -10 538 -10 q 153 74 238 -10 q 69 299 69 158 q 110 484 69 404 q 226 608 151 564 q 397 653 300 653 q 550 617 486 653 q 644 518 614 581 q 521 824 633 703 l 292 736 l 274 797 l 469 871 q 278 969 392 933 l 306 1031 q 549 901 454 986 l 739 974 l 756 914 l 596 853 m 385 64 q 560 140 496 64 q 624 351 624 217 q 563 517 624 457 q 397 578 503 578 q 220 503 285 578 q 156 296 156 428 q 215 123 156 182 q 385 64 274 64 z "},"ď":{"ha":821,"x_min":71,"x_max":893,"o":"m 675 1022 l 757 1022 l 676 0 l 594 0 l 604 119 q 506 24 571 58 q 367 -10 442 -10 q 212 32 279 -10 q 108 149 144 74 q 71 325 71 225 q 112 528 71 440 q 226 665 153 617 q 396 713 300 713 q 545 675 482 713 q 639 568 608 638 l 675 1022 m 893 1022 l 836 751 l 788 751 l 807 1022 l 893 1022 m 383 64 q 559 149 494 64 q 624 381 624 233 q 565 574 624 507 q 399 640 507 640 q 222 556 286 640 q 158 326 158 472 q 217 133 158 201 q 383 64 276 64 z "},"đ":{"ha":821,"x_min":72,"x_max":883,"o":"m 878 818 l 742 818 l 678 0 l 596 0 l 606 119 q 508 24 572 58 q 368 -10 443 -10 q 213 32 281 -10 q 109 150 146 74 q 72 329 72 226 q 113 530 72 443 q 228 665 154 617 q 397 713 301 713 q 547 675 483 713 q 640 568 610 638 l 660 818 l 379 818 l 386 885 l 665 885 l 676 1022 l 758 1022 l 747 885 l 883 885 l 878 818 m 385 64 q 561 149 497 64 q 625 382 625 233 q 567 574 625 507 q 399 640 508 640 q 224 556 288 640 q 160 324 160 471 q 219 132 160 200 q 385 64 278 64 z "},"ḍ":{"ha":821,"x_min":71,"x_max":757,"o":"m 757 1022 l 676 0 l 594 0 l 604 119 q 506 24 571 58 q 367 -10 442 -10 q 212 32 279 -10 q 108 149 144 74 q 71 325 71 225 q 112 528 71 440 q 226 665 153 617 q 396 713 300 713 q 545 675 482 713 q 639 568 608 638 l 675 1022 l 757 1022 m 383 64 q 559 149 494 64 q 624 381 624 233 q 565 574 624 507 q 399 640 507 640 q 222 556 286 640 q 158 326 158 472 q 217 133 158 201 q 383 64 276 64 m 432 -142 l 422 -250 l 311 -250 l 321 -142 l 432 -142 z "},"ḏ":{"ha":821,"x_min":71,"x_max":757,"o":"m 757 1022 l 676 0 l 594 0 l 604 119 q 506 24 571 58 q 367 -10 442 -10 q 212 32 279 -10 q 108 149 144 74 q 71 325 71 225 q 112 528 71 440 q 226 665 153 617 q 396 713 300 713 q 545 675 482 713 q 639 568 608 638 l 675 1022 l 757 1022 m 383 64 q 559 149 494 64 q 624 381 624 233 q 565 574 624 507 q 399 640 507 640 q 222 556 286 640 q 158 326 158 472 q 217 133 158 201 q 383 64 276 64 m 167 -160 l 582 -160 l 576 -232 l 161 -232 l 167 -160 z "},"ǆ":{"ha":1536,"x_min":71,"x_max":1483,"o":"m 757 1022 l 676 0 l 594 0 l 604 119 q 506 24 571 58 q 367 -10 442 -10 q 212 32 279 -10 q 108 149 144 74 q 71 325 71 225 q 112 528 71 440 q 226 665 153 617 q 396 713 300 713 q 545 675 482 713 q 639 568 608 638 l 675 1022 l 757 1022 m 383 64 q 559 149 494 64 q 624 381 624 233 q 565 574 624 507 q 399 640 507 640 q 222 556 286 640 q 158 326 158 472 q 217 133 158 201 q 383 64 276 64 m 1481 633 l 982 68 l 1450 68 l 1444 0 l 864 0 l 868 57 l 1372 628 l 932 628 l 936 696 l 1483 696 l 1481 633 m 1433 1069 l 1251 788 l 1185 788 l 1047 1069 l 1132 1069 l 1222 857 l 1346 1069 l 1433 1069 z "},"e":{"ha":754,"x_min":71,"x_max":693,"o":"m 160 358 q 158 322 158 347 q 219 133 158 201 q 393 64 279 64 q 518 85 457 64 q 629 147 579 106 l 657 83 q 541 16 615 42 q 392 -10 467 -10 q 157 81 243 -10 q 71 325 71 172 q 113 528 71 440 q 231 664 154 615 q 411 713 308 713 q 617 638 542 713 q 693 422 693 563 q 689 358 693 392 l 160 358 m 417 644 q 251 587 315 644 q 167 424 188 529 l 615 424 q 564 587 618 529 q 417 644 510 644 z "},"é":{"ha":754,"x_min":71,"x_max":693,"o":"m 160 358 q 158 322 158 347 q 219 133 158 201 q 393 64 279 64 q 518 85 457 64 q 629 147 579 106 l 657 83 q 541 16 615 42 q 392 -10 467 -10 q 157 81 243 -10 q 71 325 71 172 q 113 528 71 440 q 231 664 154 615 q 411 713 308 713 q 617 638 542 713 q 693 422 693 563 q 689 358 693 392 l 160 358 m 417 644 q 251 587 315 644 q 167 424 188 529 l 615 424 q 564 587 618 529 q 417 644 510 644 m 399 788 l 558 1069 l 671 1069 l 463 788 l 399 788 z "},"ĕ":{"ha":754,"x_min":71,"x_max":693,"o":"m 160 358 q 158 322 158 347 q 219 133 158 201 q 393 64 279 64 q 518 85 457 64 q 629 147 579 106 l 657 83 q 541 16 615 42 q 392 -10 467 -10 q 157 81 243 -10 q 71 325 71 172 q 113 528 71 440 q 231 664 154 615 q 411 713 308 713 q 617 638 542 713 q 693 422 693 563 q 689 358 693 392 l 160 358 m 417 644 q 251 587 315 644 q 167 424 188 529 l 615 424 q 564 587 618 529 q 417 644 510 644 m 435 833 q 305 875 361 833 q 224 1001 249 917 l 290 1029 q 440 901 335 901 q 607 1029 544 901 l 669 1003 q 572 874 633 914 q 435 833 510 833 z "},"ě":{"ha":754,"x_min":71,"x_max":693,"o":"m 160 358 q 158 322 158 347 q 219 133 158 201 q 393 64 279 64 q 518 85 457 64 q 629 147 579 106 l 657 83 q 541 16 615 42 q 392 -10 467 -10 q 157 81 243 -10 q 71 325 71 172 q 113 528 71 440 q 231 664 154 615 q 411 713 308 713 q 617 638 542 713 q 693 422 693 563 q 689 358 693 392 l 160 358 m 417 644 q 251 587 315 644 q 167 424 188 529 l 615 424 q 564 587 618 529 q 417 644 510 644 m 646 1069 l 464 788 l 397 788 l 260 1069 l 344 1069 l 435 857 l 558 1069 l 646 1069 z "},"ḝ":{"ha":754,"x_min":71,"x_max":693,"o":"m 435 833 q 305 875 361 833 q 224 1001 249 917 l 290 1029 q 440 901 335 901 q 607 1029 544 901 l 669 1003 q 572 874 633 914 q 435 833 510 833 m 160 358 q 158 322 158 347 q 219 133 158 201 q 393 64 279 64 q 518 85 457 64 q 629 147 579 106 l 657 83 q 548 18 617 43 q 407 -10 479 -7 l 397 -61 q 429 -57 414 -57 q 502 -82 474 -57 q 531 -151 531 -107 q 489 -236 531 -204 q 372 -268 447 -268 q 310 -262 343 -268 q 250 -242 276 -256 l 271 -187 q 374 -207 324 -207 q 438 -194 415 -207 q 460 -154 460 -181 q 447 -124 460 -135 q 410 -114 435 -114 q 344 -128 383 -114 l 319 -107 l 338 -7 q 142 99 213 10 q 71 325 71 188 q 113 528 71 440 q 231 664 154 615 q 411 713 308 713 q 617 638 542 713 q 693 422 693 563 q 689 358 693 392 l 160 358 m 417 644 q 251 587 315 644 q 167 424 188 529 l 615 424 q 564 587 618 529 q 417 644 510 644 z "},"ê":{"ha":754,"x_min":71,"x_max":693,"o":"m 160 358 q 158 322 158 347 q 219 133 158 201 q 393 64 279 64 q 518 85 457 64 q 629 147 579 106 l 657 83 q 541 16 615 42 q 392 -10 467 -10 q 157 81 243 -10 q 71 325 71 172 q 113 528 71 440 q 231 664 154 615 q 411 713 308 713 q 617 638 542 713 q 693 422 693 563 q 689 358 693 392 l 160 358 m 417 644 q 251 587 315 644 q 167 424 188 529 l 615 424 q 564 587 618 529 q 417 644 510 644 m 236 788 l 419 1069 l 486 1069 l 624 788 l 539 788 l 449 999 l 326 788 l 236 788 z "},"ế":{"ha":754,"x_min":71,"x_max":813,"o":"m 160 358 q 158 322 158 347 q 219 133 158 201 q 393 64 279 64 q 518 85 457 64 q 629 147 579 106 l 657 83 q 541 16 615 42 q 392 -10 467 -10 q 157 81 243 -10 q 71 325 71 172 q 113 528 71 440 q 231 664 154 615 q 411 713 308 713 q 617 638 542 713 q 693 422 693 563 q 689 358 693 392 l 160 358 m 417 644 q 251 587 315 644 q 167 424 188 529 l 615 424 q 564 587 618 529 q 417 644 510 644 m 557 931 l 706 1129 l 813 1129 l 615 931 l 557 931 m 236 788 l 415 997 l 479 997 l 624 788 l 539 788 l 446 938 l 325 788 l 236 788 z "},"ệ":{"ha":754,"x_min":71,"x_max":693,"o":"m 160 358 q 158 322 158 347 q 219 133 158 201 q 393 64 279 64 q 518 85 457 64 q 629 147 579 106 l 657 83 q 541 16 615 42 q 392 -10 467 -10 q 157 81 243 -10 q 71 325 71 172 q 113 528 71 440 q 231 664 154 615 q 411 713 308 713 q 617 638 542 713 q 693 422 693 563 q 689 358 693 392 l 160 358 m 417 644 q 251 587 315 644 q 167 424 188 529 l 615 424 q 564 587 618 529 q 417 644 510 644 m 432 -142 l 422 -250 l 311 -250 l 321 -142 l 432 -142 m 236 788 l 419 1069 l 486 1069 l 624 788 l 539 788 l 449 999 l 326 788 l 236 788 z "},"ề":{"ha":754,"x_min":71,"x_max":693,"o":"m 160 358 q 158 322 158 347 q 219 133 158 201 q 393 64 279 64 q 518 85 457 64 q 629 147 579 106 l 657 83 q 541 16 615 42 q 392 -10 467 -10 q 157 81 243 -10 q 71 325 71 172 q 113 528 71 440 q 231 664 154 615 q 411 713 308 713 q 617 638 542 713 q 693 422 693 563 q 689 358 693 392 l 160 358 m 417 644 q 251 587 315 644 q 167 424 188 529 l 615 424 q 564 587 618 529 q 417 644 510 644 m 482 1129 l 579 1129 l 675 931 l 617 931 l 482 1129 m 415 997 l 479 997 l 624 788 l 539 788 l 446 938 l 325 788 l 236 788 l 415 997 z "},"ể":{"ha":754,"x_min":71,"x_max":739,"o":"m 160 358 q 158 322 158 347 q 219 133 158 201 q 393 64 279 64 q 518 85 457 64 q 629 147 579 106 l 657 83 q 541 16 615 42 q 392 -10 467 -10 q 157 81 243 -10 q 71 325 71 172 q 113 528 71 440 q 231 664 154 615 q 411 713 308 713 q 617 638 542 713 q 693 422 693 563 q 689 358 693 392 l 160 358 m 417 644 q 251 587 315 644 q 167 424 188 529 l 615 424 q 564 587 618 529 q 417 644 510 644 m 557 953 q 575 991 558 978 q 621 1015 592 1004 q 650 1031 640 1024 q 660 1047 660 1038 q 644 1066 660 1058 q 604 1074 628 1074 q 513 1056 563 1074 l 499 1114 q 610 1136 549 1136 q 704 1114 669 1136 q 739 1056 739 1092 q 721 1011 739 1026 q 671 982 703 996 q 636 965 649 974 q 622 943 624 957 l 621 931 l 556 931 l 557 953 m 415 997 l 479 997 l 624 788 l 539 788 l 446 938 l 325 788 l 236 788 l 415 997 z "},"ễ":{"ha":754,"x_min":71,"x_max":693,"o":"m 160 358 q 158 322 158 347 q 219 133 158 201 q 393 64 279 64 q 518 85 457 64 q 629 147 579 106 l 657 83 q 541 16 615 42 q 392 -10 467 -10 q 157 81 243 -10 q 71 325 71 172 q 113 528 71 440 q 231 664 154 615 q 411 713 308 713 q 617 638 542 713 q 693 422 693 563 q 689 358 693 392 l 160 358 m 417 644 q 251 587 315 644 q 167 424 188 529 l 615 424 q 564 587 618 529 q 417 644 510 644 m 228 1017 q 266 1115 231 1079 q 356 1151 301 1151 q 410 1142 385 1151 q 474 1115 436 1133 q 554 1088 526 1088 q 604 1108 585 1088 q 625 1156 624 1128 l 681 1156 q 642 1056 678 1093 q 553 1019 607 1019 q 497 1029 524 1019 q 435 1057 469 1039 q 392 1076 414 1068 q 354 1085 371 1085 q 304 1065 324 1085 q 283 1017 285 1044 l 228 1017 m 415 997 l 479 997 l 624 788 l 539 788 l 446 938 l 325 788 l 236 788 l 415 997 z "},"ȅ":{"ha":754,"x_min":71,"x_max":693,"o":"m 160 358 q 158 322 158 347 q 219 133 158 201 q 393 64 279 64 q 518 85 457 64 q 629 147 579 106 l 657 83 q 541 16 615 42 q 392 -10 467 -10 q 157 81 243 -10 q 71 325 71 172 q 113 528 71 440 q 231 664 154 615 q 411 713 308 713 q 617 638 542 713 q 693 422 693 563 q 689 358 693 392 l 160 358 m 417 644 q 251 587 315 644 q 167 424 188 529 l 615 424 q 564 587 618 529 q 417 644 510 644 m 238 1069 l 325 1069 l 372 788 l 325 788 l 238 1069 m 401 1069 l 488 1069 l 535 788 l 488 788 l 401 1069 z "},"ë":{"ha":754,"x_min":71,"x_max":693,"o":"m 160 358 q 158 322 158 347 q 219 133 158 201 q 393 64 279 64 q 518 85 457 64 q 629 147 579 106 l 657 83 q 541 16 615 42 q 392 -10 467 -10 q 157 81 243 -10 q 71 325 71 172 q 113 528 71 440 q 231 664 154 615 q 411 713 308 713 q 617 638 542 713 q 693 422 693 563 q 689 358 693 392 l 160 358 m 417 644 q 251 587 315 644 q 167 424 188 529 l 615 424 q 564 587 618 529 q 417 644 510 644 m 382 981 l 374 878 l 269 878 l 278 981 l 382 981 m 615 981 l 607 878 l 501 878 l 510 981 l 615 981 z "},"ė":{"ha":754,"x_min":71,"x_max":693,"o":"m 160 358 q 158 322 158 347 q 219 133 158 201 q 393 64 279 64 q 518 85 457 64 q 629 147 579 106 l 657 83 q 541 16 615 42 q 392 -10 467 -10 q 157 81 243 -10 q 71 325 71 172 q 113 528 71 440 q 231 664 154 615 q 411 713 308 713 q 617 638 542 713 q 693 422 693 563 q 689 358 693 392 l 160 358 m 417 644 q 251 587 315 644 q 167 424 188 529 l 615 424 q 564 587 618 529 q 417 644 510 644 m 501 983 l 493 875 l 381 875 l 389 983 l 501 983 z "},"ẹ":{"ha":754,"x_min":71,"x_max":693,"o":"m 160 358 q 158 322 158 347 q 219 133 158 201 q 393 64 279 64 q 518 85 457 64 q 629 147 579 106 l 657 83 q 541 16 615 42 q 392 -10 467 -10 q 157 81 243 -10 q 71 325 71 172 q 113 528 71 440 q 231 664 154 615 q 411 713 308 713 q 617 638 542 713 q 693 422 693 563 q 689 358 693 392 l 160 358 m 417 644 q 251 587 315 644 q 167 424 188 529 l 615 424 q 564 587 618 529 q 417 644 510 644 m 432 -142 l 422 -250 l 311 -250 l 321 -142 l 432 -142 z "},"è":{"ha":754,"x_min":71,"x_max":693,"o":"m 160 358 q 158 322 158 347 q 219 133 158 201 q 393 64 279 64 q 518 85 457 64 q 629 147 579 106 l 657 83 q 541 16 615 42 q 392 -10 467 -10 q 157 81 243 -10 q 71 325 71 172 q 113 528 71 440 q 231 664 154 615 q 411 713 308 713 q 617 638 542 713 q 693 422 693 563 q 689 358 693 392 l 160 358 m 417 644 q 251 587 315 644 q 167 424 188 529 l 615 424 q 564 587 618 529 q 417 644 510 644 m 240 1069 l 342 1069 l 463 788 l 399 788 l 240 1069 z "},"ẻ":{"ha":754,"x_min":71,"x_max":693,"o":"m 160 358 q 158 322 158 347 q 219 133 158 201 q 393 64 279 64 q 518 85 457 64 q 629 147 579 106 l 657 83 q 541 16 615 42 q 392 -10 467 -10 q 157 81 243 -10 q 71 325 71 172 q 113 528 71 440 q 231 664 154 615 q 411 713 308 713 q 617 638 542 713 q 693 422 693 563 q 689 358 693 392 l 160 358 m 417 644 q 251 587 315 644 q 167 424 188 529 l 615 424 q 564 587 618 529 q 417 644 510 644 m 465 788 l 401 788 l 404 825 q 423 875 407 854 q 467 921 439 896 q 498 953 489 942 q 507 978 507 964 q 492 1002 507 993 q 450 1011 478 1011 q 363 994 417 1011 l 347 1053 q 460 1075 393 1075 q 551 1051 517 1075 q 586 986 586 1026 q 571 935 586 954 q 524 889 556 915 q 483 851 497 868 q 467 810 468 833 l 465 788 z "},"ȇ":{"ha":754,"x_min":71,"x_max":693,"o":"m 160 358 q 158 322 158 347 q 219 133 158 201 q 393 64 279 64 q 518 85 457 64 q 629 147 579 106 l 657 83 q 541 16 615 42 q 392 -10 467 -10 q 157 81 243 -10 q 71 325 71 172 q 113 528 71 440 q 231 664 154 615 q 411 713 308 713 q 617 638 542 713 q 693 422 693 563 q 689 358 693 392 l 160 358 m 417 644 q 251 587 315 644 q 167 424 188 529 l 615 424 q 564 587 618 529 q 417 644 510 644 m 449 1028 q 578 986 522 1028 q 658 858 635 944 l 593 831 q 532 930 569 900 q 444 960 494 960 q 351 931 393 960 q 276 831 310 901 l 213 857 q 312 988 250 947 q 449 1028 374 1028 z "},"ē":{"ha":754,"x_min":71,"x_max":693,"o":"m 160 358 q 158 322 158 347 q 219 133 158 201 q 393 64 279 64 q 518 85 457 64 q 629 147 579 106 l 657 83 q 541 16 615 42 q 392 -10 467 -10 q 157 81 243 -10 q 71 325 71 172 q 113 528 71 440 q 231 664 154 615 q 411 713 308 713 q 617 638 542 713 q 693 422 693 563 q 689 358 693 392 l 160 358 m 417 644 q 251 587 315 644 q 167 424 188 529 l 615 424 q 564 587 618 529 q 417 644 510 644 m 238 965 l 651 965 l 646 893 l 231 893 l 238 965 z "},"ḗ":{"ha":754,"x_min":71,"x_max":693,"o":"m 160 358 q 158 322 158 347 q 219 133 158 201 q 393 64 279 64 q 518 85 457 64 q 629 147 579 106 l 657 83 q 541 16 615 42 q 392 -10 467 -10 q 157 81 243 -10 q 71 325 71 172 q 113 528 71 440 q 231 664 154 615 q 411 713 308 713 q 617 638 542 713 q 693 422 693 563 q 689 358 693 392 l 160 358 m 417 644 q 251 587 315 644 q 167 424 188 529 l 615 424 q 564 587 618 529 q 417 644 510 644 m 238 965 l 651 965 l 646 893 l 231 893 l 238 965 m 419 1060 l 579 1342 l 692 1342 l 483 1060 l 419 1060 z "},"ḕ":{"ha":754,"x_min":71,"x_max":693,"o":"m 160 358 q 158 322 158 347 q 219 133 158 201 q 393 64 279 64 q 518 85 457 64 q 629 147 579 106 l 657 83 q 541 16 615 42 q 392 -10 467 -10 q 157 81 243 -10 q 71 325 71 172 q 113 528 71 440 q 231 664 154 615 q 411 713 308 713 q 617 638 542 713 q 693 422 693 563 q 689 358 693 392 l 160 358 m 417 644 q 251 587 315 644 q 167 424 188 529 l 615 424 q 564 587 618 529 q 417 644 510 644 m 238 965 l 651 965 l 646 893 l 231 893 l 238 965 m 261 1342 l 363 1342 l 483 1060 l 419 1060 l 261 1342 z "},"ę":{"ha":754,"x_min":71,"x_max":693,"o":"m 160 358 q 158 322 158 347 q 219 133 158 201 q 393 64 279 64 q 629 147 531 64 l 657 83 q 576 31 632 53 q 466 -42 496 -4 q 436 -122 436 -79 q 459 -188 436 -165 q 524 -211 482 -211 q 613 -182 568 -211 l 629 -243 q 578 -265 610 -256 q 514 -274 546 -274 q 401 -235 443 -274 q 358 -136 358 -197 q 417 -8 358 -56 q 392 -10 408 -10 q 157 81 243 -10 q 71 325 71 172 q 113 528 71 440 q 231 664 154 615 q 411 713 308 713 q 617 638 540 713 q 693 421 693 563 q 689 358 693 392 l 160 358 m 417 644 q 254 590 321 644 q 167 424 188 536 l 615 424 q 564 587 618 529 q 417 644 510 644 z "},"ẽ":{"ha":754,"x_min":71,"x_max":693,"o":"m 160 358 q 158 322 158 347 q 219 133 158 201 q 393 64 279 64 q 518 85 457 64 q 629 147 579 106 l 657 83 q 541 16 615 42 q 392 -10 467 -10 q 157 81 243 -10 q 71 325 71 172 q 113 528 71 440 q 231 664 154 615 q 411 713 308 713 q 617 638 542 713 q 693 422 693 563 q 689 358 693 392 l 160 358 m 417 644 q 251 587 315 644 q 167 424 188 529 l 615 424 q 564 587 618 529 q 417 644 510 644 m 215 858 q 253 968 218 931 q 343 1006 288 1006 q 399 994 372 1006 q 460 960 425 982 q 506 933 486 942 q 542 924 525 924 q 592 945 574 924 q 614 1001 611 967 l 668 1001 q 629 892 664 929 q 540 854 594 854 q 486 865 511 854 q 424 900 461 876 q 343 936 372 936 q 292 915 311 936 q 271 858 274 893 l 215 858 z "},"ə":{"ha":756,"x_min":61,"x_max":685,"o":"m 364 713 q 599 622 513 713 q 685 378 685 531 q 644 175 685 263 q 530 39 604 88 q 357 -10 456 -10 q 140 65 218 -10 q 61 283 61 140 q 65 346 61 313 l 597 346 q 599 382 599 357 q 536 572 599 504 q 361 640 474 640 q 126 556 229 640 l 97 621 q 215 688 140 664 q 364 713 289 713 m 353 58 q 508 116 447 58 q 589 279 569 174 l 139 279 q 193 116 136 174 q 353 58 250 58 z "},"f":{"ha":450,"x_min":33,"x_max":472,"o":"m 400 953 q 308 921 343 953 q 267 806 274 889 l 258 696 l 467 696 l 460 628 l 253 628 l 204 0 l 121 0 l 169 628 l 33 628 l 40 696 l 175 696 l 185 822 q 247 976 193 925 q 389 1028 301 1028 q 472 1017 428 1028 l 467 942 q 400 953 429 953 z "},"g":{"ha":826,"x_min":72,"x_max":738,"o":"m 738 696 l 682 -3 q 369 -310 657 -310 q 97 -233 215 -310 l 121 -160 q 242 -219 186 -203 q 371 -236 297 -236 q 600 -6 581 -236 l 614 153 q 516 56 581 90 q 375 21 451 21 q 154 108 236 21 q 72 343 72 196 q 113 537 72 453 q 227 667 153 621 q 399 713 301 713 q 550 675 486 713 q 644 569 614 638 l 654 696 l 738 696 m 388 96 q 565 175 500 96 q 631 393 631 254 q 570 576 631 511 q 403 640 510 640 q 224 560 289 640 q 160 340 160 481 q 218 158 160 221 q 388 96 276 96 z "},"ğ":{"ha":826,"x_min":72,"x_max":738,"o":"m 738 696 l 682 -3 q 369 -310 657 -310 q 97 -233 215 -310 l 121 -160 q 242 -219 186 -203 q 371 -236 297 -236 q 600 -6 581 -236 l 614 153 q 516 56 581 90 q 375 21 451 21 q 154 108 236 21 q 72 343 72 196 q 113 537 72 453 q 227 667 153 621 q 399 713 301 713 q 550 675 486 713 q 644 569 614 638 l 654 696 l 738 696 m 388 96 q 565 175 500 96 q 631 393 631 254 q 570 576 631 511 q 403 640 510 640 q 224 560 289 640 q 160 340 160 481 q 218 158 160 221 q 388 96 276 96 m 454 833 q 324 875 381 833 q 243 1001 268 917 l 310 1029 q 460 901 354 901 q 626 1029 564 901 l 689 1003 q 591 874 653 914 q 454 833 529 833 z "},"ǧ":{"ha":826,"x_min":72,"x_max":738,"o":"m 738 696 l 682 -3 q 369 -310 657 -310 q 97 -233 215 -310 l 121 -160 q 242 -219 186 -203 q 371 -236 297 -236 q 600 -6 581 -236 l 614 153 q 516 56 581 90 q 375 21 451 21 q 154 108 236 21 q 72 343 72 196 q 113 537 72 453 q 227 667 153 621 q 399 713 301 713 q 550 675 486 713 q 644 569 614 638 l 654 696 l 738 696 m 388 96 q 565 175 500 96 q 631 393 631 254 q 570 576 631 511 q 403 640 510 640 q 224 560 289 640 q 160 340 160 481 q 218 158 160 221 q 388 96 276 96 m 665 1069 l 483 788 l 417 788 l 279 1069 l 364 1069 l 454 857 l 578 1069 l 665 1069 z "},"ĝ":{"ha":826,"x_min":72,"x_max":738,"o":"m 738 696 l 682 -3 q 369 -310 657 -310 q 97 -233 215 -310 l 121 -160 q 242 -219 186 -203 q 371 -236 297 -236 q 600 -6 581 -236 l 614 153 q 516 56 581 90 q 375 21 451 21 q 154 108 236 21 q 72 343 72 196 q 113 537 72 453 q 227 667 153 621 q 399 713 301 713 q 550 675 486 713 q 644 569 614 638 l 654 696 l 738 696 m 388 96 q 565 175 500 96 q 631 393 631 254 q 570 576 631 511 q 403 640 510 640 q 224 560 289 640 q 160 340 160 481 q 218 158 160 221 q 388 96 276 96 m 256 788 l 439 1069 l 506 1069 l 643 788 l 558 788 l 468 999 l 346 788 l 256 788 z "},"ģ":{"ha":826,"x_min":72,"x_max":738,"o":"m 738 696 l 682 -3 q 369 -310 657 -310 q 97 -233 215 -310 l 121 -160 q 242 -219 186 -203 q 371 -236 297 -236 q 600 -6 581 -236 l 614 153 q 516 56 581 90 q 375 21 451 21 q 154 108 236 21 q 72 343 72 196 q 113 537 72 453 q 227 667 153 621 q 399 713 301 713 q 550 675 486 713 q 644 569 614 638 l 654 696 l 738 696 m 388 96 q 565 175 500 96 q 631 393 631 254 q 570 576 631 511 q 403 640 510 640 q 224 560 289 640 q 160 340 160 481 q 218 158 160 221 q 388 96 276 96 m 524 1047 q 481 991 494 1018 q 464 931 468 964 l 519 931 l 513 828 l 394 828 l 400 906 q 424 1001 406 960 q 483 1082 443 1043 l 524 1047 z "},"ġ":{"ha":826,"x_min":72,"x_max":738,"o":"m 738 696 l 682 -3 q 369 -310 657 -310 q 97 -233 215 -310 l 121 -160 q 242 -219 186 -203 q 371 -236 297 -236 q 600 -6 581 -236 l 614 153 q 516 56 581 90 q 375 21 451 21 q 154 108 236 21 q 72 343 72 196 q 113 537 72 453 q 227 667 153 621 q 399 713 301 713 q 550 675 486 713 q 644 569 614 638 l 654 696 l 738 696 m 388 96 q 565 175 500 96 q 631 393 631 254 q 570 576 631 511 q 403 640 510 640 q 224 560 289 640 q 160 340 160 481 q 218 158 160 221 q 388 96 276 96 m 521 983 l 513 875 l 400 875 l 408 983 l 521 983 z "},"ḡ":{"ha":826,"x_min":72,"x_max":738,"o":"m 738 696 l 682 -3 q 369 -310 657 -310 q 97 -233 215 -310 l 121 -160 q 242 -219 186 -203 q 371 -236 297 -236 q 600 -6 581 -236 l 614 153 q 516 56 581 90 q 375 21 451 21 q 154 108 236 21 q 72 343 72 196 q 113 537 72 453 q 227 667 153 621 q 399 713 301 713 q 550 675 486 713 q 644 569 614 638 l 654 696 l 738 696 m 388 96 q 565 175 500 96 q 631 393 631 254 q 570 576 631 511 q 403 640 510 640 q 224 560 289 640 q 160 340 160 481 q 218 158 160 221 q 388 96 276 96 m 257 965 l 671 965 l 665 893 l 250 893 l 257 965 z "},"h":{"ha":803,"x_min":88,"x_max":697,"o":"m 457 713 q 635 653 574 713 q 697 478 697 594 q 696 440 697 453 l 661 0 l 578 0 l 613 435 q 614 468 614 446 q 572 597 614 556 q 446 639 531 639 q 276 576 339 639 q 204 403 213 514 l 172 0 l 88 0 l 168 1022 l 253 1022 l 218 585 q 315 680 253 647 q 457 713 378 713 z "},"ħ":{"ha":803,"x_min":15,"x_max":697,"o":"m 457 713 q 635 653 574 713 q 697 478 697 594 q 696 440 697 453 l 661 0 l 578 0 l 613 435 q 614 468 614 446 q 572 597 614 556 q 446 639 531 639 q 276 576 339 639 q 204 403 213 514 l 172 0 l 88 0 l 150 807 l 15 807 l 22 874 l 156 874 l 167 1013 l 251 1013 l 240 874 l 521 874 l 514 807 l 235 807 l 218 585 q 315 680 253 647 q 457 713 378 713 z "},"ḫ":{"ha":803,"x_min":88,"x_max":697,"o":"m 457 713 q 635 653 574 713 q 697 478 697 594 q 696 440 697 453 l 661 0 l 578 0 l 613 435 q 614 468 614 446 q 572 597 614 556 q 446 639 531 639 q 276 576 339 639 q 204 403 213 514 l 172 0 l 88 0 l 168 1022 l 253 1022 l 218 585 q 315 680 253 647 q 457 713 378 713 m 353 -290 q 224 -249 281 -290 q 143 -121 167 -207 l 208 -93 q 358 -221 253 -221 q 450 -192 408 -221 q 525 -93 492 -162 l 589 -119 q 490 -249 551 -208 q 353 -290 428 -290 z "},"ĥ":{"ha":803,"x_min":24,"x_max":697,"o":"m 457 713 q 635 653 574 713 q 697 478 697 594 q 696 440 697 453 l 661 0 l 578 0 l 613 435 q 614 468 614 446 q 572 597 614 556 q 446 639 531 639 q 276 576 339 639 q 204 403 213 514 l 172 0 l 88 0 l 168 1022 l 253 1022 l 218 585 q 315 680 253 647 q 457 713 378 713 m 24 1107 l 201 1317 l 265 1317 l 410 1107 l 325 1107 l 232 1258 l 111 1107 l 24 1107 z "},"ḥ":{"ha":803,"x_min":88,"x_max":697,"o":"m 457 713 q 635 653 574 713 q 697 478 697 594 q 696 440 697 453 l 661 0 l 578 0 l 613 435 q 614 468 614 446 q 572 597 614 556 q 446 639 531 639 q 276 576 339 639 q 204 403 213 514 l 172 0 l 88 0 l 168 1022 l 253 1022 l 218 585 q 315 680 253 647 q 457 713 378 713 m 421 -142 l 411 -250 l 300 -250 l 310 -142 l 421 -142 z "},"i":{"ha":317,"x_min":89,"x_max":264,"o":"m 144 696 l 229 696 l 174 0 l 89 0 l 144 696 m 264 983 l 256 875 l 143 875 l 151 983 l 264 983 z "},"ı":{"ha":317,"x_min":89,"x_max":229,"o":"m 144 696 l 229 696 l 174 0 l 89 0 l 144 696 z "},"í":{"ha":317,"x_min":89,"x_max":433,"o":"m 144 696 l 229 696 l 174 0 l 89 0 l 144 696 m 161 788 l 321 1069 l 433 1069 l 225 788 l 161 788 z "},"ĭ":{"ha":317,"x_min":-14,"x_max":432,"o":"m 144 696 l 229 696 l 174 0 l 89 0 l 144 696 m 197 833 q 67 875 124 833 q -14 1001 11 917 l 53 1029 q 203 901 97 901 q 369 1029 307 901 l 432 1003 q 334 874 396 914 q 197 833 272 833 z "},"î":{"ha":317,"x_min":-1,"x_max":386,"o":"m 144 696 l 229 696 l 174 0 l 89 0 l 144 696 m -1 788 l 182 1069 l 249 1069 l 386 788 l 301 788 l 211 999 l 89 788 l -1 788 z "},"ȉ":{"ha":317,"x_min":0,"x_max":297,"o":"m 144 696 l 229 696 l 174 0 l 89 0 l 144 696 m 0 1069 l 88 1069 l 135 788 l 88 788 l 0 1069 m 164 1069 l 250 1069 l 297 788 l 250 788 l 164 1069 z "},"ï":{"ha":317,"x_min":32,"x_max":378,"o":"m 144 696 l 229 696 l 174 0 l 89 0 l 144 696 m 144 981 l 136 878 l 32 878 l 40 981 l 144 981 m 378 981 l 369 878 l 264 878 l 272 981 l 378 981 z "},"ḯ":{"ha":317,"x_min":32,"x_max":454,"o":"m 144 696 l 229 696 l 174 0 l 89 0 l 144 696 m 144 981 l 136 878 l 32 878 l 40 981 l 144 981 m 378 981 l 369 878 l 264 878 l 272 981 l 378 981 m 182 1060 l 342 1342 l 454 1342 l 246 1060 l 182 1060 z "},"ị":{"ha":317,"x_min":54,"x_max":264,"o":"m 144 696 l 229 696 l 174 0 l 89 0 l 144 696 m 264 983 l 256 875 l 143 875 l 151 983 l 264 983 m 175 -142 l 165 -250 l 54 -250 l 64 -142 l 175 -142 z "},"ì":{"ha":317,"x_min":3,"x_max":229,"o":"m 144 696 l 229 696 l 174 0 l 89 0 l 144 696 m 3 1069 l 104 1069 l 225 788 l 161 788 l 3 1069 z "},"ỉ":{"ha":317,"x_min":89,"x_max":349,"o":"m 144 696 l 229 696 l 174 0 l 89 0 l 144 696 m 228 788 l 164 788 l 167 825 q 185 875 169 854 q 229 921 201 896 q 260 953 251 942 q 269 978 269 964 q 255 1002 269 993 q 213 1011 240 1011 q 125 994 179 1011 l 110 1053 q 222 1075 156 1075 q 314 1051 279 1075 q 349 986 349 1026 q 333 935 349 954 q 286 889 318 915 q 245 851 260 868 q 229 810 231 833 l 228 788 z "},"ȋ":{"ha":317,"x_min":-25,"x_max":421,"o":"m 144 696 l 229 696 l 174 0 l 89 0 l 144 696 m 211 1028 q 341 986 285 1028 q 421 858 397 944 l 356 831 q 294 930 332 900 q 207 960 257 960 q 114 931 156 960 q 39 831 72 901 l -25 857 q 74 988 13 947 q 211 1028 136 1028 z "},"ī":{"ha":317,"x_min":-7,"x_max":414,"o":"m 144 696 l 229 696 l 174 0 l 89 0 l 144 696 m 0 965 l 414 965 l 408 893 l -7 893 l 0 965 z "},"į":{"ha":315,"x_min":-50,"x_max":264,"o":"m 264 989 l 256 881 l 143 881 l 153 989 l 264 989 m 167 0 q 59 -34 93 0 q 25 -119 25 -68 q 49 -188 25 -165 q 115 -211 72 -211 q 203 -182 158 -211 l 221 -243 q 167 -265 199 -257 q 104 -274 136 -274 q -8 -235 33 -274 q -50 -132 -50 -197 q -14 -22 -50 -69 q 92 46 22 25 l 143 696 l 228 696 l 172 0 l 167 0 z "},"ĩ":{"ha":317,"x_min":-22,"x_max":431,"o":"m 144 696 l 229 696 l 174 0 l 89 0 l 144 696 m -22 858 q 15 968 -19 931 q 106 1006 50 1006 q 161 994 135 1006 q 222 960 188 982 q 268 933 249 942 q 304 924 288 924 q 355 945 336 924 q 376 1001 374 967 l 431 1001 q 392 892 426 929 q 303 854 357 854 q 249 865 274 854 q 186 900 224 876 q 106 936 135 936 q 55 915 74 936 q 33 858 36 893 l -22 858 z "},"j":{"ha":317,"x_min":-124,"x_max":264,"o":"m -118 -218 q -51 -229 -81 -229 q 40 -197 6 -229 q 82 -82 75 -165 l 143 696 l 226 696 l 164 -99 q 101 -253 156 -201 q -40 -304 47 -304 q -124 -293 -79 -304 l -118 -218 m 264 983 l 256 875 l 143 875 l 151 983 l 264 983 z "},"ȷ":{"ha":317,"x_min":-124,"x_max":226,"o":"m -118 -218 q -51 -229 -81 -229 q 40 -197 6 -229 q 82 -82 75 -165 l 143 696 l 226 696 l 164 -99 q 101 -253 156 -201 q -40 -304 47 -304 q -124 -293 -79 -304 l -118 -218 z "},"ĵ":{"ha":317,"x_min":-124,"x_max":386,"o":"m -118 -218 q -51 -229 -81 -229 q 40 -197 6 -229 q 82 -82 75 -165 l 143 696 l 226 696 l 164 -99 q 101 -253 156 -201 q -40 -304 47 -304 q -124 -293 -79 -304 l -118 -218 m -1 788 l 182 1069 l 249 1069 l 386 788 l 301 788 l 211 999 l 89 788 l -1 788 z "},"k":{"ha":692,"x_min":88,"x_max":686,"o":"m 296 360 l 668 0 l 560 0 l 199 346 l 171 0 l 88 0 l 168 1022 l 251 1022 l 200 372 l 572 696 l 686 696 l 296 360 z "},"ķ":{"ha":692,"x_min":88,"x_max":686,"o":"m 296 360 l 668 0 l 560 0 l 199 346 l 171 0 l 88 0 l 168 1022 l 251 1022 l 200 372 l 572 696 l 686 696 l 296 360 m 369 -104 l 364 -182 q 340 -278 358 -236 q 281 -358 321 -319 l 240 -324 q 283 -267 269 -294 q 299 -207 296 -240 l 244 -207 l 251 -104 l 369 -104 z "},"ĸ":{"ha":692,"x_min":88,"x_max":686,"o":"m 296 360 l 668 0 l 560 0 l 199 344 l 172 0 l 88 0 l 142 696 l 226 696 l 201 372 l 572 696 l 686 696 l 296 360 z "},"l":{"ha":317,"x_min":88,"x_max":254,"o":"m 169 1022 l 254 1022 l 172 0 l 88 0 l 169 1022 z "},"ĺ":{"ha":317,"x_min":88,"x_max":451,"o":"m 169 1022 l 254 1022 l 172 0 l 88 0 l 169 1022 m 186 1107 l 340 1317 l 451 1317 l 250 1107 l 186 1107 z "},"ľ":{"ha":317,"x_min":88,"x_max":393,"o":"m 169 1022 l 254 1022 l 172 0 l 88 0 l 169 1022 m 288 751 l 307 1022 l 393 1022 l 336 751 l 288 751 z "},"ļ":{"ha":317,"x_min":53,"x_max":254,"o":"m 169 1022 l 254 1022 l 172 0 l 88 0 l 169 1022 m 182 -104 l 176 -182 q 152 -278 171 -236 q 93 -358 133 -319 l 53 -324 q 95 -267 82 -294 q 111 -207 108 -240 l 57 -207 l 64 -104 l 182 -104 z "},"ŀ":{"ha":326,"x_min":88,"x_max":378,"o":"m 169 1022 l 254 1022 l 172 0 l 88 0 l 169 1022 m 378 554 l 369 442 l 250 442 l 258 554 l 378 554 z "},"ḷ":{"ha":317,"x_min":56,"x_max":254,"o":"m 169 1022 l 254 1022 l 172 0 l 88 0 l 169 1022 m 176 -142 l 167 -250 l 56 -250 l 65 -142 l 176 -142 z "},"ǉ":{"ha":633,"x_min":88,"x_max":581,"o":"m 169 1022 l 254 1022 l 172 0 l 88 0 l 169 1022 m 199 -218 q 265 -229 236 -229 q 357 -197 322 -229 q 399 -82 392 -165 l 460 696 l 543 696 l 481 -99 q 418 -253 472 -201 q 276 -304 364 -304 q 193 -293 238 -304 l 199 -218 m 581 983 l 572 875 l 460 875 l 468 983 l 581 983 z "},"ḻ":{"ha":317,"x_min":-94,"x_max":326,"o":"m 169 1022 l 254 1022 l 172 0 l 88 0 l 169 1022 m -89 -160 l 326 -160 l 321 -232 l -94 -232 l -89 -160 z "},"ł":{"ha":374,"x_min":0,"x_max":399,"o":"m 239 493 l 200 0 l 118 0 l 153 446 l 33 381 l 0 442 l 160 531 l 199 1021 l 281 1021 l 246 578 l 365 644 l 399 581 l 239 493 z "},"m":{"ha":1207,"x_min":88,"x_max":1103,"o":"m 885 713 q 1047 655 992 713 q 1103 485 1103 597 q 1101 440 1103 456 l 1067 0 l 985 0 l 1018 435 q 1019 476 1019 450 q 983 599 1019 560 q 871 639 947 639 q 717 577 774 639 q 651 401 660 515 l 619 0 l 536 0 l 571 435 q 572 472 572 449 q 535 598 572 557 q 424 639 499 639 q 269 577 326 639 q 204 401 213 515 l 172 0 l 88 0 l 128 503 q 133 642 133 592 q 132 696 133 678 l 211 696 l 213 578 q 302 678 244 644 q 438 713 360 713 q 646 581 604 713 q 742 678 681 644 q 885 713 804 713 z "},"ṃ":{"ha":1207,"x_min":88,"x_max":1103,"o":"m 885 713 q 1047 655 992 713 q 1103 485 1103 597 q 1101 440 1103 456 l 1067 0 l 985 0 l 1018 435 q 1019 476 1019 450 q 983 599 1019 560 q 871 639 947 639 q 717 577 774 639 q 651 401 660 515 l 619 0 l 536 0 l 571 435 q 572 472 572 449 q 535 598 572 557 q 424 639 499 639 q 269 577 326 639 q 204 401 213 515 l 172 0 l 88 0 l 128 503 q 133 642 133 592 q 132 696 133 678 l 211 696 l 213 578 q 302 678 244 644 q 438 713 360 713 q 646 581 604 713 q 742 678 681 644 q 885 713 804 713 m 625 -142 l 615 -250 l 504 -250 l 514 -142 l 625 -142 z "},"n":{"ha":803,"x_min":88,"x_max":697,"o":"m 457 713 q 635 653 574 713 q 697 478 697 594 q 696 440 697 453 l 661 0 l 578 0 l 613 435 q 614 468 614 446 q 572 597 614 556 q 446 639 531 639 q 276 576 339 639 q 204 403 213 514 l 172 0 l 88 0 l 128 503 q 133 632 133 560 q 132 696 133 675 l 211 696 l 213 575 q 311 677 247 642 q 457 713 375 713 z "},"ń":{"ha":803,"x_min":88,"x_max":697,"o":"m 457 713 q 635 653 574 713 q 697 478 697 594 q 696 440 697 453 l 661 0 l 578 0 l 613 435 q 614 468 614 446 q 572 597 614 556 q 446 639 531 639 q 276 576 339 639 q 204 403 213 514 l 172 0 l 88 0 l 128 503 q 133 632 133 560 q 132 696 133 675 l 211 696 l 213 575 q 311 677 247 642 q 457 713 375 713 m 404 788 l 564 1069 l 676 1069 l 468 788 l 404 788 z "},"ŉ":{"ha":803,"x_min":88,"x_max":697,"o":"m 321 1056 l 315 976 q 292 881 311 924 q 233 801 274 839 l 192 835 q 235 892 222 864 q 251 951 249 919 l 196 951 l 204 1056 l 321 1056 m 457 713 q 635 653 574 713 q 697 478 697 594 q 696 440 697 453 l 661 0 l 578 0 l 613 435 q 614 468 614 446 q 572 597 614 556 q 446 639 531 639 q 276 576 339 639 q 204 403 213 514 l 172 0 l 88 0 l 128 503 q 133 632 133 560 q 132 696 133 675 l 211 696 l 213 575 q 311 677 247 642 q 457 713 375 713 z "},"ň":{"ha":803,"x_min":88,"x_max":697,"o":"m 457 713 q 635 653 574 713 q 697 478 697 594 q 696 440 697 453 l 661 0 l 578 0 l 613 435 q 614 468 614 446 q 572 597 614 556 q 446 639 531 639 q 276 576 339 639 q 204 403 213 514 l 172 0 l 88 0 l 128 503 q 133 632 133 560 q 132 696 133 675 l 211 696 l 213 575 q 311 677 247 642 q 457 713 375 713 m 651 1069 l 469 788 l 403 788 l 265 1069 l 350 1069 l 440 857 l 564 1069 l 651 1069 z "},"ņ":{"ha":803,"x_min":88,"x_max":697,"o":"m 457 713 q 635 653 574 713 q 697 478 697 594 q 696 440 697 453 l 661 0 l 578 0 l 613 435 q 614 468 614 446 q 572 597 614 556 q 446 639 531 639 q 276 576 339 639 q 204 403 213 514 l 172 0 l 88 0 l 128 503 q 133 632 133 560 q 132 696 133 675 l 211 696 l 213 575 q 311 677 247 642 q 457 713 375 713 m 426 -104 l 421 -182 q 397 -278 415 -236 q 338 -358 378 -319 l 297 -324 q 340 -267 326 -294 q 356 -207 353 -240 l 301 -207 l 308 -104 l 426 -104 z "},"ṅ":{"ha":803,"x_min":88,"x_max":697,"o":"m 457 713 q 635 653 574 713 q 697 478 697 594 q 696 440 697 453 l 661 0 l 578 0 l 613 435 q 614 468 614 446 q 572 597 614 556 q 446 639 531 639 q 276 576 339 639 q 204 403 213 514 l 172 0 l 88 0 l 128 503 q 133 632 133 560 q 132 696 133 675 l 211 696 l 213 575 q 311 677 247 642 q 457 713 375 713 m 507 983 l 499 875 l 386 875 l 394 983 l 507 983 z "},"ṇ":{"ha":803,"x_min":88,"x_max":697,"o":"m 457 713 q 635 653 574 713 q 697 478 697 594 q 696 440 697 453 l 661 0 l 578 0 l 613 435 q 614 468 614 446 q 572 597 614 556 q 446 639 531 639 q 276 576 339 639 q 204 403 213 514 l 172 0 l 88 0 l 128 503 q 133 632 133 560 q 132 696 133 675 l 211 696 l 213 575 q 311 677 247 642 q 457 713 375 713 m 421 -142 l 411 -250 l 300 -250 l 310 -142 l 421 -142 z "},"ŋ":{"ha":803,"x_min":88,"x_max":697,"o":"m 457 713 q 635 653 574 713 q 697 478 697 594 q 696 440 697 453 l 658 -57 q 596 -211 651 -160 q 453 -262 540 -262 q 372 -251 414 -262 l 378 -176 q 443 -187 413 -187 q 536 -156 501 -187 q 576 -40 571 -124 l 613 435 q 614 468 614 446 q 572 597 614 556 q 446 639 531 639 q 276 576 339 639 q 204 403 213 514 l 172 0 l 88 0 l 128 503 q 133 632 133 560 q 132 696 133 675 l 211 696 l 213 575 q 311 677 247 642 q 457 713 375 713 z "},"ǌ":{"ha":1119,"x_min":88,"x_max":1067,"o":"m 457 713 q 635 653 574 713 q 697 478 697 594 q 696 440 697 453 l 661 0 l 578 0 l 613 435 q 614 468 614 446 q 572 597 614 556 q 446 639 531 639 q 276 576 339 639 q 204 403 213 514 l 172 0 l 88 0 l 128 503 q 133 632 133 560 q 132 696 133 675 l 211 696 l 213 575 q 311 677 247 642 q 457 713 375 713 m 685 -218 q 751 -229 722 -229 q 843 -197 808 -229 q 885 -82 878 -165 l 946 696 l 1029 696 l 967 -99 q 904 -253 958 -201 q 763 -304 850 -304 q 679 -293 724 -304 l 685 -218 m 1067 983 l 1058 875 l 946 875 l 954 983 l 1067 983 z "},"ṉ":{"ha":803,"x_min":88,"x_max":697,"o":"m 457 713 q 635 653 574 713 q 697 478 697 594 q 696 440 697 453 l 661 0 l 578 0 l 613 435 q 614 468 614 446 q 572 597 614 556 q 446 639 531 639 q 276 576 339 639 q 204 403 213 514 l 172 0 l 88 0 l 128 503 q 133 632 133 560 q 132 696 133 675 l 211 696 l 213 575 q 311 677 247 642 q 457 713 375 713 m 156 -160 l 571 -160 l 565 -232 l 150 -232 l 156 -160 z "},"ñ":{"ha":803,"x_min":88,"x_max":697,"o":"m 457 713 q 635 653 574 713 q 697 478 697 594 q 696 440 697 453 l 661 0 l 578 0 l 613 435 q 614 468 614 446 q 572 597 614 556 q 446 639 531 639 q 276 576 339 639 q 204 403 213 514 l 172 0 l 88 0 l 128 503 q 133 632 133 560 q 132 696 133 675 l 211 696 l 213 575 q 311 677 247 642 q 457 713 375 713 m 221 858 q 258 968 224 931 q 349 1006 293 1006 q 404 994 378 1006 q 465 960 431 982 q 511 933 492 942 q 547 924 531 924 q 598 945 579 924 q 619 1001 617 967 l 674 1001 q 635 892 669 929 q 546 854 600 854 q 492 865 517 854 q 429 900 467 876 q 349 936 378 936 q 298 915 317 936 q 276 858 279 893 l 221 858 z "},"o":{"ha":781,"x_min":71,"x_max":710,"o":"m 381 -10 q 217 32 288 -10 q 109 149 147 74 q 71 326 71 225 q 112 529 71 442 q 228 665 153 617 q 400 713 303 713 q 563 671 493 713 q 672 553 633 629 q 710 376 710 478 q 669 174 710 261 q 553 38 628 86 q 381 -10 478 -10 m 386 64 q 560 149 497 64 q 624 381 624 233 q 564 572 624 503 q 400 640 504 640 q 223 555 288 640 q 158 322 158 469 q 217 130 158 196 q 386 64 275 64 z "},"ó":{"ha":781,"x_min":71,"x_max":710,"o":"m 381 -10 q 217 32 288 -10 q 109 149 147 74 q 71 326 71 225 q 112 529 71 442 q 228 665 153 617 q 400 713 303 713 q 563 671 493 713 q 672 553 633 629 q 710 376 710 478 q 669 174 710 261 q 553 38 628 86 q 381 -10 478 -10 m 386 64 q 560 149 497 64 q 624 381 624 233 q 564 572 624 503 q 400 640 504 640 q 223 555 288 640 q 158 322 158 469 q 217 130 158 196 q 386 64 275 64 m 394 788 l 554 1069 l 667 1069 l 458 788 l 394 788 z "},"ŏ":{"ha":781,"x_min":71,"x_max":710,"o":"m 381 -10 q 217 32 288 -10 q 109 149 147 74 q 71 326 71 225 q 112 529 71 442 q 228 665 153 617 q 400 713 303 713 q 563 671 493 713 q 672 553 633 629 q 710 376 710 478 q 669 174 710 261 q 553 38 628 86 q 381 -10 478 -10 m 386 64 q 560 149 497 64 q 624 381 624 233 q 564 572 624 503 q 400 640 504 640 q 223 555 288 640 q 158 322 158 469 q 217 130 158 196 q 386 64 275 64 m 431 833 q 301 875 357 833 q 219 1001 244 917 l 286 1029 q 436 901 331 901 q 603 1029 540 901 l 665 1003 q 567 874 629 914 q 431 833 506 833 z "},"ô":{"ha":781,"x_min":71,"x_max":710,"o":"m 381 -10 q 217 32 288 -10 q 109 149 147 74 q 71 326 71 225 q 112 529 71 442 q 228 665 153 617 q 400 713 303 713 q 563 671 493 713 q 672 553 633 629 q 710 376 710 478 q 669 174 710 261 q 553 38 628 86 q 381 -10 478 -10 m 386 64 q 560 149 497 64 q 624 381 624 233 q 564 572 624 503 q 400 640 504 640 q 223 555 288 640 q 158 322 158 469 q 217 130 158 196 q 386 64 275 64 m 232 788 l 415 1069 l 482 1069 l 619 788 l 535 788 l 444 999 l 322 788 l 232 788 z "},"ố":{"ha":781,"x_min":71,"x_max":808,"o":"m 381 -10 q 217 32 288 -10 q 109 149 147 74 q 71 326 71 225 q 112 529 71 442 q 228 665 153 617 q 400 713 303 713 q 563 671 493 713 q 672 553 633 629 q 710 376 710 478 q 669 174 710 261 q 553 38 628 86 q 381 -10 478 -10 m 386 64 q 560 149 497 64 q 624 381 624 233 q 564 572 624 503 q 400 640 504 640 q 223 555 288 640 q 158 322 158 469 q 217 130 158 196 q 386 64 275 64 m 553 931 l 701 1129 l 808 1129 l 611 931 l 553 931 m 232 788 l 411 997 l 475 997 l 619 788 l 535 788 l 442 938 l 321 788 l 232 788 z "},"ộ":{"ha":781,"x_min":71,"x_max":710,"o":"m 381 -10 q 217 32 288 -10 q 109 149 147 74 q 71 326 71 225 q 112 529 71 442 q 228 665 153 617 q 400 713 303 713 q 563 671 493 713 q 672 553 633 629 q 710 376 710 478 q 669 174 710 261 q 553 38 628 86 q 381 -10 478 -10 m 386 64 q 560 149 497 64 q 624 381 624 233 q 564 572 624 503 q 400 640 504 640 q 223 555 288 640 q 158 322 158 469 q 217 130 158 196 q 386 64 275 64 m 410 -142 l 400 -250 l 289 -250 l 299 -142 l 410 -142 m 232 788 l 415 1069 l 482 1069 l 619 788 l 535 788 l 444 999 l 322 788 l 232 788 z "},"ồ":{"ha":781,"x_min":71,"x_max":710,"o":"m 381 -10 q 217 32 288 -10 q 109 149 147 74 q 71 326 71 225 q 112 529 71 442 q 228 665 153 617 q 400 713 303 713 q 563 671 493 713 q 672 553 633 629 q 710 376 710 478 q 669 174 710 261 q 553 38 628 86 q 381 -10 478 -10 m 386 64 q 560 149 497 64 q 624 381 624 233 q 564 572 624 503 q 400 640 504 640 q 223 555 288 640 q 158 322 158 469 q 217 130 158 196 q 386 64 275 64 m 478 1129 l 575 1129 l 671 931 l 613 931 l 478 1129 m 411 997 l 475 997 l 619 788 l 535 788 l 442 938 l 321 788 l 232 788 l 411 997 z "},"ổ":{"ha":781,"x_min":71,"x_max":735,"o":"m 381 -10 q 217 32 288 -10 q 109 149 147 74 q 71 326 71 225 q 112 529 71 442 q 228 665 153 617 q 400 713 303 713 q 563 671 493 713 q 672 553 633 629 q 710 376 710 478 q 669 174 710 261 q 553 38 628 86 q 381 -10 478 -10 m 386 64 q 560 149 497 64 q 624 381 624 233 q 564 572 624 503 q 400 640 504 640 q 223 555 288 640 q 158 322 158 469 q 217 130 158 196 q 386 64 275 64 m 553 953 q 571 991 554 978 q 617 1015 588 1004 q 646 1031 636 1024 q 656 1047 656 1038 q 640 1066 656 1058 q 600 1074 624 1074 q 508 1056 558 1074 l 494 1114 q 606 1136 544 1136 q 700 1114 665 1136 q 735 1056 735 1092 q 717 1011 735 1026 q 667 982 699 996 q 632 965 644 974 q 618 943 619 957 l 617 931 l 551 931 l 553 953 m 411 997 l 475 997 l 619 788 l 535 788 l 442 938 l 321 788 l 232 788 l 411 997 z "},"ỗ":{"ha":781,"x_min":71,"x_max":710,"o":"m 381 -10 q 217 32 288 -10 q 109 149 147 74 q 71 326 71 225 q 112 529 71 442 q 228 665 153 617 q 400 713 303 713 q 563 671 493 713 q 672 553 633 629 q 710 376 710 478 q 669 174 710 261 q 553 38 628 86 q 381 -10 478 -10 m 386 64 q 560 149 497 64 q 624 381 624 233 q 564 572 624 503 q 400 640 504 640 q 223 555 288 640 q 158 322 158 469 q 217 130 158 196 q 386 64 275 64 m 224 1017 q 262 1115 226 1079 q 351 1151 297 1151 q 406 1142 381 1151 q 469 1115 432 1133 q 550 1088 522 1088 q 600 1108 581 1088 q 621 1156 619 1128 l 676 1156 q 638 1056 674 1093 q 549 1019 603 1019 q 492 1029 519 1019 q 431 1057 465 1039 q 388 1076 410 1068 q 350 1085 367 1085 q 300 1065 319 1085 q 279 1017 281 1044 l 224 1017 m 411 997 l 475 997 l 619 788 l 535 788 l 442 938 l 321 788 l 232 788 l 411 997 z "},"ȍ":{"ha":781,"x_min":71,"x_max":710,"o":"m 381 -10 q 217 32 288 -10 q 109 149 147 74 q 71 326 71 225 q 112 529 71 442 q 228 665 153 617 q 400 713 303 713 q 563 671 493 713 q 672 553 633 629 q 710 376 710 478 q 669 174 710 261 q 553 38 628 86 q 381 -10 478 -10 m 386 64 q 560 149 497 64 q 624 381 624 233 q 564 572 624 503 q 400 640 504 640 q 223 555 288 640 q 158 322 158 469 q 217 130 158 196 q 386 64 275 64 m 233 1069 l 321 1069 l 368 788 l 321 788 l 233 1069 m 397 1069 l 483 1069 l 531 788 l 483 788 l 397 1069 z "},"ö":{"ha":781,"x_min":71,"x_max":710,"o":"m 381 -10 q 217 32 288 -10 q 109 149 147 74 q 71 326 71 225 q 112 529 71 442 q 228 665 153 617 q 400 713 303 713 q 563 671 493 713 q 672 553 633 629 q 710 376 710 478 q 669 174 710 261 q 553 38 628 86 q 381 -10 478 -10 m 386 64 q 560 149 497 64 q 624 381 624 233 q 564 572 624 503 q 400 640 504 640 q 223 555 288 640 q 158 322 158 469 q 217 130 158 196 q 386 64 275 64 m 378 981 l 369 878 l 265 878 l 274 981 l 378 981 m 611 981 l 603 878 l 497 878 l 506 981 l 611 981 z "},"ȫ":{"ha":781,"x_min":71,"x_max":710,"o":"m 381 -10 q 217 32 288 -10 q 109 149 147 74 q 71 326 71 225 q 112 529 71 442 q 228 665 153 617 q 400 713 303 713 q 563 671 493 713 q 672 553 633 629 q 710 376 710 478 q 669 174 710 261 q 553 38 628 86 q 381 -10 478 -10 m 386 64 q 560 149 497 64 q 624 381 624 233 q 564 572 624 503 q 400 640 504 640 q 223 555 288 640 q 158 322 158 469 q 217 130 158 196 q 386 64 275 64 m 378 981 l 369 878 l 265 878 l 274 981 l 378 981 m 611 981 l 603 878 l 497 878 l 506 981 l 611 981 m 254 1238 l 668 1238 l 663 1165 l 247 1165 l 254 1238 z "},"ȱ":{"ha":781,"x_min":71,"x_max":710,"o":"m 381 -10 q 217 32 288 -10 q 109 149 147 74 q 71 326 71 225 q 112 529 71 442 q 228 665 153 617 q 400 713 303 713 q 563 671 493 713 q 672 553 633 629 q 710 376 710 478 q 669 174 710 261 q 553 38 628 86 q 381 -10 478 -10 m 386 64 q 560 149 497 64 q 624 381 624 233 q 564 572 624 503 q 400 640 504 640 q 223 555 288 640 q 158 322 158 469 q 217 130 158 196 q 386 64 275 64 m 497 983 l 489 875 l 376 875 l 385 983 l 497 983 m 254 1238 l 668 1238 l 663 1165 l 247 1165 l 254 1238 z "},"ọ":{"ha":781,"x_min":71,"x_max":710,"o":"m 381 -10 q 217 32 288 -10 q 109 149 147 74 q 71 326 71 225 q 112 529 71 442 q 228 665 153 617 q 400 713 303 713 q 563 671 493 713 q 672 553 633 629 q 710 376 710 478 q 669 174 710 261 q 553 38 628 86 q 381 -10 478 -10 m 386 64 q 560 149 497 64 q 624 381 624 233 q 564 572 624 503 q 400 640 504 640 q 223 555 288 640 q 158 322 158 469 q 217 130 158 196 q 386 64 275 64 m 410 -142 l 400 -250 l 289 -250 l 299 -142 l 410 -142 z "},"ò":{"ha":781,"x_min":71,"x_max":710,"o":"m 381 -10 q 217 32 288 -10 q 109 149 147 74 q 71 326 71 225 q 112 529 71 442 q 228 665 153 617 q 400 713 303 713 q 563 671 493 713 q 672 553 633 629 q 710 376 710 478 q 669 174 710 261 q 553 38 628 86 q 381 -10 478 -10 m 386 64 q 560 149 497 64 q 624 381 624 233 q 564 572 624 503 q 400 640 504 640 q 223 555 288 640 q 158 322 158 469 q 217 130 158 196 q 386 64 275 64 m 236 1069 l 338 1069 l 458 788 l 394 788 l 236 1069 z "},"ỏ":{"ha":781,"x_min":71,"x_max":710,"o":"m 381 -10 q 217 32 288 -10 q 109 149 147 74 q 71 326 71 225 q 112 529 71 442 q 228 665 153 617 q 400 713 303 713 q 563 671 493 713 q 672 553 633 629 q 710 376 710 478 q 669 174 710 261 q 553 38 628 86 q 381 -10 478 -10 m 386 64 q 560 149 497 64 q 624 381 624 233 q 564 572 624 503 q 400 640 504 640 q 223 555 288 640 q 158 322 158 469 q 217 130 158 196 q 386 64 275 64 m 461 788 l 397 788 l 400 825 q 419 875 403 854 q 463 921 435 896 q 494 953 485 942 q 503 978 503 964 q 488 1002 503 993 q 446 1011 474 1011 q 358 994 413 1011 l 343 1053 q 456 1075 389 1075 q 547 1051 513 1075 q 582 986 582 1026 q 567 935 582 954 q 519 889 551 915 q 478 851 493 868 q 463 810 464 833 l 461 788 z "},"ơ":{"ha":781,"x_min":71,"x_max":746,"o":"m 744 851 q 699 721 738 772 q 592 651 661 669 q 680 534 650 607 q 710 376 710 461 q 669 174 710 261 q 553 38 628 86 q 381 -10 478 -10 q 217 32 288 -10 q 109 149 147 74 q 71 326 71 225 q 112 529 71 442 q 228 665 153 617 q 401 713 303 713 q 482 707 440 713 q 518 704 510 704 q 626 742 590 704 q 668 865 663 779 l 669 883 l 746 883 l 744 851 m 624 381 q 564 572 624 503 q 400 640 504 640 q 223 555 288 640 q 158 322 158 469 q 217 130 158 196 q 386 64 275 64 q 560 149 497 64 q 624 381 624 233 z "},"ớ":{"ha":781,"x_min":71,"x_max":746,"o":"m 744 851 q 699 721 738 772 q 592 651 661 669 q 680 534 650 607 q 710 376 710 461 q 669 174 710 261 q 553 38 628 86 q 381 -10 478 -10 q 217 32 288 -10 q 109 149 147 74 q 71 326 71 225 q 112 529 71 442 q 228 665 153 617 q 401 713 303 713 q 482 707 440 713 q 518 704 510 704 q 626 742 590 704 q 668 865 663 779 l 669 883 l 746 883 l 744 851 m 624 381 q 564 572 624 503 q 400 640 504 640 q 223 555 288 640 q 158 322 158 469 q 217 130 158 196 q 386 64 275 64 q 560 149 497 64 q 624 381 624 233 m 394 788 l 554 1069 l 667 1069 l 458 788 l 394 788 z "},"ợ":{"ha":781,"x_min":71,"x_max":746,"o":"m 744 851 q 699 721 738 772 q 592 651 661 669 q 680 534 650 607 q 710 376 710 461 q 669 174 710 261 q 553 38 628 86 q 381 -10 478 -10 q 217 32 288 -10 q 109 149 147 74 q 71 326 71 225 q 112 529 71 442 q 228 665 153 617 q 401 713 303 713 q 482 707 440 713 q 518 704 510 704 q 626 742 590 704 q 668 865 663 779 l 669 883 l 746 883 l 744 851 m 624 381 q 564 572 624 503 q 400 640 504 640 q 223 555 288 640 q 158 322 158 469 q 217 130 158 196 q 386 64 275 64 q 560 149 497 64 q 624 381 624 233 m 410 -142 l 400 -250 l 289 -250 l 299 -142 l 410 -142 z "},"ờ":{"ha":781,"x_min":71,"x_max":746,"o":"m 744 851 q 699 721 738 772 q 592 651 661 669 q 680 534 650 607 q 710 376 710 461 q 669 174 710 261 q 553 38 628 86 q 381 -10 478 -10 q 217 32 288 -10 q 109 149 147 74 q 71 326 71 225 q 112 529 71 442 q 228 665 153 617 q 401 713 303 713 q 482 707 440 713 q 518 704 510 704 q 626 742 590 704 q 668 865 663 779 l 669 883 l 746 883 l 744 851 m 624 381 q 564 572 624 503 q 400 640 504 640 q 223 555 288 640 q 158 322 158 469 q 217 130 158 196 q 386 64 275 64 q 560 149 497 64 q 624 381 624 233 m 236 1069 l 338 1069 l 458 788 l 394 788 l 236 1069 z "},"ở":{"ha":781,"x_min":71,"x_max":746,"o":"m 744 851 q 699 721 738 772 q 592 651 661 669 q 680 534 650 607 q 710 376 710 461 q 669 174 710 261 q 553 38 628 86 q 381 -10 478 -10 q 217 32 288 -10 q 109 149 147 74 q 71 326 71 225 q 112 529 71 442 q 228 665 153 617 q 401 713 303 713 q 482 707 440 713 q 518 704 510 704 q 626 742 590 704 q 668 865 663 779 l 669 883 l 746 883 l 744 851 m 624 381 q 564 572 624 503 q 400 640 504 640 q 223 555 288 640 q 158 322 158 469 q 217 130 158 196 q 386 64 275 64 q 560 149 497 64 q 624 381 624 233 m 461 788 l 397 788 l 400 825 q 419 875 403 854 q 463 921 435 896 q 494 953 485 942 q 503 978 503 964 q 488 1002 503 993 q 446 1011 474 1011 q 358 994 413 1011 l 343 1053 q 456 1075 389 1075 q 547 1051 513 1075 q 582 986 582 1026 q 567 935 582 954 q 519 889 551 915 q 478 851 493 868 q 463 810 464 833 l 461 788 z "},"ỡ":{"ha":781,"x_min":71,"x_max":746,"o":"m 744 851 q 699 721 738 772 q 592 651 661 669 q 680 534 650 607 q 710 376 710 461 q 669 174 710 261 q 553 38 628 86 q 381 -10 478 -10 q 217 32 288 -10 q 109 149 147 74 q 71 326 71 225 q 112 529 71 442 q 228 665 153 617 q 401 713 303 713 q 482 707 440 713 q 518 704 510 704 q 626 742 590 704 q 668 865 663 779 l 669 883 l 746 883 l 744 851 m 624 381 q 564 572 624 503 q 400 640 504 640 q 223 555 288 640 q 158 322 158 469 q 217 130 158 196 q 386 64 275 64 q 560 149 497 64 q 624 381 624 233 m 211 858 q 249 968 214 931 q 339 1006 283 1006 q 394 994 368 1006 q 456 960 421 982 q 501 933 482 942 q 538 924 521 924 q 588 945 569 924 q 610 1001 607 967 l 664 1001 q 625 892 660 929 q 536 854 590 854 q 482 865 507 854 q 419 900 457 876 q 339 936 368 936 q 288 915 307 936 q 267 858 269 893 l 211 858 z "},"ő":{"ha":781,"x_min":71,"x_max":710,"o":"m 381 -10 q 217 32 288 -10 q 109 149 147 74 q 71 326 71 225 q 112 529 71 442 q 228 665 153 617 q 400 713 303 713 q 563 671 493 713 q 672 553 633 629 q 710 376 710 478 q 669 174 710 261 q 553 38 628 86 q 381 -10 478 -10 m 386 64 q 560 149 497 64 q 624 381 624 233 q 564 572 624 503 q 400 640 504 640 q 223 555 288 640 q 158 322 158 469 q 217 130 158 196 q 386 64 275 64 m 321 788 l 411 1069 l 503 1069 l 368 788 l 321 788 m 483 788 l 574 1069 l 665 1069 l 531 788 l 483 788 z "},"ȏ":{"ha":781,"x_min":71,"x_max":710,"o":"m 381 -10 q 217 32 288 -10 q 109 149 147 74 q 71 326 71 225 q 112 529 71 442 q 228 665 153 617 q 400 713 303 713 q 563 671 493 713 q 672 553 633 629 q 710 376 710 478 q 669 174 710 261 q 553 38 628 86 q 381 -10 478 -10 m 386 64 q 560 149 497 64 q 624 381 624 233 q 564 572 624 503 q 400 640 504 640 q 223 555 288 640 q 158 322 158 469 q 217 130 158 196 q 386 64 275 64 m 444 1028 q 574 986 518 1028 q 654 858 631 944 l 589 831 q 528 930 565 900 q 440 960 490 960 q 347 931 389 960 q 272 831 306 901 l 208 857 q 308 988 246 947 q 444 1028 369 1028 z "},"ō":{"ha":781,"x_min":71,"x_max":710,"o":"m 381 -10 q 217 32 288 -10 q 109 149 147 74 q 71 326 71 225 q 112 529 71 442 q 228 665 153 617 q 400 713 303 713 q 563 671 493 713 q 672 553 633 629 q 710 376 710 478 q 669 174 710 261 q 553 38 628 86 q 381 -10 478 -10 m 386 64 q 560 149 497 64 q 624 381 624 233 q 564 572 624 503 q 400 640 504 640 q 223 555 288 640 q 158 322 158 469 q 217 130 158 196 q 386 64 275 64 m 233 965 l 647 965 l 642 893 l 226 893 l 233 965 z "},"ṓ":{"ha":781,"x_min":71,"x_max":710,"o":"m 381 -10 q 217 32 288 -10 q 109 149 147 74 q 71 326 71 225 q 112 529 71 442 q 228 665 153 617 q 400 713 303 713 q 563 671 493 713 q 672 553 633 629 q 710 376 710 478 q 669 174 710 261 q 553 38 628 86 q 381 -10 478 -10 m 386 64 q 560 149 497 64 q 624 381 624 233 q 564 572 624 503 q 400 640 504 640 q 223 555 288 640 q 158 322 158 469 q 217 130 158 196 q 386 64 275 64 m 233 965 l 647 965 l 642 893 l 226 893 l 233 965 m 415 1060 l 575 1342 l 688 1342 l 479 1060 l 415 1060 z "},"ṑ":{"ha":781,"x_min":71,"x_max":710,"o":"m 381 -10 q 217 32 288 -10 q 109 149 147 74 q 71 326 71 225 q 112 529 71 442 q 228 665 153 617 q 400 713 303 713 q 563 671 493 713 q 672 553 633 629 q 710 376 710 478 q 669 174 710 261 q 553 38 628 86 q 381 -10 478 -10 m 386 64 q 560 149 497 64 q 624 381 624 233 q 564 572 624 503 q 400 640 504 640 q 223 555 288 640 q 158 322 158 469 q 217 130 158 196 q 386 64 275 64 m 233 965 l 647 965 l 642 893 l 226 893 l 233 965 m 257 1342 l 358 1342 l 479 1060 l 415 1060 l 257 1342 z "},"ǫ":{"ha":781,"x_min":71,"x_max":710,"o":"m 481 6 q 376 -46 408 -17 q 344 -122 344 -75 q 367 -188 344 -165 q 432 -211 390 -211 q 519 -182 475 -211 l 538 -243 q 487 -265 518 -256 q 424 -274 456 -274 q 310 -236 353 -274 q 268 -136 268 -199 q 328 -7 268 -53 q 141 98 211 8 q 71 326 71 188 q 112 529 71 442 q 228 665 153 617 q 400 713 303 713 q 563 671 493 713 q 672 553 633 629 q 710 376 710 478 q 645 130 710 224 q 481 6 581 36 m 158 322 q 217 130 158 196 q 386 64 275 64 q 560 149 497 64 q 624 381 624 233 q 564 572 624 503 q 400 640 504 640 q 223 555 288 640 q 158 322 158 469 z "},"ø":{"ha":781,"x_min":71,"x_max":710,"o":"m 615 632 q 685 522 661 588 q 710 376 710 457 q 669 174 710 261 q 553 38 628 86 q 381 -10 478 -10 q 219 31 289 -10 l 161 -58 l 104 -24 l 167 71 q 96 181 121 115 q 71 326 71 246 q 112 529 71 442 q 228 665 153 617 q 400 713 303 713 q 563 672 493 713 l 621 760 l 678 728 l 615 632 m 157 322 q 210 138 157 203 l 521 608 q 400 640 469 640 q 222 555 286 640 q 157 322 157 469 m 386 64 q 560 149 497 64 q 624 381 624 233 q 571 565 624 497 l 261 93 q 386 64 311 64 z "},"ǿ":{"ha":781,"x_min":71,"x_max":710,"o":"m 615 632 q 685 522 661 588 q 710 376 710 457 q 669 174 710 261 q 553 38 628 86 q 381 -10 478 -10 q 219 31 289 -10 l 161 -58 l 104 -24 l 167 71 q 96 181 121 115 q 71 326 71 246 q 112 529 71 442 q 228 665 153 617 q 400 713 303 713 q 563 672 493 713 l 621 760 l 678 728 l 615 632 m 157 322 q 210 138 157 203 l 521 608 q 400 640 469 640 q 222 555 286 640 q 157 322 157 469 m 386 64 q 560 149 497 64 q 624 381 624 233 q 571 565 624 497 l 261 93 q 386 64 311 64 m 394 788 l 554 1069 l 667 1069 l 458 788 l 394 788 z "},"õ":{"ha":781,"x_min":71,"x_max":710,"o":"m 381 -10 q 217 32 288 -10 q 109 149 147 74 q 71 326 71 225 q 112 529 71 442 q 228 665 153 617 q 400 713 303 713 q 563 671 493 713 q 672 553 633 629 q 710 376 710 478 q 669 174 710 261 q 553 38 628 86 q 381 -10 478 -10 m 386 64 q 560 149 497 64 q 624 381 624 233 q 564 572 624 503 q 400 640 504 640 q 223 555 288 640 q 158 322 158 469 q 217 130 158 196 q 386 64 275 64 m 211 858 q 249 968 214 931 q 339 1006 283 1006 q 394 994 368 1006 q 456 960 421 982 q 501 933 482 942 q 538 924 521 924 q 588 945 569 924 q 610 1001 607 967 l 664 1001 q 625 892 660 929 q 536 854 590 854 q 482 865 507 854 q 419 900 457 876 q 339 936 368 936 q 288 915 307 936 q 267 858 269 893 l 211 858 z "},"ṍ":{"ha":781,"x_min":71,"x_max":710,"o":"m 381 -10 q 217 32 288 -10 q 109 149 147 74 q 71 326 71 225 q 112 529 71 442 q 228 665 153 617 q 400 713 303 713 q 563 671 493 713 q 672 553 633 629 q 710 376 710 478 q 669 174 710 261 q 553 38 628 86 q 381 -10 478 -10 m 386 64 q 560 149 497 64 q 624 381 624 233 q 564 572 624 503 q 400 640 504 640 q 223 555 288 640 q 158 322 158 469 q 217 130 158 196 q 386 64 275 64 m 211 858 q 249 968 214 931 q 339 1006 283 1006 q 394 994 368 1006 q 456 960 421 982 q 501 933 482 942 q 538 924 521 924 q 588 945 569 924 q 610 1001 607 967 l 664 1001 q 625 892 660 929 q 536 854 590 854 q 482 865 507 854 q 419 900 457 876 q 339 936 368 936 q 288 915 307 936 q 267 858 269 893 l 211 858 m 415 1060 l 575 1342 l 688 1342 l 479 1060 l 415 1060 z "},"ṏ":{"ha":781,"x_min":71,"x_max":710,"o":"m 381 -10 q 217 32 288 -10 q 109 149 147 74 q 71 326 71 225 q 112 529 71 442 q 228 665 153 617 q 400 713 303 713 q 563 671 493 713 q 672 553 633 629 q 710 376 710 478 q 669 174 710 261 q 553 38 628 86 q 381 -10 478 -10 m 386 64 q 560 149 497 64 q 624 381 624 233 q 564 572 624 503 q 400 640 504 640 q 223 555 288 640 q 158 322 158 469 q 217 130 158 196 q 386 64 275 64 m 211 858 q 249 968 214 931 q 339 1006 283 1006 q 394 994 368 1006 q 456 960 421 982 q 501 933 482 942 q 538 924 521 924 q 588 945 569 924 q 610 1001 607 967 l 664 1001 q 625 892 660 929 q 536 854 590 854 q 482 865 507 854 q 419 900 457 876 q 339 936 368 936 q 288 915 307 936 q 267 858 269 893 l 211 858 m 399 1253 l 390 1150 l 286 1150 l 294 1253 l 399 1253 m 632 1253 l 624 1150 l 518 1150 l 526 1253 l 632 1253 z "},"ȭ":{"ha":781,"x_min":71,"x_max":710,"o":"m 381 -10 q 217 32 288 -10 q 109 149 147 74 q 71 326 71 225 q 112 529 71 442 q 228 665 153 617 q 400 713 303 713 q 563 671 493 713 q 672 553 633 629 q 710 376 710 478 q 669 174 710 261 q 553 38 628 86 q 381 -10 478 -10 m 386 64 q 560 149 497 64 q 624 381 624 233 q 564 572 624 503 q 400 640 504 640 q 223 555 288 640 q 158 322 158 469 q 217 130 158 196 q 386 64 275 64 m 211 858 q 249 968 214 931 q 339 1006 283 1006 q 394 994 368 1006 q 456 960 421 982 q 501 933 482 942 q 538 924 521 924 q 588 945 569 924 q 610 1001 607 967 l 664 1001 q 625 892 660 929 q 536 854 590 854 q 482 865 507 854 q 419 900 457 876 q 339 936 368 936 q 288 915 307 936 q 267 858 269 893 l 211 858 m 254 1238 l 668 1238 l 663 1165 l 247 1165 l 254 1238 z "},"œ":{"ha":1299,"x_min":71,"x_max":1236,"o":"m 707 338 l 707 322 q 769 133 707 201 q 950 64 832 64 q 1065 85 1007 64 q 1174 147 1124 106 l 1203 83 q 1088 16 1160 42 q 949 -10 1017 -10 q 766 38 839 -10 q 660 172 693 85 q 550 39 622 88 q 381 -10 478 -10 q 217 32 288 -10 q 109 149 147 74 q 71 326 71 225 q 112 529 71 442 q 228 665 153 617 q 401 713 303 713 q 572 666 503 713 q 672 526 642 619 q 783 664 710 615 q 961 713 857 713 q 1163 635 1089 713 q 1236 407 1236 558 q 1232 338 1236 374 l 707 338 m 965 644 q 794 581 860 644 q 713 401 729 517 l 1160 401 q 1111 583 1164 521 q 965 644 1058 644 m 386 64 q 559 148 496 64 q 622 381 622 232 q 563 572 622 503 q 400 640 504 640 q 223 555 288 640 q 158 322 158 469 q 217 130 158 196 q 386 64 275 64 z "},"p":{"ha":821,"x_min":64,"x_max":750,"o":"m 453 713 q 608 672 540 713 q 713 554 675 631 q 750 376 750 478 q 709 174 750 261 q 594 38 668 86 q 425 -10 521 -10 q 275 28 339 -10 q 182 136 211 67 l 147 -300 l 64 -300 l 128 503 q 133 632 133 560 q 132 696 133 675 l 211 696 l 213 576 q 311 676 246 640 q 453 713 376 713 m 425 64 q 599 148 536 64 q 663 379 663 232 q 603 572 663 503 q 439 640 544 640 q 262 556 326 640 q 197 322 197 471 q 256 130 197 196 q 425 64 314 64 z "},"þ":{"ha":821,"x_min":65,"x_max":750,"o":"m 453 713 q 608 672 540 713 q 713 554 675 631 q 750 376 750 478 q 709 174 750 261 q 594 38 668 86 q 425 -10 521 -10 q 276 28 340 -10 q 183 133 213 65 l 149 -300 l 65 -300 l 169 1011 l 253 1011 l 218 586 q 316 679 253 646 q 453 713 379 713 m 425 64 q 600 148 536 64 q 664 379 664 232 q 604 572 664 503 q 439 640 544 640 q 262 556 326 640 q 197 322 197 471 q 256 130 197 196 q 425 64 314 64 z "},"q":{"ha":821,"x_min":69,"x_max":742,"o":"m 742 696 q 715 503 722 586 l 651 -300 l 568 -300 l 601 117 q 503 24 567 57 q 365 -10 440 -10 q 210 32 278 -10 q 106 150 143 74 q 69 328 69 226 q 110 529 69 442 q 225 665 151 617 q 394 713 299 713 q 548 673 483 713 q 642 560 613 633 l 663 696 l 742 696 m 382 64 q 558 149 493 64 q 622 381 622 233 q 564 573 622 506 q 397 640 506 640 q 220 556 285 640 q 156 324 156 471 q 215 132 156 200 q 382 64 275 64 z "},"r":{"ha":485,"x_min":88,"x_max":503,"o":"m 443 713 q 503 707 479 713 l 494 632 q 432 638 468 638 q 268 569 325 638 q 206 408 211 501 l 172 0 l 88 0 l 128 503 q 133 642 133 594 q 132 696 133 678 l 211 696 l 213 582 q 308 678 246 643 q 443 713 371 713 z "},"ŕ":{"ha":485,"x_min":88,"x_max":572,"o":"m 443 713 q 503 707 479 713 l 494 632 q 432 638 468 638 q 268 569 325 638 q 206 408 211 501 l 172 0 l 88 0 l 128 503 q 133 642 133 594 q 132 696 133 678 l 211 696 l 213 582 q 308 678 246 643 q 443 713 371 713 m 300 788 l 460 1069 l 572 1069 l 364 788 l 300 788 z "},"ř":{"ha":485,"x_min":88,"x_max":547,"o":"m 443 713 q 503 707 479 713 l 494 632 q 432 638 468 638 q 268 569 325 638 q 206 408 211 501 l 172 0 l 88 0 l 128 503 q 133 642 133 594 q 132 696 133 678 l 211 696 l 213 582 q 308 678 246 643 q 443 713 371 713 m 547 1069 l 365 788 l 299 788 l 161 1069 l 246 1069 l 336 857 l 460 1069 l 547 1069 z "},"ŗ":{"ha":485,"x_min":53,"x_max":503,"o":"m 443 713 q 503 707 479 713 l 494 632 q 432 638 468 638 q 268 569 325 638 q 206 408 211 501 l 172 0 l 88 0 l 128 503 q 133 642 133 594 q 132 696 133 678 l 211 696 l 213 582 q 308 678 246 643 q 443 713 371 713 m 182 -104 l 176 -182 q 152 -278 171 -236 q 93 -358 133 -319 l 53 -324 q 95 -267 82 -294 q 111 -207 108 -240 l 57 -207 l 64 -104 l 182 -104 z "},"ȑ":{"ha":485,"x_min":88,"x_max":503,"o":"m 443 713 q 503 707 479 713 l 494 632 q 432 638 468 638 q 268 569 325 638 q 206 408 211 501 l 172 0 l 88 0 l 128 503 q 133 642 133 594 q 132 696 133 678 l 211 696 l 213 582 q 308 678 246 643 q 443 713 371 713 m 139 1069 l 226 1069 l 274 788 l 226 788 l 139 1069 m 303 1069 l 389 1069 l 436 788 l 389 788 l 303 1069 z "},"ṛ":{"ha":485,"x_min":56,"x_max":503,"o":"m 443 713 q 503 707 479 713 l 494 632 q 432 638 468 638 q 268 569 325 638 q 206 408 211 501 l 172 0 l 88 0 l 128 503 q 133 642 133 594 q 132 696 133 678 l 211 696 l 213 582 q 308 678 246 643 q 443 713 371 713 m 176 -142 l 167 -250 l 56 -250 l 65 -142 l 176 -142 z "},"ȓ":{"ha":485,"x_min":88,"x_max":560,"o":"m 443 713 q 503 707 479 713 l 494 632 q 432 638 468 638 q 268 569 325 638 q 206 408 211 501 l 172 0 l 88 0 l 128 503 q 133 642 133 594 q 132 696 133 678 l 211 696 l 213 582 q 308 678 246 643 q 443 713 371 713 m 350 1028 q 480 986 424 1028 q 560 858 536 944 l 494 831 q 433 930 471 900 q 346 960 396 960 q 253 931 294 960 q 178 831 211 901 l 114 857 q 213 988 151 947 q 350 1028 275 1028 z "},"ṟ":{"ha":485,"x_min":-94,"x_max":503,"o":"m 443 713 q 503 707 479 713 l 494 632 q 432 638 468 638 q 268 569 325 638 q 206 408 211 501 l 172 0 l 88 0 l 128 503 q 133 642 133 594 q 132 696 133 678 l 211 696 l 213 582 q 308 678 246 643 q 443 713 371 713 m -89 -160 l 326 -160 l 321 -232 l -94 -232 l -89 -160 z "},"s":{"ha":686,"x_min":53,"x_max":618,"o":"m 321 -10 q 173 15 243 -10 q 53 83 103 39 l 90 147 q 201 83 147 103 q 322 63 256 63 q 462 92 414 63 q 510 182 510 122 q 487 243 510 219 q 429 281 464 267 q 336 313 394 296 q 218 354 263 335 q 142 411 174 374 q 111 510 111 449 q 183 658 111 604 q 376 713 254 713 q 514 688 450 713 q 618 621 578 664 l 581 556 q 378 640 486 640 q 243 608 290 640 q 196 514 196 576 q 219 453 196 476 q 276 416 242 429 q 369 385 310 403 q 487 344 442 364 q 564 287 532 325 q 596 186 596 249 q 521 43 596 96 q 321 -10 446 -10 z "},"ś":{"ha":686,"x_min":53,"x_max":629,"o":"m 321 -10 q 173 15 243 -10 q 53 83 103 39 l 90 147 q 201 83 147 103 q 322 63 256 63 q 462 92 414 63 q 510 182 510 122 q 487 243 510 219 q 429 281 464 267 q 336 313 394 296 q 218 354 263 335 q 142 411 174 374 q 111 510 111 449 q 183 658 111 604 q 376 713 254 713 q 514 688 450 713 q 618 621 578 664 l 581 556 q 378 640 486 640 q 243 608 290 640 q 196 514 196 576 q 219 453 196 476 q 276 416 242 429 q 369 385 310 403 q 487 344 442 364 q 564 287 532 325 q 596 186 596 249 q 521 43 596 96 q 321 -10 446 -10 m 357 788 l 517 1069 l 629 1069 l 421 788 l 357 788 z "},"ṥ":{"ha":686,"x_min":53,"x_max":626,"o":"m 321 -10 q 173 15 243 -10 q 53 83 103 39 l 90 147 q 201 83 147 103 q 322 63 256 63 q 462 92 414 63 q 510 182 510 122 q 487 243 510 219 q 429 281 464 267 q 336 313 394 296 q 218 354 263 335 q 142 411 174 374 q 111 510 111 449 q 183 658 111 604 q 376 713 254 713 q 514 688 450 713 q 618 621 578 664 l 581 556 q 378 640 486 640 q 243 608 290 640 q 196 514 196 576 q 219 453 196 476 q 276 416 242 429 q 369 385 310 403 q 487 344 442 364 q 564 287 532 325 q 596 186 596 249 q 521 43 596 96 q 321 -10 446 -10 m 354 772 l 514 1054 l 626 1054 l 418 772 l 354 772 m 322 1058 l 314 950 l 201 950 l 210 1058 l 322 1058 z "},"š":{"ha":686,"x_min":53,"x_max":618,"o":"m 321 -10 q 173 15 243 -10 q 53 83 103 39 l 90 147 q 201 83 147 103 q 322 63 256 63 q 462 92 414 63 q 510 182 510 122 q 487 243 510 219 q 429 281 464 267 q 336 313 394 296 q 218 354 263 335 q 142 411 174 374 q 111 510 111 449 q 183 658 111 604 q 376 713 254 713 q 514 688 450 713 q 618 621 578 664 l 581 556 q 378 640 486 640 q 243 608 290 640 q 196 514 196 576 q 219 453 196 476 q 276 416 242 429 q 369 385 310 403 q 487 344 442 364 q 564 287 532 325 q 596 186 596 249 q 521 43 596 96 q 321 -10 446 -10 m 604 1069 l 422 788 l 356 788 l 218 1069 l 303 1069 l 393 857 l 517 1069 l 604 1069 z "},"ṧ":{"ha":686,"x_min":53,"x_max":618,"o":"m 321 -10 q 173 15 243 -10 q 53 83 103 39 l 90 147 q 201 83 147 103 q 322 63 256 63 q 462 92 414 63 q 510 182 510 122 q 487 243 510 219 q 429 281 464 267 q 336 313 394 296 q 218 354 263 335 q 142 411 174 374 q 111 510 111 449 q 183 658 111 604 q 376 713 254 713 q 514 688 450 713 q 618 621 578 664 l 581 556 q 378 640 486 640 q 243 608 290 640 q 196 514 196 576 q 219 453 196 476 q 276 416 242 429 q 369 385 310 403 q 487 344 442 364 q 564 287 532 325 q 596 186 596 249 q 521 43 596 96 q 321 -10 446 -10 m 604 1069 l 422 788 l 356 788 l 218 1069 l 303 1069 l 393 857 l 517 1069 l 604 1069 m 481 1256 l 472 1147 l 360 1147 l 368 1256 l 481 1256 z "},"ş":{"ha":686,"x_min":53,"x_max":618,"o":"m 196 514 q 219 453 196 476 q 276 416 242 429 q 369 385 310 403 q 487 344 442 364 q 564 287 532 325 q 596 186 596 249 q 524 45 596 97 q 333 -10 453 -7 l 324 -61 q 356 -57 340 -57 q 428 -82 400 -57 q 457 -151 457 -107 q 415 -236 457 -204 q 299 -268 374 -268 q 236 -262 269 -268 q 176 -242 203 -256 l 197 -187 q 300 -207 250 -207 q 364 -194 342 -207 q 386 -154 386 -181 q 374 -124 386 -135 q 336 -114 361 -114 q 271 -128 310 -114 l 246 -107 l 264 -7 q 148 25 203 1 q 53 83 93 49 l 90 147 q 201 83 147 103 q 322 63 256 63 q 462 92 414 63 q 510 182 510 122 q 487 243 510 219 q 429 281 464 267 q 336 313 394 296 q 218 354 263 335 q 142 411 174 374 q 111 510 111 449 q 183 658 111 604 q 376 713 254 713 q 514 688 450 713 q 618 621 578 664 l 581 556 q 378 640 486 640 q 243 608 290 640 q 196 514 196 576 z "},"ŝ":{"ha":686,"x_min":53,"x_max":618,"o":"m 321 -10 q 173 15 243 -10 q 53 83 103 39 l 90 147 q 201 83 147 103 q 322 63 256 63 q 462 92 414 63 q 510 182 510 122 q 487 243 510 219 q 429 281 464 267 q 336 313 394 296 q 218 354 263 335 q 142 411 174 374 q 111 510 111 449 q 183 658 111 604 q 376 713 254 713 q 514 688 450 713 q 618 621 578 664 l 581 556 q 378 640 486 640 q 243 608 290 640 q 196 514 196 576 q 219 453 196 476 q 276 416 242 429 q 369 385 310 403 q 487 344 442 364 q 564 287 532 325 q 596 186 596 249 q 521 43 596 96 q 321 -10 446 -10 m 194 788 l 378 1069 l 444 1069 l 582 788 l 497 788 l 407 999 l 285 788 l 194 788 z "},"ș":{"ha":686,"x_min":53,"x_max":618,"o":"m 321 -10 q 173 15 243 -10 q 53 83 103 39 l 90 147 q 201 83 147 103 q 322 63 256 63 q 462 92 414 63 q 510 182 510 122 q 487 243 510 219 q 429 281 464 267 q 336 313 394 296 q 218 354 263 335 q 142 411 174 374 q 111 510 111 449 q 183 658 111 604 q 376 713 254 713 q 514 688 450 713 q 618 621 578 664 l 581 556 q 378 640 486 640 q 243 608 290 640 q 196 514 196 576 q 219 453 196 476 q 276 416 242 429 q 369 385 310 403 q 487 344 442 364 q 564 287 532 325 q 596 186 596 249 q 521 43 596 96 q 321 -10 446 -10 m 364 -104 l 358 -182 q 334 -278 353 -236 q 275 -358 315 -319 l 235 -324 q 277 -267 264 -294 q 293 -207 290 -240 l 239 -207 l 246 -104 l 364 -104 z "},"ṡ":{"ha":686,"x_min":53,"x_max":618,"o":"m 321 -10 q 173 15 243 -10 q 53 83 103 39 l 90 147 q 201 83 147 103 q 322 63 256 63 q 462 92 414 63 q 510 182 510 122 q 487 243 510 219 q 429 281 464 267 q 336 313 394 296 q 218 354 263 335 q 142 411 174 374 q 111 510 111 449 q 183 658 111 604 q 376 713 254 713 q 514 688 450 713 q 618 621 578 664 l 581 556 q 378 640 486 640 q 243 608 290 640 q 196 514 196 576 q 219 453 196 476 q 276 416 242 429 q 369 385 310 403 q 487 344 442 364 q 564 287 532 325 q 596 186 596 249 q 521 43 596 96 q 321 -10 446 -10 m 460 983 l 451 875 l 339 875 l 347 983 l 460 983 z "},"ṣ":{"ha":686,"x_min":53,"x_max":618,"o":"m 321 -10 q 173 15 243 -10 q 53 83 103 39 l 90 147 q 201 83 147 103 q 322 63 256 63 q 462 92 414 63 q 510 182 510 122 q 487 243 510 219 q 429 281 464 267 q 336 313 394 296 q 218 354 263 335 q 142 411 174 374 q 111 510 111 449 q 183 658 111 604 q 376 713 254 713 q 514 688 450 713 q 618 621 578 664 l 581 556 q 378 640 486 640 q 243 608 290 640 q 196 514 196 576 q 219 453 196 476 q 276 416 242 429 q 369 385 310 403 q 487 344 442 364 q 564 287 532 325 q 596 186 596 249 q 521 43 596 96 q 321 -10 446 -10 m 358 -142 l 349 -250 l 238 -250 l 247 -142 l 358 -142 z "},"ṩ":{"ha":686,"x_min":53,"x_max":618,"o":"m 321 -10 q 173 15 243 -10 q 53 83 103 39 l 90 147 q 201 83 147 103 q 322 63 256 63 q 462 92 414 63 q 510 182 510 122 q 487 243 510 219 q 429 281 464 267 q 336 313 394 296 q 218 354 263 335 q 142 411 174 374 q 111 510 111 449 q 183 658 111 604 q 376 713 254 713 q 514 688 450 713 q 618 621 578 664 l 581 556 q 378 640 486 640 q 243 608 290 640 q 196 514 196 576 q 219 453 196 476 q 276 416 242 429 q 369 385 310 403 q 487 344 442 364 q 564 287 532 325 q 596 186 596 249 q 521 43 596 96 q 321 -10 446 -10 m 358 -142 l 349 -250 l 238 -250 l 247 -142 l 358 -142 m 460 983 l 451 875 l 339 875 l 347 983 l 460 983 z "},"ß":{"ha":856,"x_min":88,"x_max":797,"o":"m 474 514 q 719 401 640 474 q 797 218 797 329 q 764 101 797 153 q 671 19 731 49 q 535 -10 611 -10 q 396 15 464 -10 q 279 83 328 40 l 317 147 q 425 83 372 103 q 539 63 478 63 q 665 104 619 63 q 711 217 711 146 q 633 365 711 306 q 376 474 556 424 l 382 540 q 576 657 513 592 q 639 810 639 722 q 475 957 639 957 q 299 897 358 957 q 229 706 239 836 l 172 0 l 88 0 l 144 699 q 475 1028 172 1028 q 654 970 589 1028 q 719 810 719 913 q 657 640 719 715 q 474 514 594 564 z "},"t":{"ha":468,"x_min":33,"x_max":465,"o":"m 222 214 q 221 186 221 204 q 251 92 221 118 q 336 65 281 65 q 411 78 378 65 l 406 3 q 317 -8 364 -8 q 184 36 232 -8 q 136 169 136 81 q 138 196 136 186 l 171 628 l 33 628 l 39 696 l 176 696 l 190 881 l 276 913 l 260 696 l 465 696 l 460 628 l 254 628 l 222 214 z "},"ŧ":{"ha":482,"x_min":40,"x_max":472,"o":"m 261 628 l 246 436 l 424 436 l 418 369 l 242 369 l 229 214 q 228 186 228 204 q 258 92 228 118 q 343 65 288 65 q 419 78 383 65 l 413 3 q 324 -8 371 -8 q 191 37 239 -8 q 143 171 143 82 l 144 196 l 158 369 l 49 369 l 54 436 l 163 436 l 178 628 l 40 628 l 46 696 l 183 696 l 197 881 l 283 913 l 267 696 l 472 696 l 468 628 l 261 628 z "},"ť":{"ha":468,"x_min":33,"x_max":465,"o":"m 390 753 l 339 753 l 358 992 l 446 992 l 390 753 m 222 214 q 221 186 221 204 q 251 92 221 118 q 336 65 281 65 q 411 78 378 65 l 406 3 q 317 -8 364 -8 q 184 36 232 -8 q 136 169 136 81 q 138 196 136 186 l 171 628 l 33 628 l 39 696 l 176 696 l 190 881 l 276 913 l 260 696 l 465 696 l 460 628 l 254 628 l 222 214 z "},"ţ":{"ha":468,"x_min":33,"x_max":465,"o":"m 222 214 q 221 186 221 204 q 251 92 221 118 q 336 65 281 65 q 411 78 378 65 l 406 3 q 317 -8 364 -8 l 297 -8 l 286 -61 q 318 -57 303 -57 q 391 -82 363 -57 q 419 -151 419 -107 q 378 -236 419 -204 q 261 -268 336 -268 q 199 -262 232 -268 q 139 -242 165 -256 l 160 -187 q 263 -207 213 -207 q 326 -194 304 -207 q 349 -154 349 -181 q 336 -124 349 -135 q 299 -114 324 -114 q 233 -128 272 -114 l 208 -107 l 229 7 q 136 168 136 44 q 138 196 136 186 l 171 628 l 33 628 l 39 696 l 176 696 l 190 881 l 276 913 l 260 696 l 465 696 l 460 628 l 254 628 l 222 214 z "},"ț":{"ha":468,"x_min":33,"x_max":465,"o":"m 222 214 q 221 186 221 204 q 251 92 221 118 q 336 65 281 65 q 411 78 378 65 l 406 3 q 317 -8 364 -8 q 184 36 232 -8 q 136 169 136 81 q 138 196 136 186 l 171 628 l 33 628 l 39 696 l 176 696 l 190 881 l 276 913 l 260 696 l 465 696 l 460 628 l 254 628 l 222 214 m 326 -104 l 321 -182 q 297 -278 315 -236 q 238 -358 278 -319 l 197 -324 q 240 -267 226 -294 q 256 -207 253 -240 l 201 -207 l 208 -104 l 326 -104 z "},"ẗ":{"ha":468,"x_min":33,"x_max":465,"o":"m 222 214 q 221 186 221 204 q 251 92 221 118 q 336 65 281 65 q 411 78 378 65 l 406 3 q 317 -8 364 -8 q 184 36 232 -8 q 136 169 136 81 q 138 196 136 186 l 171 628 l 33 628 l 39 696 l 176 696 l 190 881 l 276 913 l 260 696 l 465 696 l 460 628 l 254 628 l 222 214 m 192 1153 l 182 1051 l 78 1051 l 86 1153 l 192 1153 m 424 1153 l 415 1051 l 310 1051 l 318 1153 l 424 1153 z "},"ṭ":{"ha":468,"x_min":33,"x_max":465,"o":"m 222 214 q 221 186 221 204 q 251 92 221 118 q 336 65 281 65 q 411 78 378 65 l 406 3 q 317 -8 364 -8 q 184 36 232 -8 q 136 169 136 81 q 138 196 136 186 l 171 628 l 33 628 l 39 696 l 176 696 l 190 881 l 276 913 l 260 696 l 465 696 l 460 628 l 254 628 l 222 214 m 321 -142 l 311 -250 l 200 -250 l 210 -142 l 321 -142 z "},"ṯ":{"ha":468,"x_min":33,"x_max":471,"o":"m 222 214 q 221 186 221 204 q 251 92 221 118 q 336 65 281 65 q 411 78 378 65 l 406 3 q 317 -8 364 -8 q 184 36 232 -8 q 136 169 136 81 q 138 196 136 186 l 171 628 l 33 628 l 39 696 l 176 696 l 190 881 l 276 913 l 260 696 l 465 696 l 460 628 l 254 628 l 222 214 m 56 -160 l 471 -160 l 465 -232 l 50 -232 l 56 -160 z "},"u":{"ha":790,"x_min":103,"x_max":703,"o":"m 703 696 l 649 0 l 567 0 l 576 122 q 478 24 540 58 q 340 -10 417 -10 q 165 51 226 -10 q 103 226 103 111 q 104 263 103 250 l 139 696 l 222 696 l 189 269 q 188 236 188 258 q 351 64 188 64 q 517 127 454 64 q 588 301 579 190 l 619 696 l 703 696 z "},"ú":{"ha":790,"x_min":103,"x_max":703,"o":"m 703 696 l 649 0 l 567 0 l 576 122 q 478 24 540 58 q 340 -10 417 -10 q 165 51 226 -10 q 103 226 103 111 q 104 263 103 250 l 139 696 l 222 696 l 189 269 q 188 236 188 258 q 351 64 188 64 q 517 127 454 64 q 588 301 579 190 l 619 696 l 703 696 m 399 788 l 558 1069 l 671 1069 l 463 788 l 399 788 z "},"ŭ":{"ha":790,"x_min":103,"x_max":703,"o":"m 703 696 l 649 0 l 567 0 l 576 122 q 478 24 540 58 q 340 -10 417 -10 q 165 51 226 -10 q 103 226 103 111 q 104 263 103 250 l 139 696 l 222 696 l 189 269 q 188 236 188 258 q 351 64 188 64 q 517 127 454 64 q 588 301 579 190 l 619 696 l 703 696 m 435 833 q 305 875 361 833 q 224 1001 249 917 l 290 1029 q 440 901 335 901 q 607 1029 544 901 l 669 1003 q 572 874 633 914 q 435 833 510 833 z "},"û":{"ha":790,"x_min":103,"x_max":703,"o":"m 703 696 l 649 0 l 567 0 l 576 122 q 478 24 540 58 q 340 -10 417 -10 q 165 51 226 -10 q 103 226 103 111 q 104 263 103 250 l 139 696 l 222 696 l 189 269 q 188 236 188 258 q 351 64 188 64 q 517 127 454 64 q 588 301 579 190 l 619 696 l 703 696 m 236 788 l 419 1069 l 486 1069 l 624 788 l 539 788 l 449 999 l 326 788 l 236 788 z "},"ȕ":{"ha":790,"x_min":103,"x_max":703,"o":"m 703 696 l 649 0 l 567 0 l 576 122 q 478 24 540 58 q 340 -10 417 -10 q 165 51 226 -10 q 103 226 103 111 q 104 263 103 250 l 139 696 l 222 696 l 189 269 q 188 236 188 258 q 351 64 188 64 q 517 127 454 64 q 588 301 579 190 l 619 696 l 703 696 m 238 1069 l 325 1069 l 372 788 l 325 788 l 238 1069 m 401 1069 l 488 1069 l 535 788 l 488 788 l 401 1069 z "},"ü":{"ha":790,"x_min":103,"x_max":703,"o":"m 703 696 l 649 0 l 567 0 l 576 122 q 478 24 540 58 q 340 -10 417 -10 q 165 51 226 -10 q 103 226 103 111 q 104 263 103 250 l 139 696 l 222 696 l 189 269 q 188 236 188 258 q 351 64 188 64 q 517 127 454 64 q 588 301 579 190 l 619 696 l 703 696 m 382 981 l 374 878 l 269 878 l 278 981 l 382 981 m 615 981 l 607 878 l 501 878 l 510 981 l 615 981 z "},"ụ":{"ha":790,"x_min":103,"x_max":703,"o":"m 703 696 l 649 0 l 567 0 l 576 122 q 478 24 540 58 q 340 -10 417 -10 q 165 51 226 -10 q 103 226 103 111 q 104 263 103 250 l 139 696 l 222 696 l 189 269 q 188 236 188 258 q 351 64 188 64 q 517 127 454 64 q 588 301 579 190 l 619 696 l 703 696 m 414 -142 l 404 -250 l 293 -250 l 303 -142 l 414 -142 z "},"ù":{"ha":790,"x_min":103,"x_max":703,"o":"m 703 696 l 649 0 l 567 0 l 576 122 q 478 24 540 58 q 340 -10 417 -10 q 165 51 226 -10 q 103 226 103 111 q 104 263 103 250 l 139 696 l 222 696 l 189 269 q 188 236 188 258 q 351 64 188 64 q 517 127 454 64 q 588 301 579 190 l 619 696 l 703 696 m 240 1069 l 342 1069 l 463 788 l 399 788 l 240 1069 z "},"ủ":{"ha":790,"x_min":103,"x_max":703,"o":"m 703 696 l 649 0 l 567 0 l 576 122 q 478 24 540 58 q 340 -10 417 -10 q 165 51 226 -10 q 103 226 103 111 q 104 263 103 250 l 139 696 l 222 696 l 189 269 q 188 236 188 258 q 351 64 188 64 q 517 127 454 64 q 588 301 579 190 l 619 696 l 703 696 m 465 788 l 401 788 l 404 825 q 423 875 407 854 q 467 921 439 896 q 498 953 489 942 q 507 978 507 964 q 492 1002 507 993 q 450 1011 478 1011 q 363 994 417 1011 l 347 1053 q 460 1075 393 1075 q 551 1051 517 1075 q 586 986 586 1026 q 571 935 586 954 q 524 889 556 915 q 483 851 497 868 q 467 810 468 833 l 465 788 z "},"ư":{"ha":806,"x_min":103,"x_max":886,"o":"m 886 883 l 885 851 q 830 708 878 763 q 700 644 782 654 l 649 0 l 567 0 l 576 122 q 478 24 540 58 q 340 -10 417 -10 q 165 51 226 -10 q 103 226 103 111 q 104 263 103 250 l 139 696 l 222 696 l 189 269 q 188 236 188 258 q 351 64 188 64 q 517 127 454 64 q 588 301 579 190 l 619 696 l 644 696 q 763 738 724 697 q 808 865 803 778 l 810 883 l 886 883 z "},"ứ":{"ha":806,"x_min":103,"x_max":886,"o":"m 886 883 l 885 851 q 830 708 878 763 q 700 644 782 654 l 649 0 l 567 0 l 576 122 q 478 24 540 58 q 340 -10 417 -10 q 165 51 226 -10 q 103 226 103 111 q 104 263 103 250 l 139 696 l 222 696 l 189 269 q 188 236 188 258 q 351 64 188 64 q 517 127 454 64 q 588 301 579 190 l 619 696 l 644 696 q 763 738 724 697 q 808 865 803 778 l 810 883 l 886 883 m 399 788 l 558 1069 l 671 1069 l 463 788 l 399 788 z "},"ự":{"ha":806,"x_min":103,"x_max":886,"o":"m 886 883 l 885 851 q 830 708 878 763 q 700 644 782 654 l 649 0 l 567 0 l 576 122 q 478 24 540 58 q 340 -10 417 -10 q 165 51 226 -10 q 103 226 103 111 q 104 263 103 250 l 139 696 l 222 696 l 189 269 q 188 236 188 258 q 351 64 188 64 q 517 127 454 64 q 588 301 579 190 l 619 696 l 644 696 q 763 738 724 697 q 808 865 803 778 l 810 883 l 886 883 m 414 -142 l 404 -250 l 293 -250 l 303 -142 l 414 -142 z "},"ừ":{"ha":806,"x_min":103,"x_max":886,"o":"m 886 883 l 885 851 q 830 708 878 763 q 700 644 782 654 l 649 0 l 567 0 l 576 122 q 478 24 540 58 q 340 -10 417 -10 q 165 51 226 -10 q 103 226 103 111 q 104 263 103 250 l 139 696 l 222 696 l 189 269 q 188 236 188 258 q 351 64 188 64 q 517 127 454 64 q 588 301 579 190 l 619 696 l 644 696 q 763 738 724 697 q 808 865 803 778 l 810 883 l 886 883 m 240 1069 l 342 1069 l 463 788 l 399 788 l 240 1069 z "},"ử":{"ha":806,"x_min":103,"x_max":886,"o":"m 886 883 l 885 851 q 830 708 878 763 q 700 644 782 654 l 649 0 l 567 0 l 576 122 q 478 24 540 58 q 340 -10 417 -10 q 165 51 226 -10 q 103 226 103 111 q 104 263 103 250 l 139 696 l 222 696 l 189 269 q 188 236 188 258 q 351 64 188 64 q 517 127 454 64 q 588 301 579 190 l 619 696 l 644 696 q 763 738 724 697 q 808 865 803 778 l 810 883 l 886 883 m 465 788 l 401 788 l 404 825 q 423 875 407 854 q 467 921 439 896 q 498 953 489 942 q 507 978 507 964 q 492 1002 507 993 q 450 1011 478 1011 q 363 994 417 1011 l 347 1053 q 460 1075 393 1075 q 551 1051 517 1075 q 586 986 586 1026 q 571 935 586 954 q 524 889 556 915 q 483 851 497 868 q 467 810 468 833 l 465 788 z "},"ữ":{"ha":806,"x_min":103,"x_max":886,"o":"m 886 883 l 885 851 q 830 708 878 763 q 700 644 782 654 l 649 0 l 567 0 l 576 122 q 478 24 540 58 q 340 -10 417 -10 q 165 51 226 -10 q 103 226 103 111 q 104 263 103 250 l 139 696 l 222 696 l 189 269 q 188 236 188 258 q 351 64 188 64 q 517 127 454 64 q 588 301 579 190 l 619 696 l 644 696 q 763 738 724 697 q 808 865 803 778 l 810 883 l 886 883 m 215 858 q 253 968 218 931 q 343 1006 288 1006 q 399 994 372 1006 q 460 960 425 982 q 506 933 486 942 q 542 924 525 924 q 592 945 574 924 q 614 1001 611 967 l 668 1001 q 629 892 664 929 q 540 854 594 854 q 486 865 511 854 q 424 900 461 876 q 343 936 372 936 q 292 915 311 936 q 271 858 274 893 l 215 858 z "},"ű":{"ha":790,"x_min":103,"x_max":703,"o":"m 703 696 l 649 0 l 567 0 l 576 122 q 478 24 540 58 q 340 -10 417 -10 q 165 51 226 -10 q 103 226 103 111 q 104 263 103 250 l 139 696 l 222 696 l 189 269 q 188 236 188 258 q 351 64 188 64 q 517 127 454 64 q 588 301 579 190 l 619 696 l 703 696 m 325 788 l 415 1069 l 507 1069 l 372 788 l 325 788 m 488 788 l 578 1069 l 669 1069 l 535 788 l 488 788 z "}}}
